<?xml version="1.0" encoding="UTF-8"?>
<svg xmlns="http://www.w3.org/2000/svg" id="Layer_1" data-name="Layer 1" viewBox="0 0 24 24">
  <path d="m4.5,2.5c0-1.381,1.119-2.5,2.5-2.5s2.5,1.119,2.5,2.5-1.119,2.5-2.5,2.5-2.5-1.119-2.5-2.5Zm7.764,13.87c-.417.169-.84.324-1.264.47v7.16h-2v-6.561c-1.387.35-2.737.554-3.92.554-1.864,0-3.317-.493-3.869-1.664-.802-1.703.657-3.863,3.915-5.877C2.591,7.548,0,3.684,0,0h2c0,1.718.778,3.778,2.226,6h5.428c1.652-1.245,3.346-4.474,3.346-6h2c0,1.976-1.738,5.565-3.827,7.356.057.139.126.296.215.478l.009-.003c.909-.273,1.939-.584,3.475-.782,3.31-.281,4.497.726,4.917,1.617.194.413.353,1.093.003,1.987-.061.155-.158.315-.247.474l3.732-1.089.56,1.92-7.275,2.122c-1.211.835-2.668,1.625-4.298,2.288Zm-6.588-8.37c.934,1.173,2.033,2.375,3.283,3.581.297,0,1.004-.081,2.041-.699-.947-1.16-1.459-2.205-1.724-2.882h-3.6Zm5.836,6.517c3.609-1.465,5.961-3.418,6.418-4.59.041-.105.102-.297.05-.407-.127-.27-1.027-.642-2.896-.481-1.055.137-1.84.337-2.558.545.205.254,1.473,1.582,1.473,1.582l-.886.687c-1.869,1.449-3.322,1.723-4.153,1.723-.428,0-.981-.165-.981-.165,0,0-1.009-.976-1.466-1.449-2.841,1.688-3.658,3.163-3.492,3.516.294.625,3.539,1.051,8.492-.96Z"/>
</svg>
