<?xml version="1.0" encoding="UTF-8"?>
<svg xmlns="http://www.w3.org/2000/svg" id="Layer_1" data-name="Layer 1" viewBox="0 0 24 24">
  <path d="m14.414,11.792c-.149-.759-.299-1.231-.414-1.51V0h-2v9.882l-1.108.554c-1.167.583-1.892,1.756-1.892,3.061v8.503h-2.884l1.799-4.098-1.831-.804-2.563,5.837,1.065,1.065h10.414v-3.5c0-3.041-.099-5.254-.272-6.818-.081-.651-.183-1.289-.314-1.89Zm-1.414,10.208h-2v-8.503c0-.542.301-1.03.786-1.272l.606-.303c.044.18.086.368.125.564.232,1.333.483,3.753.483,8.013v1.5Zm8-.5c0,1.381-1.139,2.5-2.545,2.5s-2.455-1.119-2.455-2.5,1.05-2.5,2.455-2.5,2.545,1.119,2.545,2.5Z"/>
</svg>
