<?xml version="1.0" encoding="UTF-8"?>
<svg xmlns="http://www.w3.org/2000/svg" id="Layer_1" data-name="Layer 1" viewBox="0 0 24 24">
  <path d="m24,24.006s-1.751-11.676-2.224-13.566c-.634-2.538-2.293-4.089-4.597-4.374.845.842,1.495,1.923,1.917,3.213.323.438.573.982.739,1.646.45,1.8,1.842,11.082,1.842,11.082h-2.379s-1.452-9.682-1.925-11.573c-.704-2.817-2.663-4.434-5.375-4.434s-4.67,1.616-5.375,4.434c-.473,1.892-1.925,11.573-1.925,11.573h-2.379s1.392-9.282,1.842-11.082c.166-.664.417-1.208.74-1.646.422-1.29,1.073-2.37,1.917-3.212-2.304.285-3.963,1.836-4.597,4.374-.473,1.892-2.224,13.566-2.224,13.566h24ZM12,8c1.795,0,2.95.981,3.434,2.918.081.324.191.88.315,1.565l-1.749,1.166v-2.649l-2,1.333-2-1.333v2.649l-1.749-1.166c.125-.685.234-1.241.315-1.565.484-1.937,1.639-2.918,3.434-2.918Zm-5.276,14l.057-.383c.009-.058.579-3.857,1.098-6.978l4.121,2.748,4.121-2.748c.519,3.122,1.089,6.92,1.098,6.978l.057.383H6.724ZM12,5c1.381,0,2.5-1.119,2.5-2.5s-1.119-2.5-2.5-2.5-2.5,1.119-2.5,2.5,1.119,2.5,2.5,2.5Zm6,0c1.381,0,2.5-1.119,2.5-2.5s-1.119-2.5-2.5-2.5-2.5,1.119-2.5,2.5,1.119,2.5,2.5,2.5Zm-12,0c1.381,0,2.5-1.119,2.5-2.5S7.381,0,6,0s-2.5,1.119-2.5,2.5,1.119,2.5,2.5,2.5Z"/>
</svg>
