<?xml version="1.0" encoding="UTF-8"?>
<svg xmlns="http://www.w3.org/2000/svg" id="Layer_1" data-name="Layer 1" viewBox="0 0 24 24">
  <path d="m22,22v-10.5c0-1.227-.638-2.305-1.597-2.93L15.576,1.488c-.522-.886-1.476-1.488-2.576-1.488-1.654,0-3,1.346-3,3,0,.365.075.711.195,1.036l-3.557,2.964H2.586L.017,9.569l1.414,1.414,1.983-1.983h2.586v2.586l-1.983,1.983,1.414,1.414,2.569-2.569v-3.946l3.266-2.722,3.758,5.514c-.006.081-.024.157-.024.239v10.5h-2v2h11v-2h-2ZM13,4c-.552,0-1-.448-1-1s.448-1,1-1,1,.448,1,1-.448,1-1,1Zm.779,1.884c.658-.178,1.225-.571,1.621-1.104l2.269,3.33c-.661.162-1.247.508-1.701.986l-2.189-3.212Zm6.221,16.116h-3v-7.351c.456.219.961.351,1.5.351s1.044-.133,1.5-.351v7.351Zm-1.5-9c-.827,0-1.5-.673-1.5-1.5s.673-1.5,1.5-1.5,1.5.673,1.5,1.5-.673,1.5-1.5,1.5Z"/>
</svg>
