<?xml version="1.0" encoding="UTF-8"?>
<svg xmlns="http://www.w3.org/2000/svg" id="Layer_1" data-name="Layer 1" viewBox="0 0 24 24">
  <path d="m13.765,19c0-.044-.006-.087-.008-.131,1.421.774,3.405-.027,3.405-.027,0,0-.22-1.879-1.378-2.831,1.158-.952,1.378-2.831,1.378-2.831,0,0-1.985-.802-3.407-.026.003-.051.01-.102.01-.154,0-1.657-1.765-3-1.765-3,0,0-1.765,1.343-1.765,3,0,.052.007.103.01.154-1.421-.776-3.407.026-3.407.026,0,0,.219,1.867,1.368,2.822-1.148.955-1.368,2.822-1.368,2.822,0,0,1.985.802,3.406.026-.003.05-.01.099-.01.15,0,1.657,1.765,3,1.765,3,0,0,1.765-1.343,1.765-3Zm-3.265-3c0-.828.672-1.5,1.5-1.5s1.5.672,1.5,1.5-.672,1.5-1.5,1.5-1.5-.672-1.5-1.5ZM21,2h-3V0h-2v2h-8V0h-2v2h-3c-1.654,0-3,1.346-3,3v19h24V5c0-1.654-1.346-3-3-3ZM3,4h18c.552,0,1,.448,1,1v3H2v-3c0-.552.449-1,1-1Zm-1,18v-12h20v12H2Z"/>
</svg>
