<?xml version="1.0" encoding="UTF-8"?>
<svg xmlns="http://www.w3.org/2000/svg" id="Layer_1" data-name="Layer 1" viewBox="0 0 24 24">
  <path d="m13,17h-5c-1.105,0-2,.895-2,2v5h9v-5c0-1.105-.895-2-2-2Zm-1,4h-3v-2h3v2Zm0-19h12V0h-12.169c-2.918,0-5.801.636-8.448,1.863l-1.546.717c-.738.311-1.312.892-1.615,1.635-.301.742-.295,1.558.016,2.294.311.738.891,1.312,1.637,1.616.121.049.251.073.378.106l-.936,1.431c-.358.718-.415,1.531-.16,2.291s.791,1.375,1.505,1.729c.418.21.868.316,1.339.316.393,0,.769-.079,1.116-.219.346,1.274,1.501,2.219,2.884,2.219,1.118,0,2.095-.615,2.61-1.523.647.945,1.736,1.523,2.891,1.523.633,0,1.253-.171,1.792-.495.402-.24,2.47-1.543,3.723-3.636.143-.239.714-1.245,1.067-1.869h3.917v-2h-5.083l-.287.508s-1.124,1.988-1.331,2.334c-1.027,1.717-2.829,2.826-3.033,2.947-.677.407-1.646.163-2.055-.521-.422-.708-.191-1.629.52-2.057,1.484-.902,2.27-2.013,2.27-3.212,0-1.654-1.346-3-3-3s-3,1.346-3,3v5c0,.551-.448,1-1,1s-1-.449-1-1v-6c0-2.757,2.243-5,5-5Zm-1,6c0-.551.448-1,1-1s1,.449,1,1c0,.45-.477.998-1.305,1.5-.26.156-.492.341-.695.549v-2.049Zm-8.374-1.728c-.247-.101-.442-.293-.546-.54-.106-.248-.107-.512-.005-.763.101-.248.293-.442.516-.537l3.103-1.466-2.091,3.199-.227.106c-.232.099-.508.099-.749,0Zm.929,5.622c-.239-.118-.417-.323-.502-.577-.085-.252-.066-.522.054-.763l1.894-3.041v3.728l-.105.205c-.238.481-.853.691-1.34.447Z"/>
</svg>
