<?xml version="1.0" encoding="UTF-8"?>
<svg xmlns="http://www.w3.org/2000/svg" id="Layer_1" data-name="Layer 1" viewBox="0 0 24 24">
  <path d="m24,3v15h-2V3c0-.552-.448-1-1-1H3c-.552,0-1,.448-1,1v15H0V3C0,1.346,1.346,0,3,0h18c1.654,0,3,1.346,3,3Zm0,19v2c-1.201,0-2.266-.542-3-1.382-.734.84-1.799,1.382-3,1.382s-2.266-.542-3-1.382c-.734.84-1.799,1.382-3,1.382s-2.266-.542-3-1.382c-.734.84-1.799,1.382-3,1.382s-2.266-.542-3-1.382c-.734.84-1.799,1.382-3,1.382v-2c1.103,0,2-.897,2-2h2c0,1.103.897,2,2,2s2-.897,2-2v-7.414l.293-.293c.132-.133,1.36-1.293,3.707-1.293s3.575,1.16,3.707,1.293l.293.293v7.414c0,1.103.897,2,2,2s2-.897,2-2h2c0,1.103.897,2,2,2Zm-10-2v-6.501c-.35-.208-1.014-.499-2-.499s-1.646.289-2,.501v6.499c0,1.103.897,2,2,2s2-.897,2-2Zm6-8c0-4.411-3.589-8-8-8S4,7.589,4,12c0,2.021.759,3.864,2,5.274v-5.274c0-3.309,2.691-6,6-6s6,2.691,6,6v5.274c1.241-1.41,2-3.253,2-5.274Z"/>
</svg>
