<?xml version="1.0" encoding="UTF-8"?>
<svg xmlns="http://www.w3.org/2000/svg" id="Layer_1" data-name="Layer 1" viewBox="0 0 24 24">
  <path d="m19,11.994l3.535-3.458c.944-.944,1.465-2.2,1.465-3.536s-.521-2.592-1.465-3.536c-.945-.944-2.2-1.464-3.535-1.464s-2.59.52-3.535,1.464c-.944.944-1.465,2.2-1.465,3.536s.523,2.596,1.482,3.552l3.518,3.442Zm-2.121-9.115c.566-.567,1.32-.879,2.121-.879s1.555.312,2.121.879c.566.566.879,1.319.879,2.121s-.313,1.555-.871,2.114l-2.129,2.083-2.112-2.067c-.572-.571-.888-1.328-.888-2.129s.312-1.555.879-2.121Zm-2.68,13.383c-2.959-1.282-5.079-3.407-6.453-6.469l3.406-3.406L4.888.122,1.716,3.293c-1.106,1.105-1.716,2.599-1.716,4.208,0,7.248,9.252,16.5,16.5,16.5,1.608,0,3.103-.609,4.207-1.715l3.171-3.171-6.265-6.265-3.414,3.414Zm5.093,4.609c-.727.728-1.718,1.129-2.792,1.129-6.233,0-14.5-8.266-14.5-14.5,0-1.073.401-2.065,1.13-2.793l1.758-1.757,3.437,3.437-2.936,2.936.246.613c1.641,4.086,4.482,6.924,8.446,8.437l.605.231,2.927-2.927,3.437,3.437-1.758,1.758Zm-1.792-15.871c0-.828.672-1.5,1.5-1.5s1.5.672,1.5,1.5-.672,1.5-1.5,1.5-1.5-.672-1.5-1.5Z"/>
</svg>
