<?xml version="1.0" encoding="UTF-8"?>
<svg xmlns="http://www.w3.org/2000/svg" id="Layer_1" data-name="Layer 1" viewBox="0 0 24 24">
  <path d="m11.375,12.208l.582.291.603-.243c1.042-.419,4.44-2.07,4.44-5.723v-3.033c0-1.08-.688-2.033-1.714-2.373L12,.037l-3.287,1.09c-1.024.34-1.713,1.293-1.713,2.373v3.033c0,3.237,3.349,5.162,4.375,5.675Zm-2.375-8.708c0-.216.138-.407.342-.475l2.658-.881,2.657.881c.205.068.343.259.343.475v3.033c0,2.189-2.032,3.353-2.955,3.769-.839-.457-3.045-1.84-3.045-3.769v-3.033Zm8.99,14.5h6.01v2h-5.531l-5.125,4h-2.688l-5.125-4H0v-2h6.219l5.125,4h1.312l3.635-2.837-4.027-3.589-1.604,1.494c-.274.274-.744.432-1.16.432-.461-.037-.938-.275-1.21-.652-.452-.63-.372-1.493.189-2.055l1.287-1.187c.283.166.531.299.715.391h0c.881.441,1.91.482,2.824.114.064-.026.141-.059.219-.092l4.466,3.981Zm-11.755-5H0v-2h5.769c.166-.079.397-.186.664-.299.449.606.96,1.127,1.473,1.572-.514.184-1.671.727-1.671.727Zm17.764-2v2h-6.235s-1.081-.509-1.517-.673c.51-.437,1.005-.962,1.435-1.577.216.094.408.182.548.249h5.77Z"/>
</svg>
