<?xml version="1.0" encoding="UTF-8"?>
<svg xmlns="http://www.w3.org/2000/svg" id="Layer_1" data-name="Layer 1" viewBox="0 0 24 24">
  <path d="m22.922,1.685c-.684-.571-1.58-.806-2.459-.648l-6.179,1.124c-.914.166-1.707.634-2.285,1.289-.578-.655-1.371-1.123-2.285-1.289L3.537,1.037c-.876-.161-1.774.077-2.459.648S0,3.096,0,3.988v16.834l12,2.182,12-2.182V3.988c0-.892-.393-1.731-1.078-2.303Zm-11.922,19.104l-9-1.636V3.988c0-.407.225-.656.359-.768.135-.112.415-.289.82-.216l6.179,1.124c.952.173,1.642,1,1.642,1.968v14.694Zm11-1.636l-9,1.636V6.096c0-.967.69-1.795,1.642-1.968l6.179-1.124c.403-.07.686.104.82.216.134.112.359.36.359.768v15.165ZM5.5,7h2v6h-2v-6Zm0,8h2v2h-2v-2Z"/>
</svg>
