<?xml version="1.0" encoding="UTF-8"?>
<svg xmlns="http://www.w3.org/2000/svg" id="Layer_1" data-name="Layer 1" viewBox="0 0 24 24">
  <path d="M13.429,14.475l-.432,.299v9.285l9.829-2.384-1.832-4.932c.301-.869,.989-3.135,.989-5.713C21.984,3.308,12.392,.194,11.997,.063c-.395,.13-9.972,3.225-9.972,10.967,0,2.577,.688,4.841,.989,5.712l-1.85,4.932,9.833,2.385V14.771l-.431-.298c-1.607-1.11-2.566-2.222-2.566-2.973,0-.953,.547-1.5,1.5-1.5,.25,0,.54,.121,.8,.334l1.7,1.911,1.7-1.911c.258-.21,.554-.334,.8-.334,.953,0,1.5,.547,1.5,1.5,0,.751-.961,1.863-2.571,2.975Zm1.568,1.338c1.993-1.468,3.003-2.918,3.003-4.312,0-2.061-1.439-3.5-3.5-3.5-.75,0-1.516,.306-2.156,.861l-.344,.374-.345-.375c-.64-.555-1.405-.86-2.155-.86-2.061,0-3.5,1.439-3.5,3.5,0,1.395,1.008,2.843,2.997,4.31v5.706l-5.167-1.254,1.322-3.527-.143-.358c-.01-.024-.984-2.513-.984-5.346,0-5.445,6.458-8.264,7.973-8.849,1.516,.585,7.986,3.403,7.986,8.849,0,2.834-.974,5.321-.984,5.346l-.142,.358,1.311,3.526-5.171,1.255v-5.703Z"/>
</svg>
