<?xml version="1.0" encoding="UTF-8"?>
<svg xmlns="http://www.w3.org/2000/svg" id="Layer_1" data-name="Layer 1" viewBox="0 0 24 24">
  <path d="m21,2h-3V0h-2v2h-8V0h-2v2h-3c-1.654,0-3,1.346-3,3v19h6v-2H2v-12h20v4h2V5c0-1.654-1.346-3-3-3ZM2,8v-3c0-.551.449-1,1-1h18c.551,0,1,.449,1,1v3H2Zm12.558,8c-1.231,0-1.757,1.002-1.883,1.581l-1.475,6.418h1.607l.33-1.4h2.829l.325,1.4h1.609l-1.447-6.373c-.146-.668-.663-1.627-1.894-1.627Zm-1.045,5l.726-3.079c.028-.128.128-.321.319-.321s.288.169.334.381l.701,3.019h-2.081Zm-4.213-3.4v6.4h-1.6v-6.4h-1.9v-1.6h5.5v1.6h-2Zm14.7-1.6l-1.994,4,1.994,4h-1.812l-1.088-2.182-1.088,2.182h-1.812l1.994-4-1.994-4h1.812l1.088,2.182,1.088-2.182h1.812Z"/>
</svg>
