<?xml version="1.0" encoding="UTF-8"?>
<svg xmlns="http://www.w3.org/2000/svg" id="Layer_1" data-name="Layer 1" viewBox="0 0 24 24">
  <path d="m22.53,18.011l1.47-4.011h-7.192l2.741-12.791-1.955-.419-2.831,13.209h-1.692V0h-2v14h-1.692L6.549.791l-1.955.419,2.741,12.791H.037l1.431,3.91.045.104c.797,1.59,1.569,2.331,2.587,2.681-.264.356-.524.764-.785,1.285l-.743,2.02h2.118l.437-1.174c.809-1.601,1.242-1.802,2.681-1.827l8.136-.004c1.894.014,2.269.258,3.073,1.839l.435,1.166h2.119l-.696-1.908-.047-.108c-.269-.532-.535-.968-.808-1.328.973-.367,1.733-1.109,2.51-2.644Zm-1.812-.851c-.924,1.813-1.279,1.868-4.024,1.834l-10,.005c-2.01,0-2.442,0-3.368-1.831l-.428-1.168h18.244l-.424,1.161Z"/>
</svg>
