<?xml version="1.0" encoding="UTF-8"?>
<svg xmlns="http://www.w3.org/2000/svg" id="Layer_1" data-name="Layer 1" viewBox="0 0 24 24">
  <path d="M13,11.605l9.493-4.972L13.606,.113c-.544-.199-1.251-.136-1.735,.165-.397,.246-.871,.768-.871,1.858V19h2v-7.395Zm0-9.504l5.737,4.242-5.737,3.004V2.101Zm11,15.899c0,3.42-5.159,6-12,6S0,21.42,0,18c0-2.898,3.709-5.185,9-5.819v2.013c-4.239,.562-7,2.255-7,3.806,0,1.892,4.106,4,10,4s10-2.108,10-4c0-1.551-2.761-3.244-7-3.806v-2.013c5.291,.634,9,2.921,9,5.819Z"/>
</svg>
