<?xml version="1.0" encoding="UTF-8"?>
<svg xmlns="http://www.w3.org/2000/svg" id="Layer_1" data-name="Layer 1" viewBox="0 0 24 24">
  <path d="M0,5.5V0H2V5.5c0,.276,.225,.5,.5,.5h.5V0h2V6h.5c.275,0,.5-.224,.5-.5V0h2V5.5c0,1.378-1.121,2.5-2.5,2.5h-.5v5H3v-5h-.5c-1.379,0-2.5-1.122-2.5-2.5Zm11,4.885c1-1.038,2-2.539,2-4.385,0-2.191-1.409-4.278-2.554-5.698-.462-.573-1.446-.277-1.446,.437V13h2v-2.615Zm13,8.615h-1v.5c0,1.93-1.57,3.5-3.5,3.5s-3.5-1.57-3.5-3.5v-.5h-4v.5c0,1.93-1.57,3.5-3.5,3.5-.98,0-1.864-.407-2.5-1.058-.636,.651-1.52,1.058-2.5,1.058-1.93,0-3.5-1.57-3.5-3.5v-4.5H2v2h14V4c0-.551-.448-1-1-1h-.607c-.254-.653-.584-1.319-1.002-2h1.609c1.654,0,3,1.346,3,3v1h1.559c1.293,0,2.437,.824,2.846,2.051l1.339,4.017c.171,.511,.257,1.043,.257,1.581v6.351Zm-2-2v-4h-4v4h4Zm-2.441-10h-1.559v4h3.612l-1.105-3.316c-.137-.409-.519-.684-.949-.684ZM5,19.5v-.5H2v.5c0,.827,.673,1.5,1.5,1.5s1.5-.673,1.5-1.5Zm5-.5h-3v.5c0,.827,.673,1.5,1.5,1.5s1.5-.673,1.5-1.5v-.5Zm11,0h-3v.5c0,.827,.673,1.5,1.5,1.5s1.5-.673,1.5-1.5v-.5Z"/>
</svg>
