<?xml version="1.0" encoding="UTF-8"?>
<svg xmlns="http://www.w3.org/2000/svg" id="Layer_1" data-name="Layer 1" viewBox="0 0 24 24">
  <path d="M9,12c3.309,0,6-2.691,6-6S12.309,0,9,0,3,2.691,3,6s2.691,6,6,6Zm0-10c2.206,0,4,1.794,4,4s-1.794,4-4,4-4-1.794-4-4,1.794-4,4-4ZM5,14h6v2H5c-1.654,0-3,1.346-3,3v5H0v-5c0-2.757,2.243-5,5-5Zm16.5-3h-6c-1.379,0-2.5,1.122-2.5,2.5v10.5h11V13.5c0-1.378-1.121-2.5-2.5-2.5Zm.5,11h-7V13.5c0-.276,.225-.5,.5-.5h6c.275,0,.5,.224,.5,.5v8.5Zm-6.001-7.003h5v2h-5v-2Zm0,3.003h5v2h-5v-2Z"/>
</svg>
