<?xml version="1.0" encoding="UTF-8"?>
<svg xmlns="http://www.w3.org/2000/svg" id="Layer_1" data-name="Layer 1" viewBox="0 0 24 24">
  <path d="m9,2.5c0-1.381,1.119-2.5,2.5-2.5s2.5,1.119,2.5,2.5-1.119,2.5-2.5,2.5-2.5-1.119-2.5-2.5Zm8,4.91l-1.57,2.149-2.16-2.66c-.618-.58-1.424-.899-2.27-.899-1.654,0-3,1.346-3,3v5.003c0,1.305.725,2.478,1.892,3.061l1.108.554v6.382h2v-6.84c.347-.963.577-2.126.728-3.342l-1.804-2.233c-.093,1.582-.273,2.937-.532,3.993l-.606-.303c-.485-.242-.786-.73-.786-1.272v-5.003c0-.551.448-1,1-1,.315,0,.617.112.856.317l2.974,3.683h1.293l2.492-3.41-1.615-1.18Z"/>
</svg>
