<?xml version="1.0" encoding="UTF-8"?>
<svg xmlns="http://www.w3.org/2000/svg" id="Layer_1" data-name="Layer 1" viewBox="0 0 24 24">
  <path d="m19.5,1.5c0-.828.672-1.5,1.5-1.5s1.5.672,1.5,1.5-.672,1.5-1.5,1.5-1.5-.672-1.5-1.5Zm3,8.5c0-.828-.672-1.5-1.5-1.5s-1.5.672-1.5,1.5.672,1.5,1.5,1.5,1.5-.672,1.5-1.5Zm0,8.5c0-.828-.672-1.5-1.5-1.5s-1.5.672-1.5,1.5.672,1.5,1.5,1.5,1.5-.672,1.5-1.5Zm-.5-14.5h-2c-1.103,0-2,.897-2,2v1h2v-1h2v1h2v-1c0-1.103-.897-2-2-2Zm0,17h-2c-1.103,0-2,.897-2,2v1h2v-1h2v1h2v-1c0-1.103-.897-2-2-2Zm0-8.5h-2c-1.103,0-2,.897-2,2v1h2v-1h2v1h2v-1c0-1.103-.897-2-2-2Zm-6,0c0,1.155-.878,2.099-2,2.225v5.275h-2c0-2.708-2.448-3-3.5-3h-1.119l1.126,2.534c.439.987.349,2.116-.239,3.021-.588.905-1.583,1.445-2.662,1.445h-1.756L0,15.337v-4.337c0-1.654,1.346-3,3-3h5.5c1.052,0,3.5-.292,3.5-3h2v5.275c1.122.126,2,1.07,2,2.225Zm-9.32,7.847l-1.487-3.347h-2.265l2.222,5h.456c.399,0,.768-.2.985-.535s.251-.753.088-1.118Zm5.32-11.312c-.912.622-2.103.965-3.5.965H3c-.551,0-1,.448-1,1l.039,4h6.461c1.397,0,2.588.343,3.5.965v-6.93Z"/>
</svg>
