<?xml version="1.0" encoding="UTF-8"?>
<svg xmlns="http://www.w3.org/2000/svg" id="Layer_1" data-name="Layer 1" viewBox="0 0 24 24">
  <path d="m7,7c0-.552,1.119-1,2.5-1s2.5.448,2.5,1-1.119,1-2.5,1-2.5-.448-2.5-1Zm17,4v12h-14.619c-5.261,0-9.381-2.51-9.381-5.714V6.81h.015C.17,3.538,4.275,1,9.5,1c5.327,0,9.5,2.636,9.5,6v4h5ZM2,7c0,2.168,3.435,4,7.5,4s7.5-1.832,7.5-4-3.435-4-7.5-4-7.5,1.832-7.5,4Zm20,6h-12.5c-3.085,0-5.775-.887-7.5-2.284v6.57c0,1.414,1.966,2.956,5,3.504v-4.791h2v4.989c.127.003.251.011.381.011h2.619v-5h2v5h3v-5h2v5h3v-8Z"/>
</svg>
