<?xml version="1.0" encoding="UTF-8"?>
<svg xmlns="http://www.w3.org/2000/svg" id="Layer_1" data-name="Layer 1" viewBox="0 0 24 24">
  <path d="M15,9c1.654,0,3-1.346,3-3V3c0-1.654-1.346-3-3-3s-3,1.346-3,3v3c0,1.654,1.346,3,3,3Zm-1-6c0-.551,.448-1,1-1s1,.449,1,1v3c0,.551-.448,1-1,1s-1-.449-1-1V3Zm8.647,4.262c.062-.345-.451-.562-.61-.621-.752-.277-1.43-.58-1.43-.58-.6-.382-.864-.969-.777-1.579,.094-.649,.568-1.178,1.239-1.38,1.317-.397,2.407,.499,2.452,.537l.479,.402-.805,.957-.476-.399c-.025-.021-.633-.495-1.29-.299-.293,.088-.351,.282-.362,.361-.008,.059-.013,.206,.13,.302,.016,0,.614,.263,1.272,.506,1.223,.451,1.529,1.336,1.408,2.014-.16,.899-1.019,1.552-2.04,1.552-.826,0-1.603-.333-2.13-.914l-.42-.462,.926-.84,.42,.463c.286,.315,.736,.504,1.204,.504,.448,0,.764-.265,.81-.521Zm-14.647,1.738c1.654,0,3-1.346,3-3,0-.775-.302-1.472-.787-2.002,.253-.401,.412-.865,.412-1.373,0-1.447-1.178-2.625-2.625-2.625s-2.625,1.178-2.625,2.625c0,.508,.16,.972,.412,1.373-.485,.529-.787,1.227-.787,2.002,0,1.654,1.346,3,3,3Zm0-7c.345,0,.625,.28,.625,.625s-.28,.625-.625,.625-.625-.28-.625-.625,.28-.625,.625-.625Zm0,3c.551,0,1,.449,1,1s-.449,1-1,1-1-.449-1-1,.449-1,1-1ZM0,12c0,6.617,5.383,12,12,12s12-5.383,12-12v-1H0v1Zm12,1.976c.729,0,1.36-.394,1.71-.976h2.141c-.456,1.708-2.001,2.976-3.851,2.976s-3.395-1.268-3.851-2.976h2.141c.35,.582,.981,.976,1.71,.976Zm-5.906-.976c.488,2.822,2.947,4.976,5.906,4.976s5.418-2.155,5.906-4.976h4.044c-.503,5.046-4.773,9-9.95,9S2.553,18.046,2.05,13H6.094Z"/>
</svg>
