<?xml version="1.0" encoding="UTF-8"?>
<svg xmlns="http://www.w3.org/2000/svg" id="Layer_1" data-name="Layer 1" viewBox="0 0 24 24">
  <path d="m17,10c-3.86,0-7,3.141-7,7s3.14,7,7,7,7-3.141,7-7-3.14-7-7-7Zm0,12c-2.757,0-5-2.243-5-5s2.243-5,5-5,5,2.243,5,5-2.243,5-5,5Zm-1-9h2v5h-2v-5Zm0,6h2v2h-2v-2Zm-6.895,2.321c.476.867,1.096,1.641,1.819,2.305-.041.017-.092.039-.131.055l-.836.336-.806-.404C7.005,22.541,0,18.53,0,11.964v-5.755c0-1.727,1.102-3.253,2.741-3.797L10,.005l7.259,2.407c1.639.544,2.741,2.07,2.741,3.797v2.314c-.638-.226-1.305-.388-2-.464v-1.85c0-.863-.551-1.627-1.371-1.898l-6.629-2.198-6.629,2.198c-.82.271-1.371,1.035-1.371,1.898v5.755c0,4.709,4.647,7.965,7.105,9.357Z"/>
</svg>
