<?xml version="1.0" encoding="UTF-8"?>
<svg xmlns="http://www.w3.org/2000/svg" id="Layer_1" data-name="Layer 1" viewBox="0 0 24 24">
  <path d="m21,16.142v-7.142C21,4.037,16.962,0,12,0c-3.309,0-6,2.691-6,6s2.691,6,6,6c2.086,0,3.924-1.071,5-2.69v-.31c0-1.117-.381-2.139-1.003-2.972-.015,2.193-1.801,3.972-3.997,3.972s-4-1.794-4-4,1.794-4,4-4c3.86,0,7,3.141,7,7v7.142c-1.72.447-3,1.999-3,3.858v4h8v-4c0-1.859-1.28-3.411-3-3.858Zm1,5.858h-4v-2c0-1.103.897-2,2-2s2,.897,2,2v2Zm-17-5.858v-6.278c-.636-1.147-1-2.463-1-3.864,0-.458.047-.905.122-1.342-.713,1.289-1.122,2.768-1.122,4.342v7.142c-1.72.447-3,1.999-3,3.858v4h8v-4c0-1.859-1.28-3.411-3-3.858Zm1,5.858H2v-2c0-1.103.897-2,2-2s2,.897,2,2v2Z"/>
</svg>
