<?xml version="1.0" encoding="UTF-8"?>
<svg xmlns="http://www.w3.org/2000/svg" id="Layer_1" data-name="Layer 1" viewBox="0 0 24 24">
  <path d="M19.4,18c0,.772-.628,1.4-1.4,1.4s-1.4-.628-1.4-1.4,.628-1.4,1.4-1.4,1.4,.628,1.4,1.4Zm4.6,0c0,3.314-2.686,6-6,6s-6-2.686-6-6,2.686-6,6-6,6,2.686,6,6Zm-3.4-1.469l1.216-1.216-1.132-1.131-1.216,1.216c-.436-.247-.932-.4-1.469-.4s-1.033,.153-1.469,.4l-1.216-1.216-1.132,1.131,1.216,1.216c-.247,.436-.4,.932-.4,1.469s.153,1.033,.4,1.469l-1.216,1.216,1.132,1.131,1.216-1.216c.436,.247,.932,.4,1.469,.4s1.033-.153,1.469-.4l1.216,1.216,1.132-1.131-1.216-1.216c.247-.436,.4-.932,.4-1.469s-.153-1.033-.4-1.469Zm3.4-7.531v1H14V0h1c4.963,0,9,4.038,9,9Zm-2.071-1c-.439-3.061-2.867-5.489-5.929-5.929v5.929h5.929Zm-10.929,14c-4.963,0-9-4.037-9-9,0-4.625,3.506-8.446,8-8.945V14h1.079c.262-.452,.579-.864,.921-1.254V2h-1C4.935,2,0,6.935,0,13s4.935,11,11,11c.538,0,1.063-.052,1.58-.128-.59-.545-1.098-1.176-1.503-1.876-.026,0-.051,.004-.077,.004Z"/>
</svg>
