<?xml version="1.0" encoding="UTF-8"?>
<svg xmlns="http://www.w3.org/2000/svg" id="Layer_1" data-name="Layer 1" viewBox="0 0 24 24">
  <path d="M18.013,2.001c-.919-1.215-2.397-2.001-4.013-2.001-2.757,0-5,2.243-5,5,0,1.364,.553,2.608,1.458,3.515-6.367,2.027-6.458,9.399-6.458,9.485h-1c-1.654,0-3,1.346-3,3s1.346,3,3,3H13v-2H3c-.551,0-1-.448-1-1s.449-1,1-1H21v-2h-1.998l.01-5h3.434c.856,0,1.554-.701,1.554-1.562v-2.25c0-3.529-2.249-7.178-5.987-7.187Zm-1.011,15.999H6c0-.308,.09-7.171,6.776-7.924,.868,1.501,2.43,2.551,4.237,2.838l-.011,5.087Zm4.998-7h-3.985c-1.706,0-3.216-.972-3.757-2.419l-.206-.586c-.237,.005-.562-.049-.562-.049-1.443-.248-2.49-1.487-2.49-2.946,0-1.654,1.346-3,3-3,1.511,0,2.813,1.125,3,2.621v2.379c.878-.439,1.755-1.656,1.956-2.623,0,0,.02-.162,.026-.232,2.07,.616,3.018,3.161,3.018,5.043v1.812Z"/>
</svg>
