<?xml version="1.0" encoding="UTF-8"?>
<svg xmlns="http://www.w3.org/2000/svg" id="Layer_1" data-name="Layer 1" viewBox="0 0 24 24">
  <path d="m23.624,2.219C23.511,2.129,20.812,0,17.499,0,15.082,0,12.997,1.131,11.999,1.779,11.001,1.131,8.916,0,6.499,0,3.187,0,.487,2.129.374,2.219L0,2.52v21.48H1.999v-2h9v2h2v-2h9v2h2V2.52l-.375-.3Zm-1.625,1.296v1.484h-9v-1.486c.741-.495,2.505-1.514,4.5-1.514,1.975,0,3.751,1.019,4.5,1.516Zm-15.5-1.516c1.975,0,3.751,1.019,4.5,1.516v1.484H1.999v-1.487c.745-.497,2.512-1.513,4.5-1.513ZM1.999,20V7h9v5h-2v2h2v6H1.999Zm11,0V7h9v5h-2v2h2v6h-9Z"/>
</svg>
