<?xml version="1.0" encoding="UTF-8"?>
<svg xmlns="http://www.w3.org/2000/svg" id="Layer_1" data-name="Layer 1" viewBox="0 0 24 24">
  <path d="m3,22c-.552,0-1-.449-1-1s.448-1,1-1h8.508c-.404-.65-.735-1.322-.986-2h-4.522V2h12v10.998l2,2V2c0-1.103-.897-2-2-2H3C1.346,0,0,1.346,0,3v18c0,1.654,1.346,3,3,3h12.273c-.805-.578-1.558-1.257-2.235-2H3ZM3,2h1v16h-1c-.352,0-.686.072-1,.184V3c0-.551.448-1,1-1Zm21,19.827l-1.378,1.378c-.539.539-1.249.795-1.957.795-3.634,0-8.665-4.752-8.665-8.665,0-.708.255-1.418.795-1.957l1.378-1.378,2.712,2.712-1.775,1.775c.882,2.195,2.376,3.63,4.403,4.403l1.775-1.775h0s2.712,2.713,2.712,2.713Z"/>
</svg>
