<?xml version="1.0" encoding="UTF-8"?>
<svg xmlns="http://www.w3.org/2000/svg" id="Layer_1" data-name="Layer 1" viewBox="0 0 24 24">
  <path d="M23.018,8.785c-.595-.543-1.372-.812-2.169-.782-.804,.038-1.544,.387-2.085,.981l-3.217,3.534c-.551-.909-1.551-1.519-2.689-1.519h-3.857v-1.642c.713-.185,1.352-.551,1.853-1.062l1.414,.815,.998-1.732-1.425-.821c.094-.339,.16-.689,.16-1.058s-.066-.719-.16-1.058l1.425-.821-.998-1.732-1.414,.815c-.501-.511-1.14-.876-1.853-1.062V0h-2V1.642c-.713,.185-1.352,.551-1.853,1.062l-1.414-.815-.998,1.732,1.425,.821c-.094,.339-.16,.689-.16,1.058s.066,.719,.16,1.058l-1.425,.821,.998,1.732,1.414-.815c.501,.511,1.14,.876,1.853,1.062v1.642H3c-1.654,0-3,1.346-3,3v7c0,1.654,1.346,3,3,3H13.448l9.787-10.984c1.094-1.227,.996-3.124-.218-4.23ZM6,5.5c0-1.103,.897-2,2-2s2,.897,2,2-.897,2-2,2-2-.897-2-2Zm15.742,6.185l-9.19,10.315H3c-.552,0-1-.448-1-1v-7c0-.552,.448-1,1-1H12.857c.63,0,1.143,.513,1.143,1.143,0,.564-.421,1.051-.98,1.13l-5.161,.737,.283,1.98,5.161-.737c1.175-.168,2.129-.988,2.514-2.059l4.426-4.864c.182-.199,.431-.316,.7-.329,.269-.02,.528,.081,.728,.263,.408,.371,.44,1.009,.072,1.421Z"/>
</svg>
