<?xml version="1.0" encoding="UTF-8"?>
<svg xmlns="http://www.w3.org/2000/svg" id="Layer_1" data-name="Layer 1" viewBox="0 0 24 24">
  <path d="m7,5.5c0-.828.672-1.5,1.5-1.5s1.5.672,1.5,1.5-.672,1.5-1.5,1.5-1.5-.672-1.5-1.5Zm17,5.41v9.407c-.161.138-4.385,3.683-12,3.683C4.235,24,.162,18.309,0,18.077c0-3.608,1.673-8.043,3.295-10.814-.188-.555-.295-1.146-.295-1.764C3,2.467,5.467,0,8.5,0s5.5,2.467,5.5,5.5c0,2.849-2.178,5.198-4.956,5.472-.003,1.016-.05,2.084-.212,3.138,1.042-.616,2.3-1.11,3.668-1.11.695,0,1.317.132,1.879.322.4-.506,2.754-3.322,5.621-3.322,2.286,0,3.885.846,4,.91ZM5,5.5c0,1.93,1.57,3.5,3.5,3.5s3.5-1.57,3.5-3.5-1.57-3.5-3.5-3.5-3.5,1.57-3.5,3.5Zm17,6.709c-.408-.101-1.065-.209-2-.209-1.502,0-3.062,1.42-3.805,2.267.802.592,1.258,1.179,1.295,1.228l-1.597,1.204c-.013-.017-1.328-1.699-3.394-1.699-2.194,0-4.349,2.009-4.994,2.783l-1.536-1.28c.812-1.579,1.078-3.843,1.075-5.705-.996-.274-1.878-.82-2.563-1.555-1.246,2.37-2.39,5.445-2.477,8.187.797.986,4.099,4.569,9.995,4.569,5.644,0,8.967-1.932,10-2.643v-7.147Z"/>
</svg>
