<?xml version="1.0" encoding="UTF-8"?>
<svg xmlns="http://www.w3.org/2000/svg" id="Layer_1" data-name="Layer 1" viewBox="0 0 24 24">
  <path d="M11.635,14.999c-.62,0-1.241-.235-1.713-.708l-4.486-4.349,1.393-1.436,4.497,4.359c.174,.174,.439,.174,.607,.01L21.798,3.136l1.404,1.424L13.341,14.296c-.469,.469-1.088,.703-1.706,.703ZM3.08,7.496l-1.794-.906c-.565,1.119-.949,2.313-1.143,3.549l1.989,.31c.163-1.048,.486-2.04,.948-2.954ZM7.388,3.133l-.925-1.78c-1.108,.575-2.117,1.32-2.999,2.214l1.425,1.407c.728-.737,1.572-1.357,2.499-1.84Zm12.085-.512c-.604-.482-1.248-.912-1.935-1.268l-.925,1.78c.502,.262,.973,.57,1.421,.909l1.439-1.421Zm2.06,6.397c.144,.464,.259,.941,.335,1.432l1.989-.31c-.144-.921-.395-1.818-.747-2.679l-1.578,1.558ZM12,2c.567,0,1.12,.058,1.661,.149l.331-1.984c-.656-.109-1.326-.165-1.992-.165s-1.336,.056-1.992,.165l.331,1.984c.541-.091,1.094-.149,1.661-.149ZM.144,13.865c.193,1.237,.578,2.432,1.145,3.55l1.794-.909c-.462-.913-.785-1.905-.949-2.952l-1.989,.311Zm20.775,2.641l1.794,.909c.566-1.118,.951-2.312,1.145-3.55l-1.989-.311c-.164,1.047-.487,2.039-.949,2.952Zm-4.311,4.363l.926,1.781c1.108-.577,2.118-1.321,2.999-2.213l-1.424-1.408c-.729,.737-1.573,1.357-2.501,1.84Zm-4.608,1.13c-.567,0-1.12-.058-1.661-.149l-.331,1.984c.656,.109,1.326,.165,1.992,.165s1.336-.056,1.992-.165l-.331-1.984c-.541,.091-1.094,.149-1.661,.149Zm-8.533-1.562c.881,.892,1.891,1.636,2.999,2.213l.926-1.781c-.928-.483-1.773-1.103-2.501-1.84l-1.424,1.408Z"/>
</svg>
