<?xml version="1.0" encoding="UTF-8"?>
<svg xmlns="http://www.w3.org/2000/svg" id="Layer_1" data-name="Layer 1" viewBox="0 0 24 24">
  <path d="m1.999,18H0v-6C0,10.346,1.345,9,2.999,9h6v2H2.999c-.552,0-1,.449-1,1v6Zm13-7h6c.552,0,1,.449,1,1v6h2v-6c0-1.654-1.346-3-3-3h-6v2Zm7.503,10.316c-.38.435-.928.684-1.503.684-1.103,0-2-.897-2-2h-2c0,1.103-.897,2-2,2s-2-.897-2-2h-2c0,1.103-.897,2-2,2s-2-.897-2-2h-2c0,1.103-.897,2-2,2-.575,0-1.123-.249-1.503-.684L-.01,22.632c.759.87,1.855,1.368,3.009,1.368,1.201,0,2.266-.542,3-1.382.734.84,1.799,1.382,3,1.382s2.266-.542,3-1.382c.734.84,1.799,1.382,3,1.382s2.266-.542,3-1.382c.734.84,1.799,1.382,3,1.382,1.153,0,2.25-.499,3.009-1.368l-1.506-1.315ZM10.999,3.012v14.988h2V2.978l2.801,2.737,1.398-1.431-3.785-3.699c-.779-.78-2.049-.78-2.828,0l-3.75,3.75,1.414,1.414,2.75-2.738Z"/>
</svg>
