<?xml version="1.0" encoding="UTF-8"?>
<svg xmlns="http://www.w3.org/2000/svg" id="Layer_1" data-name="Layer 1" viewBox="0 0 24 24">
  <path d="m12,0C5.383,0,0,5.383,0,12c0,.31.023.615.047.919l1.966-.673c-.002-.083-.012-.164-.012-.247,0-1.422.303-2.774.841-4h3.363c-.324.958-.563,1.974-.653,3.036l2.103-.72c.143-.809.389-1.581.683-2.317h7.334c.495,1.235.829,2.587.829,4s-.332,2.766-.825,4h-1.873l-.684,2h1.571c-.936,1.609-2.01,2.868-2.688,3.586-.054.047-.098.075-.15.116l-.773,2.259c.305.023.611.039.921.039,6.617,0,12-5.383,12-12S18.617,0,12,0Zm7.981,6h-3.017c-.721-1.444-1.584-2.689-2.353-3.642,2.173.589,4.049,1.891,5.369,3.642Zm-15.961,0c1.322-1.754,3.202-3.056,5.378-3.644-.769.956-1.637,2.194-2.36,3.644h-3.018Zm5.299,0c.931-1.601,2.005-2.87,2.681-3.586.677.718,1.757,1.983,2.69,3.586h-5.371Zm5.275,15.647c.772-.958,1.643-2.19,2.371-3.647h3.017c-1.324,1.756-3.207,3.06-5.388,3.647Zm6.566-5.647h-3.359c.422-1.245.7-2.587.7-4s-.278-2.755-.7-4h3.359c.538,1.226.841,2.578.841,4s-.303,2.774-.841,4Zm-7.553-5.606L-.045,15.064l5.145,2.422L.033,22.553l1.414,1.414,5.067-5.067,2.422,5.145,4.671-13.651Zm-6.041,6.041l-2.29-1.077,5.118-1.751-1.751,5.118-1.077-2.29Z"/>
</svg>
