<?xml version="1.0" encoding="UTF-8"?>
<svg xmlns="http://www.w3.org/2000/svg" id="Layer_1" data-name="Layer 1" viewBox="0 0 24 24">
  <path d="M19.4,18c0,.772-.628,1.4-1.4,1.4s-1.4-.628-1.4-1.4,.628-1.4,1.4-1.4,1.4,.628,1.4,1.4Zm4.6,0c0,3.314-2.686,6-6,6s-6-2.686-6-6,2.686-6,6-6,6,2.686,6,6Zm-3.4-1.469l1.216-1.216-1.132-1.131-1.216,1.216c-.436-.247-.932-.4-1.469-.4s-1.033,.153-1.469,.4l-1.216-1.216-1.132,1.131,1.216,1.216c-.247,.436-.4,.932-.4,1.469s.153,1.033,.4,1.469l-1.216,1.216,1.132,1.131,1.216-1.216c.436,.247,.932,.4,1.469,.4s1.033-.153,1.469-.4l1.216,1.216,1.132-1.131-1.216-1.216c.247-.436,.4-.932,.4-1.469s-.153-1.033-.4-1.469ZM22,0h-5V2h3.586l-5.086,5.086L9.5,1.086,.12,10.466l1.414,1.414L9.5,3.914l6,6,6.5-6.5v3.586h2V2c0-1.103-.897-2-2-2ZM0,24H2V14.172l-2,2v7.828Zm5,0h2V9.172l-2,2v12.828Zm7-14.917l-2-2v10.917c0-2.026,.759-3.87,2-5.279v-3.638Zm-2,14.917h2v-.721c-1.241-1.409-2-3.254-2-5.279v6Z"/>
</svg>
