<?xml version="1.0" encoding="UTF-8"?>
<svg xmlns="http://www.w3.org/2000/svg" id="Layer_1" data-name="Layer 1" viewBox="0 0 24 24">
  <path d="m10,11c0,2.947,0,8.434-4.515,11.143l-1.029-1.715c3.544-2.127,3.544-6.697,3.544-9.428,0-1.654,1.346-3,3-3s3,1.346,3,3h-2c0-.552-.448-1-1-1s-1,.448-1,1Zm1.904,2.916c-.316,3.729-1.525,6.615-3.593,8.58l1.377,1.449c2.434-2.312,3.85-5.629,4.208-9.861l-1.992-.168Zm-.904-9.916c-1.984,0-3.885.851-5.213,2.332l1.488,1.336c.95-1.061,2.308-1.668,3.725-1.668,2.757,0,5,2.243,5,5h2c0-3.859-3.141-7-7-7Zm-4.931,6.166l-1.973-.332c-.064.383-.097.774-.097,1.166,0,4.645-1.346,7-4,7v2c3.869,0,6-3.196,6-9,0-.28.023-.562.069-.834Zm-4.069.834C2,6.037,6.037,2,11,2c1.963,0,3.83.624,5.398,1.804l1.203-1.598c-1.918-1.443-4.201-2.206-6.602-2.206C4.935,0,0,4.935,0,11v3h2v-3Zm22,13h-12l6-10.286,6,10.286Zm-5-3h-2v2h2v-2Zm0-1v-3h-2v3h2Zm.964-6.889l1.751,3.002c.283-2.179.285-4.007.285-5.112,0-1.679-.37-3.292-1.101-4.794l-1.799.875c.597,1.227.899,2.546.899,3.919,0,.538,0,1.259-.036,2.111Z"/>
</svg>
