<?xml version="1.0" encoding="UTF-8"?>
<svg xmlns="http://www.w3.org/2000/svg" id="Layer_1" data-name="Layer 1" viewBox="0 0 24 24">
  <path d="m13.25,7.998c-.291,0-.566.058-.829.142-.112-.498-.355-.958-.725-1.33-.52-.522-1.21-.81-1.947-.81-.971,0-1.821.51-2.31,1.273-.363-.173-.759-.273-1.173-.273-1.515,0-2.747,1.231-2.747,2.743l-.015,4.61c-.777-.136-1.587.02-2.237.488-.723.521-1.177,1.323-1.248,2.201-.071.879.246,1.741.886,2.381l2.726,2.599c1.276,1.276,2.972,1.979,4.776,1.979h1.592c3.309,0,6-2.691,6-6v-7.239c.004-.737-.281-1.431-.801-1.953-.52-.523-1.212-.811-1.949-.811Zm.75,10.002c0,2.206-1.794,4-4,4h-1.592c-1.27,0-2.464-.494-3.379-1.409l-2.726-2.599c-.208-.208-.313-.495-.29-.789.024-.297.175-.56.423-.739.38-.273.975-.191,1.356.189l1.7,1.701.027-8.609c0-.411.335-.746.747-.746.2,0,.389.078.53.22.131.131.199.304.209.492l.008,5.288h2l-.01-6.256c0-.41.334-.744.746-.744.2,0,.388.078.528.22.141.142.218.33.217.535l.005,6.246h2v-4.254c0-.413.336-.749.75-.749.201,0,.39.079.532.221.142.143.219.332.218.538v7.244Zm9.99-6.958c.071.879-.246,1.74-.869,2.364l-2.76,2.632h0c-.683.677-1.487,1.187-2.361,1.518v-2.225c.345-.203.674-.434.964-.724.006-.006,2.76-2.632,2.76-2.632.19-.191.296-.479.272-.772-.024-.297-.174-.56-.424-.739-.38-.274-.976-.19-1.355.189l-1.699,1.699-.028-8.604c0-.415-.335-.749-.747-.749-.2,0-.388.078-.53.22-.13.131-.198.303-.209.486l-.007,4.158c-.122-.158-.237-.322-.381-.466-.467-.47-1.02-.815-1.617-1.052l.006-3.602c0-.41-.334-.744-.746-.744-.2,0-.388.078-.528.22-.141.142-.218.33-.217.53v3.063c0,.009-.005.016-.005.024v.036c-.125-.164-.251-.327-.396-.474-.897-.902-2.092-1.398-3.364-1.398-.593,0-1.164.118-1.699.325.087-.569.344-1.099.76-1.517.52-.522,1.212-.81,1.95-.81.29,0,.565.057.828.141.112-.497.356-.958.726-1.33.519-.521,1.21-.809,1.946-.809.971,0,1.821.51,2.31,1.272.363-.172.759-.272,1.173-.272,1.515,0,2.747,1.231,2.747,2.746l.015,4.607c.775-.138,1.586.02,2.237.489.722.52,1.177,1.322,1.248,2.201Z"/>
</svg>
