<?xml version="1.0" encoding="UTF-8"?>
<svg xmlns="http://www.w3.org/2000/svg" id="Layer_1" data-name="Layer 1" viewBox="0 0 24 24">
  <path d="m9.3,17.6v6.4h-1.6v-6.4h-1.9v-1.6h5.5v1.6h-2Zm7.153.027l1.447,6.373h-1.609l-.325-1.4h-2.829l-.33,1.4h-1.607l1.475-6.418c.126-.58.697-1.581,1.883-1.581s1.748.959,1.894,1.627Zm-.859,3.373l-.701-3.019c-.047-.212-.135-.381-.334-.381s-.292.193-.319.321l-.726,3.079h2.081Zm8.406-5h-1.812l-1.088,2.182-1.088-2.182h-1.812l1.994,4-1.994,4h1.812l1.088-2.182,1.088,2.182h1.812l-1.994-4,1.994-4ZM2,3c0-.551.448-1,1-1h16c.552,0,1,.449,1,1v11h2V3c0-1.654-1.346-3-3-3H3C1.346,0,0,1.346,0,3v21h6v-2H2V3Zm16,7H4v-6h14v6Zm-2-4H6v2h10v-2ZM4,14h2v-2h-2v2Zm6,0v-2h-2v2h2Zm4,0v-2h-2v2h2Zm4,0v-2h-2v2h2Z"/>
</svg>
