<?xml version="1.0" encoding="UTF-8"?>
<svg xmlns="http://www.w3.org/2000/svg" id="Layer_1" data-name="Layer 1" viewBox="0 0 24 24">
  <path d="m0,22h4v2H0v-2Zm6,2h4v-2h-4v2Zm14-8H6c-2.206,0-4-1.794-4-4s1.794-4,4-4h3v-2h-3c-3.309,0-6,2.691-6,6s2.691,6,6,6h14c1.103,0,2,.897,2,2s-.897,2-2,2h-8v2h8c2.206,0,4-1.794,4-4s-1.794-4-4-4ZM11.5,6.661l-1.5-4.701c0-1.191.886-1.749,1.384-1.891.492-.139,1.003-.07,1.443.197l11.102,6.732-11.104,6.735c-.292.178-.618.267-.943.267-1.881,0-1.883-1.46-1.881-1.968l1.5-4.694v-.678Zm.626-4.48l1.239,3.75,4.635,1.07-4.635,1.07-1.239,3.749,7.945-4.819-7.945-4.818Z"/>
</svg>
