<?xml version="1.0" encoding="UTF-8"?>
<svg xmlns="http://www.w3.org/2000/svg" id="Layer_1" data-name="Layer 1" viewBox="0 0 24 24">
  <path d="m24,4v.764l-2.75,1.591,1.105,3.357-.625.436-2.717-2.101-2.729,2.11-.601-.453,1.086-3.396-2.769-1.54v-.769h3.625l.981-3.75h.809l.98,3.75h3.605Zm-6.387,8.849l6.266,6.265-3.172,3.171c-1.103,1.106-2.598,1.716-4.207,1.716C9.252,24,0,14.748,0,7.5,0,5.892.61,4.397,1.716,3.292L4.887.122l6.265,6.265-3.406,3.406c1.374,3.062,3.493,5.187,6.453,6.469l3.414-3.413Zm3.437,6.265l-3.437-3.437-2.927,2.927-.605-.23c-3.964-1.514-6.806-4.353-8.447-8.438l-.246-.613,2.936-2.936-3.437-3.437-1.757,1.757c-.729.728-1.129,1.719-1.129,2.793,0,6.233,8.266,14.5,14.5,14.5,1.074,0,2.066-.401,2.792-1.129l1.758-1.758Z"/>
</svg>
