<?xml version="1.0" encoding="UTF-8"?>
<svg xmlns="http://www.w3.org/2000/svg" id="Layer_1" data-name="Layer 1" viewBox="0 0 24 24">
  <path d="m21.288,19.115l2.712,2.712-1.378,1.378c-.539.539-1.249.795-1.957.795-3.634,0-8.665-4.752-8.665-8.665,0-.708.255-1.418.795-1.957l1.378-1.378,2.712,2.712-1.775,1.775c.882,2.195,2.376,3.63,4.403,4.403l1.775-1.775h0Zm2.712-14.114v13.999l-2-2v-6.999H2v12h11.038c.677.743,1.43,1.422,2.235,2H0V5c0-1.654,1.346-3,3-3h3V0h2v2h8V0h2v2h3c1.654,0,3,1.346,3,3Zm-2,3v-3c0-.551-.448-1-1-1H3c-.551,0-1,.449-1,1v3h20Z"/>
</svg>
