<?xml version="1.0" encoding="UTF-8"?>
<svg xmlns="http://www.w3.org/2000/svg" id="Layer_1" data-name="Layer 1" viewBox="0 0 24 24">
  <path d="M13,13h4.163c.434,1.441,1.757,2.5,3.337,2.5,1.93,0,3.5-1.57,3.5-3.5s-1.57-3.5-3.5-3.5c-1.58,0-2.903,1.059-3.337,2.5h-4.163V4.5h4.163c.434,1.441,1.757,2.5,3.337,2.5,1.93,0,3.5-1.57,3.5-3.5s-1.57-3.5-3.5-3.5c-1.58,0-2.903,1.059-3.337,2.5h-6.163V11H6.837c-.434-1.441-1.757-2.5-3.337-2.5-1.93,0-3.5,1.57-3.5,3.5s1.57,3.5,3.5,3.5c1.58,0,2.903-1.059,3.337-2.5h4.163v8.5h6.163c.434,1.441,1.757,2.5,3.337,2.5,1.93,0,3.5-1.57,3.5-3.5s-1.57-3.5-3.5-3.5c-1.58,0-2.903,1.059-3.337,2.5h-4.163v-6.5Zm7.5-2.5c.827,0,1.5,.673,1.5,1.5s-.673,1.5-1.5,1.5-1.5-.673-1.5-1.5,.673-1.5,1.5-1.5Zm0-8.5c.827,0,1.5,.673,1.5,1.5s-.673,1.5-1.5,1.5-1.5-.673-1.5-1.5,.673-1.5,1.5-1.5ZM3.5,13.5c-.827,0-1.5-.673-1.5-1.5s.673-1.5,1.5-1.5,1.5,.673,1.5,1.5-.673,1.5-1.5,1.5Zm17,5.5c.827,0,1.5,.673,1.5,1.5s-.673,1.5-1.5,1.5-1.5-.673-1.5-1.5,.673-1.5,1.5-1.5Z"/>
</svg>
