<?xml version="1.0" encoding="UTF-8"?>
<svg xmlns="http://www.w3.org/2000/svg" id="Layer_1" data-name="Layer 1" viewBox="0 0 24 24">
  <path d="m24,13h-1.551c-.474,4.992-4.457,8.975-9.449,9.449v1.551h-2v-1.551c-4.992-.474-8.975-4.457-9.449-9.449H0v-2h1.552c.391-4.105,3.156-7.521,6.903-8.871l-2.012,3.453c-1.561,1.354-2.627,3.262-2.882,5.418h2.438v2h-2.436c.458,3.888,3.548,6.977,7.436,7.436v-2.436h2v2.436c3.888-.458,6.977-3.548,7.436-7.436h-2.436v-2h2.438c-.253-2.132-1.298-4.022-2.832-5.373l-2.047-3.493c3.74,1.354,6.498,4.767,6.889,8.866h1.552v2ZM12,.052l4.831,8.769c.181.348.224.725.13,1.083-.095.369-.326.681-.649.877-.416.253-.926.267-1.38.04l-2.927-1.085-2.955,1.122c-.193.095-.405.143-.618.143-.136,0-.273-.02-.406-.061-.373-.115-.674-.37-.852-.719-.218-.424-.218-.933.002-1.357L12,.052Zm-2.338,8.433l2.334-.886,2.36.875-2.352-4.268-2.343,4.278Z"/>
</svg>
