<?xml version="1.0" encoding="utf-8"?>
<!-- Generator: Adobe Illustrator 27.2.0, SVG Export Plug-In . SVG Version: 6.00 Build 0)  -->
<svg xmlns="http://www.w3.org/2000/svg" xmlns:xlink="http://www.w3.org/1999/xlink" version="1.1" id="Layer_1" x="0px" y="0px" viewBox="0 0 24 24" style="enable-background:new 0 0 24 24;" xml:space="preserve">
<path d="M15.9,23.9C15.6,23.9,15.3,24,15,24H3c-1.7,0-3-1.3-3-3V2h5.2C5.6,0.8,6.7,0,8,0h2c1.3,0,2.4,0.8,2.8,2H18v8h-2V4h-5V3  c0-0.6-0.4-1-1-1H8C7.4,2,7,2.4,7,3v1H2v17c0,0.6,0.4,1,1,1h11.4C14.7,22.7,15.2,23.4,15.9,23.9L15.9,23.9z M21.7,17.3l-3-0.5  C18.3,16.7,18,16.4,18,16c0-0.6,0.4-1,1-1h2c0.6,0,1,0.4,1,1h2c0-1.7-1.3-3-3-3v-1h-2v1c-1.7,0-3,1.3-3,3c0,1.4,1,2.5,2.3,2.7l3,0.5  c0.4,0.1,0.6,0.4,0.6,0.8c0,0.6-0.4,1-1,1h-2c-0.6,0-1-0.4-1-1h-2c0,1.7,1.3,3,3,3v1h2v-1c1.7,0,3-1.3,3-3  C24,18.6,23,17.5,21.7,17.3z M8.6,6.3L10,7.7l-2.8,2.8C6.9,10.8,6.5,11,6.1,11s-0.8-0.2-1.1-0.5L3.3,8.9l1.4-1.4l1.4,1.4  C6.1,8.8,8.6,6.3,8.6,6.3z M8.6,12.3l1.4,1.4l-2.8,2.8C6.9,16.8,6.5,17,6.1,17s-0.8-0.2-1.1-0.5l-1.6-1.6l1.4-1.4l1.4,1.4  C6.1,14.8,8.6,12.3,8.6,12.3z"/>
</svg>
