<?xml version="1.0" encoding="UTF-8"?>
<svg xmlns="http://www.w3.org/2000/svg" id="Layer_1" data-name="Layer 1" viewBox="0 0 24 24">
  <path d="m12,11c1.381,0,2.5,1.119,2.5,2.5s-1.119,2.5-2.5,2.5-2.5-1.119-2.5-2.5,1.119-2.5,2.5-2.5Zm10.178,1.735l-1.356-1.47-6.213,5.735h-5.218l-6.213-5.735-1.356,1.47,6.178,5.703v5.562h2v-5h4v5h2v-5.562l6.178-5.703Zm-13.496-3.03l.601.453,2.729-2.11,2.717,2.101.625-.436-1.105-3.357,2.75-1.591v-.764h-3.605l-.98-3.75h-.809l-.981,3.75h-3.625v.769l2.769,1.54-1.086,3.396Z"/>
</svg>
