<?xml version="1.0" encoding="UTF-8"?>
<svg xmlns="http://www.w3.org/2000/svg" id="Layer_1" data-name="Layer 1" viewBox="0 0 24 24">
  <path d="M24,2H13V0h-2V2H0v2H4.246L1.141,17.63c-.365,1.55-.009,3.153,.976,4.397,.993,1.253,2.486,1.973,4.096,1.973h11.576c1.602,0,3.09-.72,4.084-1.975,.994-1.255,1.354-2.87,.988-4.422l-3.107-13.603h4.246V2Zm-13,2v3H5.614l.683-3h4.702Zm8.53,8h-6.53v-3h5.845l.685,3Zm-6.53,2h6.987l.685,3h-7.672v-3Zm-2,3H3.336l.683-3h6.98v3Zm0-5H4.475l.683-3h5.841v3Zm-4.787,10c-.995,0-1.917-.443-2.528-1.214-.41-.518-.626-1.141-.661-1.786h7.976v3H6.213Zm11.576,0h-4.789v-3h7.976c-.041,.642-.259,1.264-.67,1.783-.613,.773-1.53,1.217-2.517,1.217Zm.599-15h-5.388v-3h4.703l.685,3Z"/>
</svg>
