<?xml version="1.0" encoding="UTF-8"?>
<svg xmlns="http://www.w3.org/2000/svg" id="Layer_1" data-name="Layer 1" viewBox="0 0 24 24">
  <path d="m9.5,2.5c0-1.381,1.119-2.5,2.5-2.5s2.5,1.119,2.5,2.5-1.119,2.5-2.5,2.5-2.5-1.119-2.5-2.5Zm14.5,18v3.5H0v-4.5c0-1.379,1.122-2.5,2.5-2.5h4c.187,0,.368.024.544.064.179-1.008.957-1.81,1.956-2.013v-7.111L4.257,2.669l1.486-1.338,4.202,4.669h4.109l4.202-4.669,1.486,1.338-4.743,5.27v7.111c1.14.232,2,1.242,2,2.449v.551c.162-.033.329-.051.5-.051h4c1.379,0,2.5,1.121,2.5,2.5Zm-11-12.5h-2v3h2v-3Zm-2,7h2v-2h-2v2Zm-9,7h5v-2.5c0-.275-.224-.5-.5-.5H2.5c-.276,0-.5.225-.5.5v2.5Zm7,0h6v-4.5c0-.275-.225-.5-.5-.5h-5c-.276,0-.5.225-.5.5v4.5Zm13-1.5c0-.275-.225-.5-.5-.5h-4c-.275,0-.5.225-.5.5v1.5h5v-1.5Z"/>
</svg>
