<?xml version="1.0" encoding="UTF-8"?>
<svg xmlns="http://www.w3.org/2000/svg" id="Layer_1" data-name="Layer 1" viewBox="0 0 24 24">
  <path d="m24,17h-1.615c-.809,1.97-2.368,3.595-4.385,4.414v2.586h-6v-2h-2v2h-6v-3.08c-2.449-1.42-4-4.07-4-6.92,0-1.467.402-2.838,1.095-4.019-.717-1.018-1.095-2.343-1.095-3.981h2c0,.917.155,1.667.428,2.281.983-.954,2.205-1.664,3.572-2.018v2.087c-2.327.826-4,3.043-4,5.65,0,2.298,1.346,4.423,3.43,5.414l.57.271v2.314h2v-2h6v2h2v-2.04l.715-.212c2.523-.751,4.285-3.115,4.285-5.748,0-1.661-.542-3.182-1.526-4.283-1.004-1.123-2.364-1.717-3.936-1.717h-3.538v-2h2.139c.443-1.752,1.996-3.106,3.861-3v3.414c1.133.393,2.148,1.056,2.965,1.969.893.999,1.506,2.246,1.811,3.616h1.224v5Zm-5-4.5c0-.828-.672-1.5-1.5-1.5s-1.5.672-1.5,1.5.672,1.5,1.5,1.5,1.5-.672,1.5-1.5Zm-11-4.5h2v-3h3v-2h-3V0h-2v3h-3v2h3v3Z"/>
</svg>
