<?xml version="1.0" encoding="UTF-8"?>
<svg xmlns="http://www.w3.org/2000/svg" id="Layer_1" data-name="Layer 1" viewBox="0 0 24 24">
  <path d="m22.812,7.635L13.908.658c-1.123-.881-2.692-.879-3.815,0L1.188,7.635c-.755.591-1.188,1.479-1.188,2.439v13.926h24v-13.926c0-.96-.433-1.849-1.188-2.439Zm-.812,14.365H2v-11.926c0-.341.153-.655.421-.865L11.326,2.232c.396-.311.952-.311,1.349,0l8.905,6.977c.267.21.42.524.42.865v11.926Zm-9-7h-2v-7h2v7Zm5-1c0,3.309-2.691,6-6,6s-6-2.691-6-6c0-2.215,1.21-4.149,3-5.188v2.57c-.615.703-1,1.612-1,2.618,0,2.206,1.794,4,4,4s4-1.794,4-4c0-1.005-.385-1.914-1-2.618v-2.57c1.79,1.039,3,2.973,3,5.188Z"/>
</svg>
