<?xml version="1.0" encoding="UTF-8"?>
<svg xmlns="http://www.w3.org/2000/svg" id="Layer_1" data-name="Layer 1" viewBox="0 0 24 24">
  <path d="m17.657,6.343l-1.414,1.414c-1.133-1.133-2.64-1.757-4.243-1.757s-3.109.624-4.243,1.757l-1.414-1.414c1.511-1.511,3.52-2.343,5.657-2.343s4.146.832,5.657,2.343Zm-11.313,11.314c1.56,1.56,3.608,2.34,5.657,2.34s4.097-.78,5.657-2.34l-1.414-1.414c-2.34,2.34-6.146,2.34-8.485,0l-1.414,1.414Zm5.657-1.657c-2.206,0-4-1.794-4-4s1.794-4,4-4,4,1.794,4,4-1.794,4-4,4Zm0-2c1.103,0,2-.897,2-2s-.897-2-2-2-2,.897-2,2,.897,2,2,2Zm7.071-9.071l1.414-1.414C15.807-1.164,8.193-1.164,3.515,3.515l1.414,1.414c3.899-3.898,10.243-3.898,14.143,0Zm-14.143,14.143l-1.414,1.414c2.339,2.34,5.413,3.509,8.485,3.509s6.146-1.169,8.485-3.509l-1.414-1.414c-3.899,3.898-10.243,3.898-14.143,0Zm12.071-11.071v2h2v6h2v-6h2v-2h-6ZM3,16h2v-8h-2v8Z"/>
</svg>
