<?xml version="1.0" encoding="UTF-8"?>
<svg xmlns="http://www.w3.org/2000/svg" id="Layer_1" data-name="Layer 1" viewBox="0 0 24 24">
  <path d="m21.406,15.581l2.507,2.507-1.414,1.414-1.499-1.499v2.997c0,1.654-1.346,3-3,3h-6v-2h6c.551,0,1-.449,1-1v-3.006l-1.499,1.508-1.414-1.414,2.506-2.506c.775-.775,2.038-.775,2.812,0ZM4,9c.509,0,1.019-.193,1.406-.581l2.506-2.506-1.414-1.414-1.499,1.508v-3.006c0-.551.449-1,1-1h6V0h-6c-1.654,0-3,1.346-3,3v2.997l-1.499-1.499L.087,5.913l2.507,2.507c.387.387.896.581,1.406.581Zm3,4c0-.718-.845-1.745-1.437-2.689-.26-.415-.867-.415-1.127,0-.591.944-1.437,1.971-1.437,2.689,0,1.105.895,2,2,2s2-.895,2-2Zm1.995,9h1.005v2H0v-2h1.005c.602-.826,1.995-2.956,1.995-5h-1v-2h6v2h-1c0,2.044,1.393,4.174,1.995,5Zm-5.595,0h3.201c-.752-1.264-1.6-3.108-1.6-5,0,1.892-.848,3.736-1.6,5Zm20.6-11v2h-10v-2c1.991,0,3-1.178,3-3.5v-.5h-3v-1.704c0-.938.531-1.794,1.385-2.233.689-.354,1.464-.913,1.98-2.362l.264-.741.782.082c3.581.374,4.569,3.172,4.589,4.767v5.191c0,.551.449,1,1,1Zm-2.829,0c-.111-.313-.171-.649-.171-1v-5.179c-.004-.367-.134-2.112-2.081-2.657-.586,1.205-1.433,2.067-2.619,2.677-.079.041-.145.095-.194.159h2.894v2.5c0,1.417-.316,2.6-.907,3.5h3.079Z"/>
</svg>
