<?xml version="1.0" encoding="UTF-8"?>
<svg xmlns="http://www.w3.org/2000/svg" id="Layer_1" data-name="Layer 1" viewBox="0 0 24 24">
  <path d="M15.829,2c-.413-1.164-1.525-2-2.829-2h-2c-1.304,0-2.416,.836-2.829,2H3V21c0,1.654,1.346,3,3,3h12c1.654,0,3-1.346,3-3V2h-5.171Zm3.171,19c0,.551-.449,1-1,1H6c-.551,0-1-.449-1-1V4h5v-1c0-.551,.449-1,1-1h2c.551,0,1,.449,1,1v1h5V21Zm-8-4h2v2.013h-2v-2.013Zm1.917-9.911c1.19,.308,2.158,1.276,2.465,2.467,.429,1.66-.376,3.381-1.913,4.092-.281,.13-.47,.472-.47,.852v.5h-2v-.5c0-1.162,.64-2.208,1.629-2.666,.548-.254,1.038-.919,.816-1.778-.126-.49-.54-.904-1.03-1.03-.483-.127-.956-.034-1.333,.258-.371,.287-.583,.72-.583,1.188h-2c0-1.091,.495-2.1,1.358-2.769,.863-.67,1.978-.894,3.059-.614Z"/>
</svg>
