<?xml version="1.0" encoding="UTF-8"?>
<svg xmlns="http://www.w3.org/2000/svg" id="Layer_1" data-name="Layer 1" viewBox="0 0 24 24">
  <path d="m6,6.054v2.946c0,3.309,2.691,6,6,6s6-2.691,6-6v-2.979c1.219-.563,1.962-1.386,1.962-2.521,0-2.5-3.582-3.5-8-3.5S3.962,1,3.962,3.5c0,1.158.775,1.99,2.038,2.554Zm10,2.946c0,2.206-1.794,4-4,4s-4-1.794-4-4v-1.391c.978.208,2.296.391,4,.391s3.022-.183,4-.391v1.391Zm-6.5-6h1.812l.491-1.875h.404l.49,1.875h1.802v.382l-1.375.796.552,1.679-.312.218-1.359-1.051-1.364,1.055-.301-.226.543-1.698-1.384-.77v-.384Zm6.035,15l-2.667,4h6.132v-2h2v4H3v-4h2v2h6.132l-2.667-4H3v-2h6.535l2.465,3.697,2.465-3.697h6.535v2h-5.465Z"/>
</svg>
