<?xml version="1.0" encoding="UTF-8"?>
<svg xmlns="http://www.w3.org/2000/svg" id="Layer_1" data-name="Layer 1" viewBox="0 0 24 24">
  <path d="M17.079,10.181v.002c.016-.022-.014,.02,0-.002Zm-9.009,1.354l-2.111,3.469c-1.085,.023-1.959,.905-1.959,1.996,0,1.105,.895,2,2,2s2-.895,2-2c0-.376-.11-.724-.291-1.025l3.066-5.038-.854-.52c-1.033-.628-1.72-1.677-1.884-2.877-.167-1.217,.216-2.395,1.077-3.316,1.079-1.152,2.863-1.544,4.338-.953,1.222,.489,2.106,1.49,2.425,2.745,0,0,0,0,0,0,.159,.626,.146,1.275-.003,1.89l1.205,2.276c.845-1.388,1.136-3.083,.736-4.658h0c-.478-1.882-1.797-3.38-3.62-4.11-2.261-.906-4.888-.325-6.542,1.443-1.262,1.349-1.845,3.155-1.598,4.954,.2,1.463,.919,2.777,2.015,3.724Zm4.74,8.465h.002c-.014-.023,.01,.023-.002,0Zm5.191-1c1.105,0,2-.895,2-2s-.895-2-2-2c-.738,0-1.376,.405-1.723,1h-6.277v1c0,1.209-.539,2.341-1.479,3.105-.954,.775-2.16,1.058-3.393,.803-1.545-.322-2.808-1.642-3.07-3.21-.217-1.298,.178-2.573,1.085-3.498h0s0,0,0,0c.456-.465,1.021-.793,1.629-.985l1.325-2.208c-1.625,0-3.245,.633-4.382,1.793h0s0,0,0,0C.356,14.187-.238,16.092,.086,18.028c.401,2.4,2.264,4.345,4.634,4.838,.424,.088,.85,.132,1.271,.132,1.378,0,2.713-.464,3.792-1.341,1.146-.932,1.895-2.229,2.134-3.657h4.36c.346,.595,.984,1,1.723,1Zm5.695-3.903c-.602-1.747-1.925-3.106-3.63-3.73-1.388-.509-2.885-.488-4.234,.038l-2.07-3.475c.148-.279,.239-.592,.239-.93,0-1.105-.895-2-2-2s-2,.895-2,2,.895,2,2,2c.023,0,.044-.006,.067-.007l3.027,5.081,.859-.511c1.039-.62,2.287-.735,3.425-.319,1.154,.422,2.016,1.312,2.427,2.504,.514,1.492,.025,3.252-1.188,4.28-1.004,.852-2.301,1.164-3.56,.859,0,0-.001,0-.002,0-.628-.153-1.195-.467-1.669-.887h-2.575c.832,1.396,2.193,2.447,3.772,2.83h0c.476,.116,.955,.173,1.43,.173,1.408,0,2.776-.5,3.896-1.448,1.856-1.573,2.574-4.168,1.785-6.458Z"/>
</svg>
