<?xml version="1.0" encoding="UTF-8"?>
<svg xmlns="http://www.w3.org/2000/svg" id="Layer_1" data-name="Layer 1" viewBox="0 0 24 24">
  <path d="m12,24h12l-6-10.286-6,10.286Zm7-1h-2v-2h2v2Zm0-3h-2v-3h2v3Zm5-14v14.03l-2-3.429V6c0-.294-.129-.572-.353-.763-.229-.192-.521-.272-.822-.223-.463.075-.825.555-.825,1.093v4.893h-2v-7c0-.552-.448-1-1-1s-1,.448-1,1v7h-2V3c0-.552-.448-1-1-1s-1,.448-1,1v8h-2v-5.893c0-.538-.362-1.018-.825-1.093-.303-.051-.595.029-.822.223-.224.19-.353.469-.353.763v12.712l-4.261-3.392c-.254-.234-.5-.315-.774-.319-.266.009-.513.121-.694.315-.378.403-.356,1.038.046,1.416l6.501,6.268h2.034l-1.167,2h-1.673L.938,17.182c-1.196-1.121-1.259-3.023-.129-4.231,1.128-1.205,3.027-1.271,4.235-.143l.955.759V5c0-.882.386-1.715,1.058-2.286.672-.572,1.56-.815,2.439-.674.216.035.42.102.617.184.344-1.277,1.501-2.224,2.885-2.224,1.065,0,1.997.562,2.529,1.401.437-.248.934-.401,1.471-.401,1.384,0,2.541.947,2.886,2.224.197-.082.401-.149.617-.184.88-.142,1.768.102,2.439.674.672.571,1.058,1.404,1.058,2.286Z"/>
</svg>
