<?xml version="1.0" encoding="UTF-8"?>
<svg xmlns="http://www.w3.org/2000/svg" id="Layer_1" data-name="Layer 1" viewBox="0 0 24 24">
  <path d="M22,9v-1c0-1.858-1.28-3.411-3-3.858V0h-6V2.812c1.223,.71,2.17,1.838,2.65,3.188h2.35c1.103,0,2,.897,2,2v1h-6v-1c0-1.858-1.28-3.411-3-3.858V0H5V4.142c-1.72,.447-3,2-3,3.858v1H-.033l1.916,12.456c.227,1.474,1.474,2.544,2.965,2.544h14.303c1.491,0,2.738-1.07,2.965-2.544l1.916-12.456h-2.033Zm-5-5h-2V2h2v2ZM9,2v2h-2V2h2Zm-5,6c0-1.103,.897-2,2-2h4c1.103,0,2,.897,2,2v1H4v-1Zm16.14,13.151c-.076,.492-.492,.849-.989,.849H4.849c-.497,0-.913-.356-.989-.849l-1.562-10.151H21.702l-1.562,10.151Zm-7.14-1.151h-2v-7h2v7Zm5,0h-2v-7h2v7Zm-10,0h-2v-7h2v7Z"/>
</svg>
