<?xml version="1.0" encoding="UTF-8"?>
<svg xmlns="http://www.w3.org/2000/svg" id="Layer_1" data-name="Layer 1" viewBox="0 0 24 24">
  <path d="m21.721,0h-2.047l2.209,12h-5.883v2c0,1.103-.897,2-2,2h-4c-1.103,0-2-.897-2-2v-2H2.118L4.338,0h-2.051L0,12.227l.005,8.766c-.002.802.309,1.558.876,2.126s1.321.881,2.124.881h17.995c1.654,0,3-1.346,3-3v-8.5L21.721,0Zm.279,21c0,.551-.449,1-1,1H3.005c-.268,0-.519-.104-.708-.294s-.292-.441-.292-.711l-.004-6.995h3.999c0,2.206,1.794,4,4,4h4c2.206,0,4-1.794,4-4h4v7Zm-3.991-19H6.002l.37-2h11.269l.368,2Zm1.472,8H4.522l.37-2h14.221l.368,2Zm-.736-4H5.262l.37-2h12.745l.368,2Z"/>
</svg>
