<?xml version="1.0" encoding="UTF-8"?>
<svg xmlns="http://www.w3.org/2000/svg" id="Layer_1" data-name="Layer 1" viewBox="0 0 24 24">
  <path d="m15,15h1.001v2h-1.001c-1.358,0-2.612-.68-3.354-1.819l1.676-1.092c.372.571.999.911,1.678.911Zm-1.38-3.448h0c.206-.196.88-.552,1.38-.552h.124l-1.05-1.027c-.211-.211-.4-.434-.578-.663-.464.189-.891.447-1.256.795h0c-.649.62-1.075,1.448-1.2,2.333l1.98.278c.062-.441.275-.854.6-1.164Zm5.38-5.052c.828,0,1.5-.672,1.5-1.5s-.672-1.5-1.5-1.5-1.5.672-1.5,1.5.672,1.5,1.5,1.5Zm-3.528,2.043c-1.957-1.958-1.957-5.129-.008-7.079.945-.944,2.201-1.464,3.536-1.464s2.591.52,3.536,1.464h0c1.949,1.95,1.949,5.122,0,7.072l-3.536,3.458-3.528-3.45Zm1.406-1.422l2.122,2.075,2.129-2.083c1.162-1.162,1.162-3.065-.008-4.235-.567-.566-1.32-.878-2.122-.878s-1.555.312-2.122.879c-1.169,1.169-1.169,3.073,0,4.243Zm-1.878,16.878h4v-2h-4v2ZM5,15.5c-.828,0-1.5.672-1.5,1.5s.672,1.5,1.5,1.5,1.5-.672,1.5-1.5-.672-1.5-1.5-1.5Zm18.011,1.185c-.859-1.071-2.138-1.685-3.509-1.685h-1.502v2h1.501c.761,0,1.472.341,1.95.937l1.56-1.252Zm.979,2.506l-1.995.134c.004.058.006.116.006.175,0,.978-.575,1.871-1.465,2.276l.829,1.82c1.601-.73,2.636-2.338,2.636-4.097,0-.104-.004-.207-.011-.309Zm-16.136,4.809h5.146v-2h-3.102l-2.045,2Zm.682-3.464l-3.535,3.458-3.528-3.45c-1.957-1.958-1.957-5.129-.008-7.079.945-.944,2.201-1.464,3.536-1.464s2.591.52,3.535,1.464c1.95,1.95,1.95,5.122,0,7.071Zm-1.414-5.657c-.566-.566-1.32-.878-2.121-.878s-1.555.312-2.122.879c-1.169,1.169-1.169,3.073,0,4.243l2.122,2.074,2.129-2.082c1.162-1.162,1.162-3.065-.008-4.235Z"/>
</svg>
