<?xml version="1.0" encoding="UTF-8"?>
<svg xmlns="http://www.w3.org/2000/svg" id="Layer_1" data-name="Layer 1" viewBox="0 0 24 24">
  <path d="M18,16c0,.378,.271,.698,.644,.76l3.042,.507c1.341,.223,2.315,1.373,2.315,2.733,0,1.654-1.346,3-3,3v1h-2v-1c-1.654,0-3-1.346-3-3h2c0,.551,.449,1,1,1h2c.551,0,1-.449,1-1,0-.378-.271-.698-.644-.76l-3.042-.507c-1.341-.223-2.315-1.373-2.315-2.733,0-1.654,1.346-3,3-3v-1h2v1c1.654,0,3,1.346,3,3h-2c0-.551-.449-1-1-1h-2c-.551,0-1,.449-1,1Zm-3.576-2c.352-.801,.913-1.483,1.607-2h-4.031V2h-1C4.935,2,0,6.935,0,13s4.935,11,11,11c1.476,0,2.882-.297,4.169-.826-.428-.516-.751-1.114-.945-1.774-1.002,.386-2.088,.6-3.224,.6-4.962,0-9-4.038-9-9,0-4.625,3.506-8.446,8-8.945V14h4.424Zm9.576-5v1H14V0h1c4.962,0,9,4.038,9,9Zm-2.071-1c-.44-3.061-2.868-5.489-5.929-5.929v5.929h5.929Z"/>
</svg>
