<?xml version="1.0" encoding="UTF-8"?>
<svg xmlns="http://www.w3.org/2000/svg" id="Layer_1" data-name="Layer 1" viewBox="0 0 24 24">
  <path d="m22.812,7.635l-.812-.637V2h-2v3.432L13.908.659c-1.124-.881-2.693-.881-3.815,0L1.188,7.635c-.755.591-1.188,1.48-1.188,2.439v13.926h24v-13.926c0-.959-.433-1.849-1.188-2.439Zm-.812,14.365H2v-11.926c0-.34.153-.655.421-.865L11.326,2.233c.397-.312.951-.311,1.349,0l8.905,6.977c.267.209.42.524.42.864v11.926Zm-5-4.5c0,.828-.672,1.5-1.5,1.5s-1.5-.672-1.5-1.5.672-1.5,1.5-1.5,1.5.672,1.5,1.5Zm-8.5-4.5c-.828,0-1.5-.672-1.5-1.5s.672-1.5,1.5-1.5,1.5.672,1.5,1.5-.672,1.5-1.5,1.5Zm7.654-3l-5.833,9h-2.474l5.833-9h2.474Z"/>
</svg>
