<?xml version="1.0" encoding="UTF-8"?>
<svg xmlns="http://www.w3.org/2000/svg" id="Layer_1" data-name="Layer 1" viewBox="0 0 24 24">
  <path d="m24,12.5c0,3.343-2.199,6.179-5.225,7.145l-1.044-1.789c2.441-.561,4.269-2.748,4.269-5.356,0-2.688-1.919-4.966-4.563-5.419l-.587-.101-.191-.564c-.894-2.641-3.369-4.415-6.159-4.415-3.584,0-6.5,2.916-6.5,6.5,0,.612.085,1.219.253,1.802l.219.759-.688.388c-1.1.621-1.783,1.79-1.783,3.05,0,1.93,1.346,3.5,3,3.5h1.185l-1.167,2h-.018c-2.757,0-5-2.468-5-5.5,0-1.722.811-3.334,2.157-4.367-.104-.536-.157-1.083-.157-1.633C2,3.813,5.813,0,10.5,0c3.453,0,6.537,2.079,7.848,5.23,3.308.833,5.652,3.803,5.652,7.27Zm-12-.5l7,12H5l7-12Zm1,9h-2v2h2v-2Zm0-5h-2v4h2v-4Z"/>
</svg>
