<?xml version="1.0" encoding="UTF-8"?>
<svg xmlns="http://www.w3.org/2000/svg" id="Layer_1" data-name="Layer 1" viewBox="0 0 24 24">
  <path d="m10.071,19c.089.698.261,1.37.516,2H3v-7.587c.63.255,1.302.428,2,.516v5.071h5.071Zm8.929-14v5.071c.698.089,1.37.261,2,.516V3h-7.587c.255.63.428,1.302.516,2h5.071Zm-13,7c-3.309,0-6-2.691-6-6S2.691,0,6,0s6,2.691,6,6-2.691,6-6,6ZM2,6c0,1.005.385,1.914,1,2.618v-.118c0-.828.672-1.5,1.5-1.5h3c.828,0,1.5.672,1.5,1.5v.118c.615-.703,1-1.612,1-2.618,0-2.206-1.794-4-4-4S2,3.794,2,6Zm4,0c.828,0,1.5-.672,1.5-1.5s-.672-1.5-1.5-1.5-1.5.672-1.5,1.5.672,1.5,1.5,1.5Zm18,12c0,3.309-2.691,6-6,6s-6-2.691-6-6,2.691-6,6-6,6,2.691,6,6Zm-2,0c0-2.206-1.794-4-4-4s-4,1.794-4,4c0,1.005.385,1.914,1,2.618v-.118c0-.828.672-1.5,1.5-1.5h3c.828,0,1.5.672,1.5,1.5v.118c.615-.703,1-1.612,1-2.618Zm-4-3c-.828,0-1.5.672-1.5,1.5s.672,1.5,1.5,1.5,1.5-.672,1.5-1.5-.672-1.5-1.5-1.5Z"/>
</svg>
