<?xml version="1.0" encoding="UTF-8"?>
<svg xmlns="http://www.w3.org/2000/svg" id="Layer_1" data-name="Layer 1" viewBox="0 0 24 24">
  <path d="m2.949,5.688l2.051,2.766-1.605,1.191L.135,5.251l.802-.596C4.153,2.264,7.979,1,12,1s7.847,1.264,11.063,3.655l.805.598-3.283,4.396-1.602-1.197,2.064-2.765c-2.412-1.579-5.161-2.48-8.048-2.651v3.964h-2v-3.964c-2.888.171-5.638,1.073-8.051,2.653Zm16.501,5.487l-4.658,6.237c.438.585.707,1.302.707,2.087,0,1.93-1.57,3.5-3.5,3.5s-3.5-1.57-3.5-3.5,1.57-3.5,3.5-3.5c.418,0,.814.086,1.187.221l4.662-6.243,1.602,1.197Zm-5.95,8.324c0-.827-.673-1.5-1.5-1.5s-1.5.673-1.5,1.5.673,1.5,1.5,1.5,1.5-.673,1.5-1.5ZM0,23h4v-2h-2v-1h2v-2h-2v-1h2v-2H0v8Zm24-6v-2h-4v8h2v-3h2v-2h-2v-1h2Z"/>
</svg>
