<?xml version="1.0" encoding="UTF-8"?>
<svg xmlns="http://www.w3.org/2000/svg" id="Layer_1" data-name="Layer 1" viewBox="0 0 24 24">
  <path d="M14,12c0,1.105-.895,2-2,2s-2-.895-2-2,.895-2,2-2,2,.895,2,2ZM2.998,8l.005,2,5.009-.011c1.097,0,1.989-.892,1.989-1.989V3h-2l.006,3.592L1.462,.048,.048,1.462,6.578,7.992l-3.58,.008Zm13.002,2h5v-2l-3.593,.007L23.952,1.462,22.538,.048l-6.53,6.53-.008-3.58-2,.005,.012,5.009c0,1.096,.892,1.988,1.988,1.988Zm-7.986,4.012l-5.011-.012-.005,2h3.588L.048,22.538l1.414,1.414,6.538-6.538v3.586h2v-5c0-1.097-.892-1.988-1.986-1.988Zm12.986,1.988v-2h-5c-1.096,0-1.988,.892-1.988,1.986l-.012,5.012,2,.004v-3.588l6.538,6.538,1.414-1.414-6.538-6.538h3.586Z"/>
</svg>
