<?xml version="1.0" encoding="UTF-8"?>
<svg xmlns="http://www.w3.org/2000/svg" id="Layer_1" data-name="Layer 1" viewBox="0 0 24 24">
  <path d="m19.945,2.597L12-.038l-7.945,2.635c-1.229.407-2.055,1.549-2.055,2.842v6.525c0,6.562,7.005,10.576,9.153,11.65l.805.402.835-.336c2.16-.869,9.207-4.281,9.207-11.716v-6.525c0-1.293-.825-2.435-2.055-2.842Zm.055,9.367c0,6.181-6.088,9.11-7.953,9.861-1.888-.944-8.047-4.445-8.047-9.861v-6.525c0-.429.274-.808.684-.943l7.316-2.426,7.316,2.425c.409.136.684.515.684.944v6.525Zm-4.004-2.464c-.387,0-.946-.253-1.268-.738-.731-1.104-2.035-1.762-3.486-1.762h-.242v-2.5c-1.381,0-2.501,1.12-2.501,2.501v.764s-2.007,4.012-2.007,4.012v.385c0,2.501,2.116,4.624,3.89,5.963l1.177.888,1.101-4.011h1.839c1.93,0,3.5-1.57,3.5-3.504l-.008-1.996h-1.996Zm-1.496,3.5h-3.364l-.703,2.559c-1.227-1.157-1.903-2.304-1.939-3.313l1.624-3.246h1.125c.768,0,1.465.333,1.819.867.656.992,1.809,1.633,2.935,1.633h.004c0,.827-.673,1.5-1.5,1.5Z"/>
</svg>
