<?xml version="1.0" encoding="UTF-8"?>
<svg xmlns="http://www.w3.org/2000/svg" id="Layer_1" data-name="Layer 1" viewBox="0 0 24 24">
  <path d="m15.5,4l-6,7,2.06-6h-4.121l2.06,6L3.5,4,6.5,0h2.126l-1.126,3h4l-1.126-3h2.126l3,4Zm7.735,9.016l-9.787,10.984H3c-1.654,0-3-1.346-3-3v-7c0-1.654,1.346-3,3-3h9.857c1.139,0,2.139.609,2.689,1.519l3.217-3.534c.54-.595,1.281-.944,2.085-.981.812-.039,1.574.24,2.169.782,1.214,1.107,1.312,3.005.218,4.23Zm-1.565-2.752c-.199-.181-.456-.271-.728-.262-.27.013-.519.129-.699.329l-4.427,4.864c-.385,1.07-1.339,1.891-2.514,2.059l-5.161.737-.283-1.98,5.161-.737c.56-.079.98-.565.98-1.13,0-.63-.513-1.143-1.143-1.143H3c-.552,0-1,.448-1,1v7c0,.552.448,1,1,1h9.552l9.19-10.316c.368-.412.335-1.049-.072-1.421Z"/>
</svg>
