<?xml version="1.0" encoding="UTF-8"?>
<svg xmlns="http://www.w3.org/2000/svg" id="Layer_1" data-name="Layer 1" viewBox="0 0 24 24">
  <path d="M23,11C23,4.935,18.065,0,12,0S1,4.935,1,11c0,4.162,1.591,8.74,2.492,11h-1.492v2H10v-1.5l-.033-.254c-.02-.075-1.967-7.532-1.967-11.246,0-2.206,1.794-4,4-4s4,1.794,4,4c0,3.714-1.948,11.171-1.967,11.246l-.033,1.754h8v-2h-1.492c.901-2.26,2.492-6.838,2.492-11Zm-5.955-3.235l2.444-1.746c.953,1.428,1.511,3.14,1.511,4.982h-3c0-1.192-.353-2.301-.955-3.235Zm-12.534-1.746l2.444,1.746c-.602,.935-.955,2.044-.955,3.236H3c0-1.841,.558-3.554,1.511-4.982Zm1.145,15.982c-.597-1.417-2.09-5.239-2.531-9h2.997c.339,3.233,1.304,7.327,1.721,9h-2.186Zm2.657-15.723l-2.506-1.79c1.388-1.32,3.19-2.205,5.193-2.428v3.031c-1.002,.169-1.919,.585-2.688,1.186Zm4.688-1.186V2.059c2.003,.223,3.806,1.108,5.194,2.428l-2.506,1.79c-.769-.601-1.686-1.017-2.688-1.187Zm4.879,7.91h2.997c-.441,3.761-1.934,7.583-2.531,9h-2.186c.416-1.673,1.382-5.767,1.721-9Z"/>
</svg>
