<?xml version="1.0" encoding="UTF-8"?>
<svg xmlns="http://www.w3.org/2000/svg" id="Layer_1" data-name="Layer 1" viewBox="0 0 24 24">
  <path d="m23.955,19.609l-3.388,3.695c-.394.438-.967.695-1.567.695s-1.174-.257-1.575-.704l-3.416-3.727,1.475-1.352,2.517,2.707v-12.424c0-1.379-1.121-2.5-2.5-2.5s-2.5,1.121-2.5,2.5v7c0,2.481-2.019,4.5-4.5,4.5s-4.5-2.019-4.5-4.5V3.036l-2.48,2.706L.045,4.391,3.433.695c.787-.877,2.34-.886,3.143.009l3.416,3.727-1.475,1.352-2.517-2.707v12.424c0,1.379,1.121,2.5,2.5,2.5s2.5-1.121,2.5-2.5v-7c0-2.481,2.019-4.5,4.5-4.5s4.5,2.019,4.5,4.5v12.464l2.48-2.706,1.475,1.352Z"/>
</svg>
