<?xml version="1.0" encoding="UTF-8"?>
<svg xmlns="http://www.w3.org/2000/svg" id="Layer_1" data-name="Layer 1" viewBox="0 0 24 24">
  <path d="M23.624,2.74c-.603-.793-1.756-.978-2.569-.359L9.044,12.752l5.32,.564-2.53,4.987,5.449,2.726,2.655-5.165,4.062,3.712V3.855c0-.399-.133-.795-.376-1.115Zm-1.624,12.299l-2.644-2.415-2.948,5.731-1.881-.94,2.933-5.78-3.617-.385,8.157-7.046V15.039ZM3,20.5c0,.828-.672,1.5-1.5,1.5s-1.5-.672-1.5-1.5,.672-1.5,1.5-1.5,1.5,.672,1.5,1.5Zm4,0c0,.828-.672,1.5-1.5,1.5s-1.5-.672-1.5-1.5,.672-1.5,1.5-1.5,1.5,.672,1.5,1.5Zm4,0c0,.828-.672,1.5-1.5,1.5s-1.5-.672-1.5-1.5,.672-1.5,1.5-1.5,1.5,.672,1.5,1.5Z"/>
</svg>
