<?xml version="1.0" encoding="UTF-8"?>
<svg xmlns="http://www.w3.org/2000/svg" id="Layer_1" data-name="Layer 1" viewBox="0 0 24 24">
  <path d="m21,5h-2.435c.201-.358.342-.75.401-1.169.127-.888-.1-1.771-.637-2.488-.538-.718-1.323-1.183-2.211-1.31-.885-.125-1.771.1-2.488.637-.696.522-1.226,1.196-1.63,1.882-.404-.685-.934-1.36-1.63-1.881C9.653.133,8.769-.091,7.882.034c-.888.127-1.673.592-2.21,1.309-.538.717-.765,1.601-.638,2.488.06.419.2.813.399,1.169h-2.433c-1.654,0-3,1.346-3,3v5h2v11h9.34l.681-2H4v-9h10.998l.589-2H2v-3c0-.551.448-1,1-1h18c.552,0,1,.449,1,1v3h-1.56l.588,2h2.972v-5c0-1.654-1.346-3-3-3Zm-6.171-2.729c.289-.217.648-.31,1.006-.257.358.051.676.239.894.529.218.29.309.647.258,1.005-.051.359-.239.676-.561.918-.037.029-.37.278-1.018.533h-2.308c.222-.757.75-1.994,1.73-2.729Zm-7.287,2.171c-.289-.218-.478-.535-.528-.894-.051-.358.04-.715.259-1.006.217-.29.534-.478.893-.529.354-.052.716.04,1.006.258.98.735,1.507,1.971,1.73,2.729h-2.308c-.648-.255-.984-.506-1.05-.558Zm12.132,11.558h4.326v.917l-3.3,1.909,1.326,4.029-.75.523-3.261-2.521-3.275,2.532-.721-.543,1.304-4.076-3.323-1.848v-.922h4.35l1.178-4.5h.97l1.176,4.5Z"/>
</svg>
