<?xml version="1.0" encoding="UTF-8"?>
<svg xmlns="http://www.w3.org/2000/svg" id="Layer_1" data-name="Layer 1" viewBox="0 0 24 24">
  <path d="M18.8,17.2h-1.95v-1.4h1.95c.386,0,.7,.314,.7,.7s-.314,.7-.7,.7Zm.5,1.6h-2.45v1.4h2.45c.386,0,.7-.314,.7-.7s-.314-.7-.7-.7Zm4.7-.8c0,3.314-2.686,6-6,6s-6-2.686-6-6,2.686-6,6-6,6,2.686,6,6Zm-2.4,1.5c0-.719-.331-1.361-.849-1.783,.221-.354,.349-.771,.349-1.217,0-1.269-1.032-2.3-2.3-2.3v-1.2h-1.6v1.2h-1.95v7.6h1.95v1.2h1.6v-1.2h.5c1.268,0,2.3-1.031,2.3-2.3Zm2.4-14.5v7.721c-.572-.65-1.246-1.205-2-1.642v-1.079H2v12H11.079c.437,.754,.992,1.428,1.642,2H0V5c0-1.654,1.346-3,3-3h3V0h2V2h8V0h2V2h3c1.654,0,3,1.346,3,3ZM2,8H22v-3c0-.551-.449-1-.885-1H3.115c-.667,0-1.115,.449-1.115,1v3Z"/>
</svg>
