<?xml version="1.0" encoding="UTF-8"?>
<svg xmlns="http://www.w3.org/2000/svg" id="Layer_1" data-name="Layer 1" viewBox="0 0 24 24">
  <path d="m22.634,7.967c1.819-1.82,1.818-4.78,0-6.6-.881-.882-2.053-1.367-3.3-1.367s-2.419.485-3.3,1.367l-2.667,2.666c-1.576,1.577-1.781,4.007-.626,5.812l-.712.712,1.414,1.414.713-.713c.744.478,1.606.741,2.512.741,1.247,0,2.419-.485,3.3-1.367l2.667-2.666Zm-6.997,1.81l2.07-2.07-1.414-1.414-2.079,2.079c-.409-.97-.222-2.135.567-2.924l2.667-2.666c.503-.504,1.173-.781,1.885-.781s1.382.277,1.886.781c1.04,1.039,1.039,2.731,0,3.771l-2.667,2.666c-.76.76-1.945.945-2.915.558Zm-10.344-3.07l-3-3,1.414-1.414,3,3-1.414,1.414Zm4.707-2.707h-2V0h2v4Zm-6,6H0v-2h4v2Zm14.707,7.293l3,3-1.414,1.414-3-3,1.414-1.414Zm-4.707,2.707h2v4h-2v-4Zm10-6v2h-4v-2h4Zm-12.029-.557l-1.414-1.414-.712.712c-.744-.478-1.606-.741-2.512-.741-1.247,0-2.419.485-3.3,1.367l-2.667,2.666c-1.819,1.82-1.818,4.78,0,6.6.881.882,2.053,1.367,3.3,1.367s2.419-.485,3.3-1.367l2.667-2.666c1.576-1.577,1.781-4.007.626-5.812l.711-.711Zm-2.751,5.109l-2.667,2.666c-1.007,1.007-2.763,1.008-3.771,0-1.04-1.039-1.039-2.731,0-3.771l2.667-2.666c.503-.504,1.173-.781,1.885-.781.364,0,.715.074,1.04.212l-2.081,2.081,1.414,1.414,2.079-2.079c.409.97.222,2.135-.567,2.924Z"/>
</svg>
