<?xml version="1.0" encoding="UTF-8"?>
<svg xmlns="http://www.w3.org/2000/svg" id="Layer_1" data-name="Layer 1" viewBox="0 0 24 24">
  <path d="M18.248,15h1.252l-1.252,6h-1.25l-1.511-6h1.252l.826,3.282,.684-3.282Zm-5.261,.001h0c-1.109-.001-2,.889-2,1.984v2.03c0,1.094,.891,1.985,2,1.985h0c1.104-.008,2-.895,2-1.985v-.084h-1.255s.005,.054,.005,.084c0,.394-.342,.728-.75,.735-.391,0-.749-.302-.749-.751v-1.998c0-.449,.358-.751,.749-.751,.408,.007,.75,.34,.75,.735,0,.03-.005,.084-.005,.084h1.255v-.084c0-1.09-.896-1.977-2-1.984Zm9.077,3.281l-.826-3.282h-1.252l1.511,6h1.25l1.252-6h-1.252l-.684,3.282Zm1.935-12.282v7h-2v-3H2v9h6.988v.015c0,.706,.198,1.375,.541,1.971h-1.529v.014H0V6c0-1.654,1.346-3,3-3H21c1.654,0,3,1.346,3,3Zm-2,2v-2c0-.552-.449-1-1-1H3c-.551,0-1,.448-1,1v2H22Z"/>
</svg>
