<?xml version="1.0" encoding="UTF-8"?>
<svg xmlns="http://www.w3.org/2000/svg" id="Layer_1" data-name="Layer 1" viewBox="0 0 24 24">
  <path d="M18,6c0-3.309-2.691-6-6-6S6,2.691,6,6H0v15c0,1.654,1.346,3,3,3h6.147l-2.045-2H3c-.552,0-1-.448-1-1V8H6v3h2v-3h8v3h2v-3h4v13c0,.552-.448,1-1,1h-4.103l-2.044,2h6.147c1.654,0,3-1.346,3-3V6h-6Zm-10,0c0-2.206,1.794-4,4-4s4,1.794,4,4H8Zm9,11c0-1.336-.521-2.591-1.465-3.535-.944-.945-2.2-1.465-3.535-1.465s-2.592,.521-3.535,1.465c-.944,.943-1.465,2.199-1.465,3.535s.521,2.592,1.473,3.543l3.527,3.45,3.535-3.458c.944-.943,1.465-2.199,1.465-3.535Zm-2.871,2.113l-2.129,2.083-2.121-2.075c-.566-.566-.879-1.319-.879-2.121s.312-1.555,.88-2.121c.565-.567,1.318-.879,2.12-.879s1.555,.312,2.121,.879c.566,.566,.879,1.319,.879,2.121s-.313,1.555-.871,2.113Z"/>
</svg>
