<?xml version="1.0" encoding="UTF-8"?>
<svg xmlns="http://www.w3.org/2000/svg" id="Layer_1" data-name="Layer 1" viewBox="0 0 24 24">
  <path d="m19.47,14.253c.603-.633,1.162-1.438,1.162-2.253h-5.263c0,.815.559,1.62,1.162,2.253-2.451.813-4.53,3.511-4.53,6.258,0,1.923,1.57,3.488,3.5,3.488h5c1.93,0,3.5-1.565,3.5-3.488,0-2.748-2.079-5.446-4.53-6.258Zm1.03,7.747h-5c-.827,0-1.5-.667-1.5-1.488,0-2.192,2.056-4.512,4-4.512s4,2.319,4,4.512c0,.821-.673,1.488-1.5,1.488Zm.5-20h-3V0h-2v2h-8V0h-2v2h-3c-1.654,0-3,1.346-3,3v19h11.257c-.479-.579-.836-1.259-1.046-2H2v-12h22v-5c0-1.654-1.346-3-3-3Zm1,6H2v-3c0-.551.449-1,1-1h18c.552,0,1,.449,1,1v3Z"/>
</svg>
