<?xml version="1.0" encoding="UTF-8"?>
<svg xmlns="http://www.w3.org/2000/svg" id="Layer_1" data-name="Layer 1" viewBox="0 0 24 24">
  <path d="m21.618,5c-.309,0-.586-.171-.724-.447-.479-.958-1.442-1.553-2.512-1.553h-1.382V0c-1.657,0-3,1.343-3,3v1.668l-1.08,2.993L3.236,0H0l10.124,8.001-4.123.002c-.825,0-1.609.253-2.273.714-.466-.315-1.728-1.377-1.728-3.718H0c0,2.981,1.548,4.574,2.427,5.24-.269.544-.427,1.14-.427,1.765l.003,12h5.996v-5l5-.003v5h6.003v-6.395l1.191-5.605h.805c1.654,0,3-1.346,3-3v-4h-2.382Zm-15.618,12.005v5h-1.997l-.002-10c0-.534.208-1.037.585-1.415.378-.378.88-.586,1.415-.586l4.999-.003v7.001l-5,.003Zm11.003,4.995h-2.003v-5h-2s0-6.86,0-6.86l4.969,2.71-.944,4.442-.022,4.708Zm4.997-13c0,.551-.449,1-1,1h-2.425l-.172.808-3.754-2.048,1.357-3.76h2.375c.309,0,.586.171.724.447.479.958,1.442,1.553,2.512,1.553h.382v2Z"/>
</svg>
