<?xml version="1.0" encoding="UTF-8"?>
<svg xmlns="http://www.w3.org/2000/svg" id="Layer_1" data-name="Layer 1" viewBox="0 0 24 24">
  <path d="m19.47,14.253c.603-.633,1.162-1.438,1.162-2.253h-5.263c0,.815.559,1.62,1.162,2.253-2.451.813-4.53,3.511-4.53,6.258,0,1.924,1.57,3.488,3.5,3.488h5c1.93,0,3.5-1.564,3.5-3.488,0-2.748-2.079-5.446-4.53-6.258Zm1.03,7.747h-5c-.827,0-1.5-.668-1.5-1.488,0-2.192,2.056-4.512,4-4.512s4,2.319,4,4.512c0,.82-.673,1.488-1.5,1.488Zm-12.5,0v-8h2v6.512c0-1.952.777-3.854,2-5.365v-1.147h1.893c-.315-.61-.525-1.281-.525-2H2c.003-.296.166-.567.427-.71l8.18-4.462c.121-.065.257-.101.393-.101s.272.035.392.1l5.817,3.173h3.925c-.178-.178-.373-.341-.602-.466l-8.183-4.464c-.069-.038-.147-.054-.219-.086v-.958l3-1.944L10.129,0v4.884c-.163.053-.327.105-.479.188L1.469,9.534c-.906.493-1.469,1.441-1.469,2.474v1.992h2v8H0v2h11.257c-.477-.577-.82-1.261-1.03-2h-2.227Zm-4-8h2v8h-2v-8Z"/>
</svg>
