<?xml version="1.0" encoding="UTF-8"?>
<svg xmlns="http://www.w3.org/2000/svg" id="Layer_1" data-name="Layer 1" viewBox="0 0 24 24">
  <path d="m13,20h11.119l-1.86-7.024c-.464-1.754-2.052-2.976-3.867-2.976H5.607c-1.815,0-3.402,1.222-3.867,2.976L-.12,20h11.12v2h-5v2h12v-2h-5v-2Zm1.176-6h-4.352l.143-2h4.067l.143,2Zm-4.495,2h4.638l.143,2h-4.924l.143-2Zm6.909,2l-.212-2h4.614l.53,2h-4.932Zm3.872-4h-4.251l-.167-2h3.118c.454,0,.851.305.967.744l.333,1.256Zm-12.507-2l-.167,2H3.538l.332-1.256c.116-.439.513-.744.967-.744h3.118Zm-4.947,4h4.613l-.263,2H2.479l.529-2Zm5.992-8h-4.5v-2h2.601c.192-.94.658-1.775,1.298-2.443l-1.645-2.375L8.398.043l1.644,2.373c.604-.259,1.261-.416,1.958-.416s1.355.157,1.958.416L15.619.019l1.645,1.139-1.662,2.399c.639.669,1.106,1.503,1.298,2.443h2.601v2h-4.5v-1c0-1.654-1.346-3-3-3s-3,1.346-3,3v1Z"/>
</svg>
