<?xml version="1.0" encoding="UTF-8"?>
<svg xmlns="http://www.w3.org/2000/svg" id="Layer_1" data-name="Layer 1" viewBox="0 0 24 24">
  <path d="m21,0H3C1.346,0,0,1.346,0,3v21h18.414l5.586-5.586V3c0-1.654-1.346-3-3-3ZM2,3c0-.552.449-1,1-1h18c.551,0,1,.448,1,1v13h-6v6H2V3Zm16,18.586v-3.586h3.586l-3.586,3.586Zm-1.255-10.553l-1.511-6h1.252l.826,3.282.684-3.282h1.252l-1.252,6h-1.25Zm-4.245-6.03c-1.086,0-2,.877-2,1.964v2.066c0,1.086.914,1.967,2,1.967s2-.881,2-1.967v-2.066c0-1.086-.914-1.964-2-1.964Zm.746,4.009c.001.403-.322.729-.724.736-.402-.007-.768-.333-.767-.736,0-.048,0-1.976,0-2.024-.001-.403.344-.725.746-.731.402.007.747.328.746.731,0,.048,0,1.976,0,2.024Zm-4.32-3.253l.385,5.31h-1.217l-.242-3.339-1.196,2.631-1.196-2.631-.242,3.339h-1.217l.385-5.31c.032-.535.358-.759.749-.759.26,0,.501.184.638.486l.883,1.942.883-1.942c.137-.302.378-.486.638-.486.391,0,.717.224.749.759Z"/>
</svg>
