<?xml version="1.0" encoding="UTF-8"?>
<svg xmlns="http://www.w3.org/2000/svg" id="Layer_1" data-name="Layer 1" viewBox="0 0 24 24">
  <path d="M12,0C5.383,0,0,5.383,0,12s5.383,12,12,12,12-5.383,12-12S18.617,0,12,0Zm-1,19.931v2.019c-1.183-.118-2.3-.452-3.326-.948l1.046-1.713c.711,.322,1.477,.541,2.28,.642Zm2,0c.803-.101,1.569-.32,2.28-.642l1.046,1.713c-1.026,.495-2.143,.829-3.326,.948v-2.019Zm-1-1.931c-3.309,0-6-2.691-6-6s2.691-6,6-6,6,2.691,6,6-2.691,6-6,6Zm-7.931-7H2.051c.106-1.065,.384-2.078,.799-3.019l1.75,.988c-.263,.64-.442,1.321-.531,2.03Zm0,2c.089,.709,.268,1.39,.53,2.029l-1.75,.988c-.415-.94-.693-1.953-.799-3.018h2.019ZM13,4.069V2.051c1.183,.118,2.3,.452,3.326,.948l-1.046,1.713c-.711-.322-1.477-.541-2.28-.642Zm-2,0c-.803,.101-1.569,.32-2.28,.642l-1.046-1.713c1.026-.495,2.143-.83,3.326-.948v2.019Zm8.931,8.931h2.019c-.106,1.064-.384,2.078-.799,3.018l-1.75-.988c.263-.639,.441-1.32,.53-2.029Zm0-2c-.089-.709-.268-1.391-.531-2.03l1.75-.988c.415,.941,.693,1.954,.799,3.019h-2.019Zm.232-4.757l-1.753,.99c-.411-.551-.886-1.049-1.422-1.478l1.046-1.712c.817,.621,1.537,1.361,2.13,2.199ZM5.968,4.043l1.046,1.712c-.536,.429-1.012,.927-1.422,1.478l-1.753-.99c.593-.839,1.313-1.578,2.13-2.199Zm-2.13,13.714l1.753-.99c.411,.551,.886,1.049,1.422,1.478l-1.045,1.712c-.817-.621-1.537-1.361-2.13-2.2Zm14.195,2.2l-1.045-1.712c.536-.429,1.012-.927,1.422-1.478l1.753,.99c-.593,.839-1.313,1.578-2.13,2.2Zm-2.325-10.25l-2.293,2.293,2.293,2.293-1.414,1.414-2.293-2.293-2.293,2.293-1.414-1.414,2.293-2.293-2.293-2.293,1.414-1.414,2.293,2.293,2.293-2.293,1.414,1.414Z"/>
</svg>
