<?xml version="1.0" encoding="UTF-8"?>
<svg xmlns="http://www.w3.org/2000/svg" id="Layer_1" data-name="Layer 1" viewBox="0 0 24 24">
  <path d="m24,10.074v1.275c-.639-.791-1.412-1.465-2.281-2.002-.043-.049-.088-.097-.14-.138L12.674,2.232c-.396-.311-.951-.311-1.348,0L2.421,9.209c-.268.21-.421.525-.421.865v11.926h7.518c.506.756,1.125,1.429,1.831,2H0v-13.926c0-.959.433-1.848,1.187-2.439L10.092.658c1.125-.881,2.691-.881,3.816,0l8.905,6.977c.754.592,1.187,1.48,1.187,2.439Zm0,6.926c0,3.859-3.141,7-7,7s-7-3.141-7-7,3.141-7,7-7,7,3.141,7,7Zm-2,0c0-2.757-2.243-5-5-5s-5,2.243-5,5,2.243,5,5,5,5-2.243,5-5Zm-3.457-2.957l-1.543,1.543-1.543-1.543-1.414,1.414,1.543,1.543-1.543,1.543,1.414,1.414,1.543-1.543,1.543,1.543,1.414-1.414-1.543-1.543,1.543-1.543-1.414-1.414Z"/>
</svg>
