<?xml version="1.0" encoding="UTF-8"?>
<svg xmlns="http://www.w3.org/2000/svg" id="Layer_1" data-name="Layer 1" viewBox="0 0 24 24">
  <path d="m19,8v-1c0-3.859-3.141-7-7-7s-7,3.141-7,7v1h-3v13c0,1.654,1.346,3,3,3h14c1.654,0,3-1.346,3-3v-13h-3Zm-12-1c0-2.757,2.243-5,5-5s5,2.243,5,5v1H7v-1Zm4.013,12v-2h2c.552,0,1,.448,1,1s-.448,1-1,1h-2Zm1.5-4h-1.5v-2h1.5c.552,0,1,.448,1,1s-.448,1-1,1Zm-8.513,6v-11h7.004l.004,1h-1.996v10h1.996l-.004,1h-6.004c-.552,0-1-.448-1-1Zm16,0c0,.552-.448,1-1,1h-5.996l.004-1h.004c1.654,0,3-1.346,3-3,0-.909-.406-1.725-1.047-2.275.345-.488.547-1.083.547-1.725,0-1.484-1.086-2.712-2.504-2.95l-.004-1.05h6.996v11Z"/>
</svg>
