<?xml version="1.0" encoding="UTF-8"?>
<svg xmlns="http://www.w3.org/2000/svg" id="Layer_1" data-name="Layer 1" viewBox="0 0 24 24">
  <path d="m24,20c0,1.654-1.346,3-3,3v1h-2v-1c-1.654,0-3-1.346-3-3h2c0,.552.449,1,1,1h2c.551,0,1-.448,1-1,0-.379-.271-.698-.644-.761l-3.041-.506c-1.342-.224-2.315-1.374-2.315-2.733,0-1.654,1.346-3,3-3v-1h2v1c1.654,0,3,1.346,3,3h-2c0-.552-.449-1-1-1h-2c-.551,0-1,.448-1,1,0,.379.271.698.644.761l3.041.506c1.342.224,2.315,1.374,2.315,2.733ZM3,4c1.105,0,2-.895,2-2S4.105,0,3,0,1,.895,1,2s.895,2,2,2Zm7,0c1.105,0,2-.895,2-2s-.895-2-2-2-2,.895-2,2,.895,2,2,2Zm7,0c1.105,0,2-.895,2-2s-.895-2-2-2-2,.895-2,2,.895,2,2,2Zm-6,16.764l-2-1v-4.145l-7-5.6v-1.02h16v1h2v-3c0-1.105-.895-2-2-2h-2c-1.105,0-2,.895-2,2h-1c0-1.105-.895-2-2-2h-2c-1.105,0-2,.895-2,2h-1c0-1.105-.895-2-2-2h-2c-1.105,0-2,.895-2,2v3.98l7,5.6v4.42l6,3v-7.42l1-.804v-2.565l-3,2.408v5.145Z"/>
</svg>
