<?xml version="1.0" encoding="UTF-8"?>
<svg xmlns="http://www.w3.org/2000/svg" id="Layer_1" data-name="Layer 1" viewBox="0 0 24 24">
  <path d="m9,17.967v-1.61c1.721-.447,3-2,3-3.858,0-2.196-1.854-4.256-2.421-4.834-.84-.859-2.32-.859-3.158,0-.568.579-2.421,2.64-2.421,4.834,0,1.858,1.279,3.411,3,3.858v1.61c-1.396-1.301-3.406-1.968-6-1.968H0v1c0,1.982.632,3.602,1.878,4.812,1.644,1.597,3.934,2.073,5.207,2.189h1.831c1.273-.116,3.562-.592,5.207-2.189,1.246-1.21,1.878-2.829,1.878-4.812v-1h-1c-2.594,0-4.604.667-6,1.968Zm-3-5.468c0-1.143.996-2.564,1.85-3.436.052-.053.11-.064.15-.064.039,0,.098.011.15.065.921.938,1.85,2.364,1.85,3.435,0,1.103-.897,2-2,2s-2-.897-2-2Zm-2.729,7.876c-.635-.617-1.027-1.384-1.188-2.329,1.677.156,2.945.69,3.779,1.595.686.743.965,1.624,1.075,2.285-1.023-.133-2.591-.506-3.667-1.551Zm9.466-.007c-1.083,1.057-2.651,1.43-3.675,1.561.109-.655.385-1.53,1.061-2.271.834-.915,2.107-1.456,3.795-1.612-.16.941-.55,1.706-1.181,2.322Zm-.236-18.369c0-.828.672-1.5,1.5-1.5s1.5.672,1.5,1.5-.672,1.5-1.5,1.5-1.5-.672-1.5-1.5Zm11.5,6s-.004-2.467-2.287-2.724c.162-.407.287-.884.287-1.391,0-1.529-1.622-3.102-1.947-3.402L19.528,0l-.628.338c-.681.367-2.9,1.691-2.9,3.329,0,.122.007.235.015.348-.114-.007-.227-.015-.348-.015-1.659,0-2.97,2.373-3.332,3.1l-.328.66.533.509c.303.289,1.89,1.731,3.383,1.731.491,0,.954-.117,1.354-.272.266,2.269,2.723,2.272,2.723,2.272v-2.308c0-.923-.212-1.836-.5-2.192.357.288,1.269.5,2.192.5h2.308Zm-4.791-5.507c.411.485.791,1.062.791,1.392,0,.383-.115,1-.889,1.773-1.067-1.082-1.111-1.382-1.112-1.979.041-.242.573-.748,1.21-1.187Zm-3.286,5.507c-.342,0-.917-.325-1.411-.689.431-.684.924-1.253,1.155-1.311.603,0,.95.048,2.029,1.111-.792.792-1.391.889-1.773.889Z"/>
</svg>
