<?xml version="1.0" encoding="UTF-8"?>
<svg xmlns="http://www.w3.org/2000/svg" id="Layer_1" data-name="Layer 1" viewBox="0 0 24 24">
  <path d="m16.987,2.5c0-1.381,1.119-2.5,2.5-2.5s2.5,1.119,2.5,2.5-1.119,2.5-2.5,2.5-2.5-1.119-2.5-2.5Zm7.013,6.5c0-1.654-1.346-3-3-3h-4.561L11.237.324l-1.475,1.352,5.798,6.324h5.439c.552,0,1,.448,1,1v6h-4v-5h-2v14h2v-7h2v7h2v-7h2v-8ZM2.675,14.549L.016,17.208l1.414,1.414,1.57-1.57v6.948h2v-6.948l1.57,1.57,1.414-1.414-2.659-2.659c-.707-.707-1.943-.707-2.65,0Zm7-5l-2.659,2.659,1.414,1.414,1.57-1.57v11.948h2v-11.948l1.57,1.57,1.414-1.414-2.659-2.659c-.707-.707-1.943-.707-2.65,0Z"/>
</svg>
