<?xml version="1.0" encoding="UTF-8"?>
<svg xmlns="http://www.w3.org/2000/svg" id="Layer_1" data-name="Layer 1" viewBox="0 0 24 24">
  <path d="M5.5,13c.828,0,1.5,.672,1.5,1.5s-.672,1.5-1.5,1.5-1.5-.672-1.5-1.5,.672-1.5,1.5-1.5Zm17.912,6.039l.24,.461-.24,.462c-.493,.947-2.412,4.038-6.412,4.038s-5.919-3.091-6.413-4.038l-.241-.462,.241-.462c.494-.947,2.417-4.038,6.413-4.038s5.92,3.091,6.412,4.039Zm-2.041,.461c-.635-.996-1.988-2.5-4.371-2.5s-3.735,1.504-4.371,2.5c.636,.996,1.99,2.5,4.371,2.5s3.736-1.504,4.371-2.5Zm2.629-14.5v11.346c-.506-.611-1.17-1.261-2-1.827v-5.518H2v9h6.876c-.02,.037-.044,.08-.062,.113l-1.039,1.887H0V5c0-1.654,1.346-3,3-3H21c1.654,0,3,1.346,3,3Zm-2,2v-2c0-.551-.448-1-1-1H3c-.551,0-1,.449-1,1v2H22Zm-5,11c-.829,0-1.5,.671-1.5,1.5s.671,1.5,1.5,1.5,1.5-.671,1.5-1.5-.671-1.5-1.5-1.5Z"/>
</svg>
