<?xml version="1.0" encoding="UTF-8"?>
<svg xmlns="http://www.w3.org/2000/svg" id="Layer_1" data-name="Layer 1" viewBox="0 0 24 24">
  <path d="M12,9.256c-1.654,0-3,1.346-3,3s1.346,3,3,3,3-1.346,3-3-1.346-3-3-3Zm0,4c-.551,0-1-.449-1-1s.449-1,1-1,1,.449,1,1-.449,1-1,1Zm9.911,1.447c-.217-.067-1.151-.375-2.207-.958,1.08-1.203,2.04-2.849,2.742-5.367l.175-.625L13.25,0l-.414,1.484c-.495,1.777-1.116,3.024-1.83,3.979-1.087-1.462-1.642-3.154-1.71-3.375-.392-1.27-1.49-2.089-2.797-2.089H2C.897,0,0,.897,0,2c0,.878,.572,1.617,1.359,1.885-.219,.32-.359,.698-.359,1.115,0,.872,.564,1.607,1.344,1.88-.217,.32-.344,.705-.344,1.12,0,1.103,.897,2,2,2h1.149c-1.435,1.149-2.847,2.749-3.97,5.514l-.276,.68,9.3,7.693,.513-1.263c.941-2.316,2.065-3.649,3.284-4.642v2.018c0,1.103,.897,2,2,2,.414,0,.8-.127,1.12-.344,.273,.78,1.008,1.344,1.88,1.344,.417,0,.795-.14,1.115-.359,.269,.788,1.008,1.359,1.885,1.359,1.103,0,2-.897,2-2v-4.5c0-1.307-.819-2.405-2.089-2.797ZM4.309,6h2.322c-.41-.773-.706-1.47-.903-2H3.564c-.257-.811-.426-1.512-.507-2h3.443c.43,0,.752,.248,.886,.68,.138,.445,.826,2.5,2.221,4.253-.676,.562-1.402,1.019-2.165,1.496-.403,.252-.817,.511-1.234,.793-.756-.886-1.395-2.055-1.899-3.222Zm5.109,14.641L3.321,15.598c1.441-3.136,3.262-4.273,5.182-5.473,2.14-1.337,4.346-2.715,5.797-6.66l6.037,4.994c-1.215,3.83-3.074,4.991-5.21,6.326-1.908,1.192-4.043,2.526-5.709,5.856Zm8.583-3.272v2.322c-1.279-.553-2.554-1.269-3.462-2.122,.537-.391,1.088-.738,1.649-1.088,.659-.412,1.324-.83,1.971-1.324,1.411,.875,2.751,1.33,3.163,1.457,.432,.133,.679,.456,.679,.886v3.443c-.488-.081-1.189-.249-2-.507v-2.165c-.53-.197-1.227-.493-2-.903Z"/>
</svg>
