<?xml version="1.0" encoding="UTF-8"?>
<svg xmlns="http://www.w3.org/2000/svg" id="Layer_1" data-name="Layer 1" viewBox="0 0 24 24">
  <path d="M24,22c0,1.105-.895,2-2,2-.738,0-1.376-.405-1.723-1h-4.277V14h2v7h2.277c.346-.595,.984-1,1.723-1,1.105,0,2,.895,2,2Zm-11-1.723v-6.277h-2v6.277c-.595,.346-1,.984-1,1.723,0,1.105,.895,2,2,2s2-.895,2-2c0-.738-.405-1.376-1-1.723Zm-7,.723H3.723c-.346-.595-.984-1-1.723-1-1.105,0-2,.895-2,2s.895,2,2,2c.738,0,1.376-.405,1.723-1h4.277V14h-2v7ZM16.831,6.51l.528,.127c2.144,.514,3.641,2.41,3.641,4.613,0,1.09-.378,2.087-1,2.887v2.704c1.803-1.212,3-3.26,3-5.591,0-2.951-1.891-5.517-4.659-6.413C17.085,1.923,14.199,0,11,0,6.589,0,3,3.589,3,8c0,.324,.021,.65,.061,.976-1.287,.934-2.061,2.418-2.061,4.024,0,2.044,1.239,3.793,3,4.568v-2.357c-.609-.546-1-1.329-1-2.211,0-1.107,.621-2.121,1.621-2.645l.673-.352-.159-.743c-.09-.419-.135-.843-.135-1.261,0-3.309,2.691-6,6-6,2.531,0,4.802,1.606,5.65,3.998l.181,.512Z"/>
</svg>
