<?xml version="1.0" encoding="UTF-8"?>
<svg xmlns="http://www.w3.org/2000/svg" id="Layer_1" data-name="Layer 1" viewBox="0 0 24 24">
  <path d="m22.769,15c-5.108,0-8.086,2.179-9.769,4.225v-3.295c3.94-.495,7-3.859,7-7.931C20,3.589,16.411,0,12,0S4,3.589,4,8c0,4.072,3.06,7.436,7,7.931v3.292c-1.682-2.046-4.656-4.223-9.756-4.223H.028l.234,1.192c1.228,6.25,7.316,7.833,10.99,7.833.264,0,.512-.01.748-.026.236.016.484.026.748.026,3.678,0,9.773-1.583,11.002-7.832l.234-1.193h-1.216ZM6,8c0-3.309,2.691-6,6-6s6,2.691,6,6-2.691,6-6,6-6-2.691-6-6Zm-3.425,9.059c4.855.439,7.044,3.247,7.931,4.933-2.236-.142-6.449-.953-7.931-4.933Zm10.922,4.929c.889-1.687,3.081-4.49,7.939-4.929-1.483,3.962-5.7,4.78-7.939,4.929Zm-2.297-8.987v-1.2h-.2c-1.201,0-2.189-.925-2.291-2.1h1.62c.086.289.354.5.671.5h2.126c.316,0,.574-.257.574-.574,0-.272-.194-.509-.462-.563l-2.791-.559c-1.013-.203-1.747-1.099-1.747-2.131,0-1.199.975-2.173,2.173-2.173h.327v-1.2h1.6v1.2h.2c1.201,0,2.189.925,2.291,2.1h-1.62c-.086-.289-.354-.5-.671-.5h-2.127c-.316,0-.573.257-.573.574,0,.272.194.509.461.562l2.792.559c1.013.202,1.747,1.099,1.747,2.131,0,1.199-.975,2.173-2.174,2.173h-.326v1.2h-1.6Z"/>
</svg>
