<?xml version="1.0" encoding="UTF-8"?>
<svg xmlns="http://www.w3.org/2000/svg" id="Layer_1" data-name="Layer 1" viewBox="0 0 24 24">
  <path d="m23.965,10.117l-2.034,4.188c1.094,1.197,1.381,2.933.688,4.421l-.798,1.607c-1,.026-1.374-.795-1.538-1.308l.516-1.127c.379-.813.199-1.755-.439-2.359l-.463-.438-.634-.073c-.87-.092-1.711.367-2.082,1.165l-1.891,3.944c-.622-.245-1.212-1.214-1.314-1.829l1.398-2.971c.692-1.484,2.204-2.389,3.842-2.307l2.052-4.224,2.699,1.311Zm-2.965,11.883c-1.103,0-2-.897-2-2h-2c0,1.103-.897,2-2,2s-2-.897-2-2h-2c0,1.103-.897,2-2,2s-2-.897-2-2h-2c0,1.103-.897,2-2,2-.575,0-1.123-.249-1.502-.684L-.01,22.631c.76.87,1.856,1.369,3.01,1.369,1.193,0,2.267-.525,3-1.357.733.832,1.807,1.357,3,1.357s2.267-.525,3-1.357c.733.832,1.807,1.357,3,1.357s2.267-.525,3-1.357c.733.832,1.807,1.357,3,1.357,1.153,0,2.25-.499,3.01-1.369l-1.508-1.314c-.379.435-.927.684-1.502.684Zm0-18c1.153,0,2.25-.499,3.01-1.369l-1.508-1.314c-.379.435-.927.684-1.502.684-1.103,0-2-.897-2-2h-2c0,1.103-.897,2-2,2v2c1.193,0,2.267-.525,3-1.357.733.832,1.807,1.357,3,1.357ZM7,0h-2c0,1.103-.897,2-2,2-.575,0-1.123-.249-1.502-.684L-.01,2.631c.76.87,1.856,1.369,3.01,1.369,2.206,0,4-1.794,4-4Zm-1,13.643c.733.832,1.807,1.357,3,1.357s2.26-.539,2.993-1.374c.401.458.9.827,1.47,1.065l.105-.219c.264-.566.612-1.073,1.02-1.516-.906-.19-1.589-.995-1.589-1.957h-2c0,1.103-.897,2-2,2s-2-.897-2-2h-2c0,1.103-.897,2-2,2-.575,0-1.123-.249-1.502-.684L-.01,13.631c.76.87,1.856,1.369,3.01,1.369,1.193,0,2.267-.525,3-1.357ZM1.388,6.783l1.811,3.587c.42-.489.955-.85,1.801-.869l-.937-1.776,3.848-1.833,1.656,3.109h2.222l-2.277-4.466c.401-.688,1.446-2.034,3.489-2.034V.5c-3.321,0-4.879,2.358-5.373,3.311L1.388,6.783Z"/>
</svg>
