<?xml version="1.0" encoding="UTF-8"?>
<svg xmlns="http://www.w3.org/2000/svg" id="Layer_1" data-name="Layer 1" viewBox="0 0 24 24">
  <path d="m16.5,15.5c0-1.379,1.121-2.5,2.5-2.5s2.5,1.121,2.5,2.5-1.121,2.5-2.5,2.5-2.5-1.121-2.5-2.5Zm4.5,3.5h-4c-1.654,0-3,1.346-3,3v2h2v-2c0-.551.448-1,1-1h4c.552,0,1,.449,1,1v2h2v-2c0-1.654-1.346-3-3-3Zm.7-19H2.299L.025,9.891l-.025,1.147c0,.996.385,1.896,1,2.592v7.369c0,1.654,1.346,3,3,3h8v-2H4c-.551,0-1-.449-1-1v-6.141c.322.083.653.141,1,.141h1c1.194,0,2.254-.548,2.981-1.394.727.847,1.786,1.394,2.981,1.394h2.077c.548,0,1.069-.113,1.544-.317.255-1.388,1.151-2.539,2.366-3.167.022-.171.052-.34.052-.517h-2c0,1.122-.861,2-1.962,2h-2.077c-1.1,0-1.961-.878-1.961-2h-2.039c0,1.122-.861,2-1.961,2h-1c-1.122,0-2-.861-2-1.961v-.81L3.892,2h3.108v4h2V2h6v4h2V2h3.108l1.892,8.229v.81c0,.341-.092.653-.242.93.546.427.99.971,1.292,1.603.584-.689.95-1.565.95-2.533v-.923L21.7,0Z"/>
</svg>
