<?xml version="1.0" encoding="UTF-8"?>
<svg xmlns="http://www.w3.org/2000/svg" id="Layer_1" data-name="Layer 1" viewBox="0 0 24 24">
  <path d="m17.304,15.902l4,4-1.414,1.414-1.293-1.293-3.889,3.889-1.414-1.414,3.889-3.889-1.292-1.292,1.414-1.414Zm.696-5.902c0-2.213-.815-4.252-2.174-5.905-.749.114-1.462.328-2.115.635,1.419,1.403,2.289,3.246,2.289,5.27,0,2.206-1.794,4-4,4s-4-1.794-4-4c0-4.337,4.121-8,9-8,2.307,0,5,1.44,5,5.5,0,.056-.13,4.438-2.273,7.998l1.452,1.452c2.719-4.171,2.821-9.385,2.821-9.45,0-5.153-3.629-7.5-7-7.5C10.935,0,6,4.486,6,10c0,3.309,2.691,6,6,6s6-2.691,6-6Zm-9.89,7.316l-1.414-1.414-4,4,1.414,1.414,1.293-1.293,3.889,3.889,1.414-1.414-3.889-3.889,1.292-1.292Zm-3.838-1.818c-2.142-3.559-2.273-7.942-2.273-7.998,0-4.06,2.693-5.5,5-5.5.109,0,.215.011.323.015.635-.655,1.343-1.245,2.118-1.758-.786-.163-1.601-.257-2.441-.257C3.629,0,0,2.347,0,7.5c0,.065.101,5.279,2.821,9.45l1.452-1.452Z"/>
</svg>
