<?xml version="1.0" encoding="UTF-8"?>
<svg xmlns="http://www.w3.org/2000/svg" id="Layer_1" data-name="Layer 1" viewBox="0 0 24 24">
  <path d="m9.5,2.5c0-1.381,1.119-2.5,2.5-2.5s2.5,1.119,2.5,2.5-1.119,2.5-2.5,2.5-2.5-1.119-2.5-2.5Zm11.5.629l-14.698,12.943c1.37-.53,3.345-1.072,5.698-1.072,1.014,0,2.026.123,3,.315v-4.238l2-1.761v6.502c.714.216,1.39.454,2,.696l2,1.005v2.138c-.994-.55-5.059-2.657-9-2.657s-6.646,1.734-6.673,1.751l-2.321,1.519-.006-3.945,4-3.543v-3.782c0-1.654,1.346-3,3-3h4c.194,0,.383.039.572.075L21,.382v2.747Zm-12,7.882l3.399-3.01h-2.399c-.552,0-1,.449-1,1v2.01Zm-1,12.99h2v-4.816c-.77.135-1.452.325-2,.522v4.294Zm6,0h2v-4.309c-.637-.199-1.311-.375-2-.5v4.808Z"/>
</svg>
