<?xml version="1.0" encoding="UTF-8"?>
<svg xmlns="http://www.w3.org/2000/svg" id="Layer_1" data-name="Layer 1" viewBox="0 0 24 24">
  <path d="m7.5,12c-.828,0-1.5-.672-1.5-1.5s.672-1.5,1.5-1.5,1.5.672,1.5,1.5-.672,1.5-1.5,1.5Zm5.602,2.794c.908-.362,1.398-1.12,1.398-1.606,0-.656-.889-1.188-2.5-1.188s-2.5.532-2.5,1.188c0,.486.49,1.244,1.398,1.606-.212.914-.869,2.206-2.898,2.206v2c1.994,0,3.246-.831,4-1.877.754,1.046,2.006,1.877,4,1.877v-2c-2.03,0-2.686-1.292-2.898-2.206Zm10.898-1.294c0,5.79-4.71,10.5-10.5,10.5h-3C4.71,24,0,19.29,0,13.5,0,6.663,1.026,1.79,1.07,1.586L1.399.048l4.053,3.074c1.913-1.314,4.251-2.08,6.529-2.122,2.325-.023,4.459.659,6.538,2.143L22.653.009l.284,1.612c.043.246,1.063,6.097,1.063,11.879Zm-2,0c0-3.817-.474-7.753-.779-9.896l-2.714,2.057-.607-.482c-1.894-1.503-3.803-2.218-5.881-2.179-2.104.038-4.274.824-5.953,2.154l-.607.482-2.709-2.056c-.304,1.948-.748,5.545-.748,9.919,0,4.687,3.813,8.5,8.5,8.5h3c4.687,0,8.5-3.813,8.5-8.5Zm-5.5-4.5c-.828,0-1.5.672-1.5,1.5s.672,1.5,1.5,1.5,1.5-.672,1.5-1.5-.672-1.5-1.5-1.5Z"/>
</svg>
