<?xml version="1.0" encoding="UTF-8"?>
<svg xmlns="http://www.w3.org/2000/svg" id="Layer_1" data-name="Layer 1" viewBox="0 0 24 24">
  <path d="M17,13c-.552,0-1-.448-1-1s.448-1,1-1,1,.448,1,1-.448,1-1,1ZM5.085,3.619c.327-1.704,1.676-3.109,3.355-3.497,1.372-.318,2.777-.006,3.858,.854,1.081,.86,1.701,2.144,1.701,3.524,0,1.72-.966,3.261-2.52,4.024l.02,2.476H7.5v-2.493c-1.83-.896-2.804-2.865-2.415-4.888Zm1.915,.881c0,1.057,.657,1.861,1.393,2.224,.15,.074,.282,.171,.406,.276h1.403c.122-.104,.252-.201,.399-.272,.863-.423,1.399-1.277,1.399-2.228,0-1.381-1.119-2.5-2.5-2.5h0c-1.381,0-2.5,1.119-2.5,2.5h0Zm15.414,6.5c-.519-1.278-1.367-2.364-2.414-3.201V3s-2.566,.013-4.018,1.862c-.043,.774-.214,1.514-.505,2.193h.001c-.139,.329-.304,.645-.497,.945h.018c2.633,0,4.997,1.762,5.748,4.285l.212,.715h1.04v2h-1.039l-.213,.715c-.479,1.607-1.638,2.952-3.179,3.688l-.569,.271v2.325h-2v-2h-6v2h-2v-2.314l-.57-.271c-2.083-.991-3.43-3.116-3.43-5.414,0-1.869,.859-3.54,2.203-4.642-.509-.445-.941-.96-1.284-1.533-.411,.339-.783,.721-1.119,1.134-.452-.096-.8-.479-.8-.96,0-.551,.449-1,1-1v-2c-1.654,0-3,1.346-3,3,0,1.195,.707,2.221,1.721,2.703-.458,1.007-.721,2.121-.721,3.297,0,0,.001,.025,.004,.061,.022,2.826,1.564,5.449,3.996,6.859v3.08h6v-2h2v2h6v-3.092c1.545-.896,2.749-2.274,3.413-3.908h1.587v-6h-1.586Z"/>
</svg>
