<?xml version="1.0" encoding="UTF-8"?>
<svg xmlns="http://www.w3.org/2000/svg" id="Layer_1" data-name="Layer 1" viewBox="0 0 24 24">
  <path d="m9.769,6.309l-2.769-1.54v-.769h3.625l.981-3.75h.809l.98,3.75h3.605v.764l-2.75,1.591,1.105,3.357-.625.436-2.717-2.101-2.729,2.11-.601-.453,1.086-3.396Zm11.231-3.309c-1.654,0-3,1.346-3,3v5.184c-.266-.094-.542-.164-.832-.18-.793-.042-1.567.226-2.173.769l-2.995,2.756-3.005-2.765c-.597-.534-1.374-.801-2.163-.76-.29.016-.566.086-.832.18v-5.184c0-1.654-1.346-3-3-3S0,4.346,0,6v12.231c0,.742.273,1.455.772,2.01l3.391,3.759h2.693l-4.599-5.098c-.166-.185-.258-.423-.258-.671V6c0-.551.448-1,1-1s1,.449,1,1v8c.005.693.258,1.393.746,1.973l2.616,2.721,1.441-1.387-2.571-2.67c-.316-.377-.307-.938.022-1.305.177-.198.421-.315.687-.33.263-.018.521.075.71.244l4.026,3.705c.205.188.322.457.322.736v6.314h2v-6.314c0-.633-.204-1.248-.57-1.755l2.908-2.676c.198-.178.454-.271.72-.253.266.015.51.132.687.33.16.178.241.448.255.668.004.217-.057.429-.188.586l-2.533,2.634,1.441,1.387,2.578-2.685c.465-.553.692-1.238.693-1.922h.009V6c0-.551.448-1,1-1s1,.449,1,1v12.231c0,.248-.092.486-.258.671l-4.599,5.098h2.693l3.391-3.759c.499-.555.772-1.268.772-2.01V6c0-1.654-1.346-3-3-3Z"/>
</svg>
