<?xml version="1.0" encoding="UTF-8"?>
<svg xmlns="http://www.w3.org/2000/svg" id="Layer_1" data-name="Layer 1" viewBox="0 0 24 24">
  <path d="m20,10h-2V0h2l4,2.5-4,2.5v5Zm-8,6.5v7.5H0v-7.5c0-1.379,1.122-2.5,2.5-2.5h.5v-.5c0-.827.673-1.5,1.5-1.5h3c.827,0,1.5.673,1.5,1.5v.5h.5c1.378,0,2.5,1.121,2.5,2.5Zm-2,3.5h-3v1h-2v-1h-3v2h8v-2Zm0-3.5c0-.275-.224-.5-.5-.5H2.5c-.276,0-.5.225-.5.5v1.5h8v-1.5Zm10-2.5h-4c-1.103,0-2-.897-2-2s.897-2,2-2v-2c-2.206,0-4,1.794-4,4s1.794,4,4,4h4c1.103,0,2,.897,2,2s-.897,2-2,2h-6v2h6c2.206,0,4-1.794,4-4s-1.794-4-4-4Z"/>
</svg>
