<?xml version="1.0" encoding="UTF-8"?>
<svg xmlns="http://www.w3.org/2000/svg" id="Layer_1" data-name="Layer 1" viewBox="0 0 24 24">
  <path d="m7,10H3c-.551,0-1,.448-1,1v2H0v-2c0-1.654,1.346-3,3-3h4c1.654,0,3,1.346,3,3v2h-2v-2c0-.552-.449-1-1-1ZM1.5,3.5C1.5,1.57,3.07,0,5,0s3.5,1.57,3.5,3.5-1.57,3.5-3.5,3.5-3.5-1.57-3.5-3.5Zm2,0c0,.827.673,1.5,1.5,1.5s1.5-.673,1.5-1.5-.673-1.5-1.5-1.5-1.5.673-1.5,1.5Zm17.5,4.5h-4c-1.654,0-3,1.346-3,3v2h2v-2c0-.552.449-1,1-1h4c.551,0,1,.448,1,1v2h2v-2c0-1.654-1.346-3-3-3Zm-5.5-4.5c0-1.93,1.57-3.5,3.5-3.5s3.5,1.57,3.5,3.5-1.57,3.5-3.5,3.5-3.5-1.57-3.5-3.5Zm2,0c0,.827.673,1.5,1.5,1.5s1.5-.673,1.5-1.5-.673-1.5-1.5-1.5-1.5.673-1.5,1.5Zm.2,12.049l-2.659,2.659,1.414,1.414,1.545-1.545v2.923c0,.552-.449,1-1,1H7c-.551,0-1-.448-1-1v-6h-2v6c0,1.654,1.346,3,3,3h10c1.654,0,3-1.346,3-3v-2.974l1.596,1.596,1.414-1.414-2.66-2.66c-.73-.729-1.919-.729-2.65,0Z"/>
</svg>
