<?xml version="1.0" encoding="UTF-8"?>
<svg xmlns="http://www.w3.org/2000/svg" id="Layer_1" data-name="Layer 1" viewBox="0 0 24 24">
  <path d="M23.924,11.882l-4.94-2.639,3.422-6.756-7.074,2.995L12.42,.028l-2.815,5.289L-.006,.15,5.805,9.271,.163,12.052l5.76,2.544-2.138,5.825,5.797-1.991,2.96,5.531,2.757-5.388,8.389,4.549-4.583-8.663,4.819-2.578Zm-9.473,3.957l-1.949,3.81-1.96-3.663-3.431,1.179,1.336-3.639-3.56-1.572,3.803-1.875-2.89-4.536,4.626,2.486,1.995-3.749,2.004,3.757,3.725-1.577-1.836,3.625,3.366,1.798-3.276,1.752,2.421,4.576-4.375-2.373Z"/>
</svg>
