<?xml version="1.0" encoding="UTF-8"?>
<svg xmlns="http://www.w3.org/2000/svg" id="Layer_1" data-name="Layer 1" viewBox="0 0 24 24">
  <path d="m20.124,14.748c.243-.79.376-1.629.376-2.498,0-1.407-.349-2.732-.957-3.902.091.006.177.027.269.027,2.309,0,4.188-1.878,4.188-4.188s-1.878-4.188-4.188-4.188-4.188,1.878-4.188,4.188c0,.139.028.27.041.405-1.112-.535-2.352-.843-3.666-.843-1.257,0-2.448.282-3.523.774-.12-1.961-1.737-3.524-3.727-3.524-2.068,0-3.75,1.682-3.75,3.75,0,1.948,1.498,3.535,3.401,3.715-.571,1.142-.901,2.424-.901,3.785,0,.513.053,1.013.141,1.502-2.18.703-3.641,2.695-3.641,4.994,0,2.897,2.357,5.254,5.254,5.254,2.229,0,4.169-1.399,4.918-3.453.59.13,1.2.203,1.828.203.979,0,1.917-.175,2.793-.481.614,1.593,2.151,2.731,3.957,2.731,2.343,0,4.25-1.906,4.25-4.25,0-1.86-1.209-3.427-2.876-4.002Zm-.312-12.748c1.206,0,2.188.981,2.188,2.188s-.981,2.188-2.188,2.188-2.188-.981-2.188-2.188.981-2.188,2.188-2.188ZM3,4.75c0-.965.785-1.75,1.75-1.75s1.75.785,1.75,1.75-.785,1.75-1.75,1.75-1.75-.785-1.75-1.75Zm2.254,17.25c-1.794,0-3.254-1.46-3.254-3.254,0-1.39.911-2.64,2.222-3.081.813,1.844,2.263,3.34,4.07,4.221-.47,1.258-1.666,2.113-3.038,2.113Zm.246-9.75c0-3.584,2.916-6.5,6.5-6.5s6.5,2.916,6.5,6.5-2.916,6.5-6.5,6.5-6.5-2.916-6.5-6.5Zm13.25,8.75c-1.018,0-1.871-.685-2.147-1.615,1.103-.714,2.027-1.677,2.7-2.808.973.248,1.697,1.125,1.697,2.173,0,1.24-1.009,2.25-2.25,2.25Zm-5.5-6c0,.69-.56,1.25-1.25,1.25s-1.25-.56-1.25-1.25.56-1.25,1.25-1.25,1.25.56,1.25,1.25Zm1.579-2.829l-1.132,1.131c-.936-.936-2.458-.936-3.394,0l-1.132-1.131c1.56-1.56,4.098-1.56,5.657,0Zm1.768-1.767l-1.132,1.131c-.925-.925-2.155-1.435-3.464-1.435s-2.539.51-3.464,1.435l-1.132-1.131c1.228-1.228,2.86-1.904,4.596-1.904s3.369.676,4.596,1.904Z"/>
</svg>
