<?xml version="1.0" encoding="UTF-8"?>
<svg xmlns="http://www.w3.org/2000/svg" id="Layer_1" data-name="Layer 1" viewBox="0 0 24 24">
  <path d="M20.941,8C20.441,3.507,16.624,0,12,0S3.559,3.507,3.059,8H-.02l1.917,13.424c.21,1.468,1.487,2.576,2.97,2.576h14.266c1.483,0,2.76-1.107,2.97-2.576l1.917-13.424h-3.079ZM12,2c3.519,0,6.432,2.613,6.92,6H5.08c.488-3.387,3.401-6,6.92-6Zm8.123,19.141c-.07,.49-.496,.859-.99,.859H4.867c-.494,0-.92-.369-.99-.859l-1.591-11.141H21.714l-1.591,11.141Zm-4.123-4.141H8v-2h8v2Z"/>
</svg>
