<?xml version="1.0" encoding="UTF-8"?>
<svg xmlns="http://www.w3.org/2000/svg" id="Layer_1" data-name="Layer 1" viewBox="0 0 24 24">
  <path d="M7,16h2v8h-2v-6c-3.309,0-6-2.691-6-6v-4H0v-2H4V0h2V6h5V0h2V6h4v2H3v4c0,2.206,1.794,4,4,4Zm17,1c0,3.859-3.14,7-7,7s-7-3.141-7-7,3.14-7,7-7,7,3.141,7,7Zm-2,0c0-2.757-2.243-5-5-5s-5,2.243-5,5,2.243,5,5,5,5-2.243,5-5Zm-2.411-2.308l-3.229,3.175-1.63-1.58-1.393,1.436,1.846,1.789c.315,.315,.733,.488,1.179,.488s.864-.174,1.172-.482l3.457-3.399-1.402-1.426Z"/>
</svg>
