<?xml version="1.0" encoding="UTF-8"?>
<svg xmlns="http://www.w3.org/2000/svg" id="Layer_1" data-name="Layer 1" viewBox="0 0 24 24">
  <path d="m15.99,6.25h-1.375v-1.25h4v1.25h-1.375v4.819h-1.25v-4.819Zm-2.533.735c0,1.094-.902,1.985-2.012,1.985l-.717.003v2.096h-1.25v-6.069h1.967c1.109,0,2.012.891,2.012,1.985Zm-1.25,0c0-.398-.349-.735-.762-.735h-.715l.005,1.473.71-.003c.413,0,.762-.336.762-.735Zm11.793-3.985v15.414l-5.586,5.586H0V3C0,1.346,1.346,0,3,0h18c1.654,0,3,1.346,3,3ZM2,22h14v-6h6V3c0-.552-.448-1-1-1H3c-.551,0-1,.448-1,1v19Zm19.586-4h-3.586v3.586l3.586-3.586ZM7.979,6.985c0,1.094-.902,1.985-2.012,1.985l-.717.003v2.096h-1.25v-6.069h1.967c1.109,0,2.012.891,2.012,1.985Zm-1.25,0c0-.398-.349-.735-.762-.735h-.715l.005,1.473.71-.003c.413,0,.762-.336.762-.735Z"/>
</svg>
