<?xml version="1.0" encoding="UTF-8"?>
<svg xmlns="http://www.w3.org/2000/svg" id="Layer_1" data-name="Layer 1" viewBox="0 0 24 24">
  <path d="m23,11.812c-.608-.353-1.282-.6-2-.721V0h2v11.812Zm-5-8.812h-2v9.54c.578-.519,1.254-.926,2-1.19V3Zm2,19c-.737,0-1.375-.405-1.722-1h1.722v-2h-2v-1h2v-2h-1.722c.347-.595.985-1,1.722-1,1.103,0,2,.897,2,2h2c0-2.206-1.794-4-4-4-1.859,0-3.411,1.28-3.858,3h-1.142v2h1v1h-1v2h1.142c.447,1.72,1.999,3,3.858,3,2.206,0,4-1.794,4-4h-2c0,1.103-.897,2-2,2Zm-14,2h2v-15h-2v15Zm-5,0h2v-12H1v12Zm10,0h2V6h-2v18Z"/>
</svg>
