<?xml version="1.0" encoding="UTF-8"?>
<svg xmlns="http://www.w3.org/2000/svg" id="Layer_1" data-name="Layer 1" viewBox="0 0 24 24">
  <path d="m24,10.074v.901L12.674,2.232c-.396-.311-.952-.311-1.349,0L2.421,9.209c-.268.21-.421.524-.421.865v11.926h8.101c.152.743.482,1.416.924,2H0v-13.926c0-.96.433-1.849,1.188-2.439L10.092.658c1.123-.879,2.692-.881,3.815,0l8.905,6.977c.754.591,1.188,1.479,1.188,2.439Zm-5,7.926h-2v2h2v-2Zm3-4h2v7c0,1.654-1.346,3-3,3h-6c-1.654,0-3-1.346-3-3v-7h2v-1c0-2.206,1.794-4,4-4s4,1.794,4,4v1Zm-6,0h4v-1c0-1.103-.897-2-2-2s-2,.897-2,2v1Zm6,2h-8v5c0,.552.449,1,1,1h6c.551,0,1-.448,1-1v-5Z"/>
</svg>
