<?xml version="1.0" encoding="UTF-8"?>
<svg xmlns="http://www.w3.org/2000/svg" id="Layer_1" data-name="Layer 1" viewBox="0 0 24 24">
  <path d="m22,12.921c.754-.437,1.428-.992,2-1.642v12.721H0V6c0-1.654,1.346-3,3-3h7.587c-.256.631-.431,1.301-.518,2H3c-.551,0-1,.448-1,1v.24l7.88,7.88c1.17,1.17,3.07,1.17,4.24,0l.754-.754c.703.299,1.458.497,2.246.584l-1.581,1.581c-.97.97-2.26,1.46-3.54,1.46s-2.56-.49-3.54-1.46l-6.46-6.46v12.93h20v-9.079Zm-10-6.921c0-3.309,2.691-6,6-6s6,2.691,6,6-2.691,6-6,6-6-2.691-6-6Zm2,0c0,2.206,1.794,4,4,4s4-1.794,4-4-1.794-4-4-4-4,1.794-4,4Zm6.707,1.293l-1.707-1.707v-2.586h-2v3.414l2.293,2.293,1.414-1.414Z"/>
</svg>
