<?xml version="1.0" encoding="UTF-8"?>
<svg xmlns="http://www.w3.org/2000/svg" id="Layer_1" data-name="Layer 1" viewBox="0 0 24 24">
  <path d="m22,0l-6.001.002c-1.103,0-1.999.898-1.999,2.001l.002,7.771c0,.6.489,1.088,1.09,1.088h.309l2.726-1.862h5.874V2c0-1.103-.897-2-2-2Zm0,7h-4.491l-1.507,1.029-.002-6.027,6-.002v5Zm-7.801,9.262c-2.959-1.282-5.079-3.407-6.453-6.469l3.406-3.406L4.888.122,1.716,3.293c-1.106,1.105-1.716,2.599-1.716,4.208,0,7.248,9.252,16.5,16.5,16.5,1.608,0,3.103-.609,4.207-1.715l3.171-3.171-6.265-6.265-3.414,3.414Zm5.093,4.609c-.727.728-1.718,1.129-2.792,1.129-6.233,0-14.5-8.266-14.5-14.5,0-1.073.401-2.065,1.13-2.793l1.758-1.757,3.437,3.437-2.936,2.936.246.613c1.641,4.086,4.482,6.924,8.446,8.437l.605.231,2.927-2.927,3.437,3.437-1.758,1.758Z"/>
</svg>
