<?xml version="1.0" encoding="UTF-8"?>
<svg xmlns="http://www.w3.org/2000/svg" id="Layer_1" data-name="Layer 1" viewBox="0 0 24 24">
  <path d="m8.335,17.823l.384,2.085C3.81,19.276,0,15.079,0,10,0,4.486,4.486,0,10,0c5.012,0,9.163,3.711,9.879,8.528-.383-.571-.88-1.01-1.444-1.243-.329-.136-.668-.206-1.01-.245-1.18-2.949-4.061-5.04-7.426-5.04C5.589,2,2,5.589,2,10c0,3.84,2.721,7.055,6.335,7.823Zm15.665-1.823v6c0,1.103-.897,2-2,2h-10.47l-1.53-8.23v-1.77h6.184l-.58-3.265c-.057-.334-.029-.519-.007-.599.188-.69.75-1.136,1.432-1.136.213,0,.428.044.64.132.254.105.503.367.682.719l2.193,4.149h1.456c1.103,0,2,.897,2,2Zm-4,0h-7.939l1.128,6h6.812v-6Zm-5.304-8.282l-1.393-1.436-4.193,4.066-2.385-2.338-1.4,1.429,2.64,2.587c.306.306.711.474,1.144.474s.838-.168,1.133-.463l4.455-4.319Z"/>
</svg>
