<?xml version="1.0" encoding="UTF-8"?>
<svg xmlns="http://www.w3.org/2000/svg" id="Layer_1" data-name="Layer 1" viewBox="0 0 24 24">
  <path d="m20.724,17.023l-3.392-14.696c-.315-1.37-1.518-2.326-2.923-2.326h-3.409v2h3.409c.469,0,.869.318.974.775l2.152,9.325-4.008,4.9H0v2h1.351c-.219.456-.351.961-.351,1.5,0,1.93,1.57,3.5,3.5,3.5s3.5-1.57,3.5-3.5c0-.539-.133-1.044-.351-1.5h6.825l3.63-4.436.671,2.909c-1.054.604-1.775,1.727-1.775,3.026,0,1.93,1.57,3.5,3.5,3.5s3.5-1.57,3.5-3.5c0-1.853-1.452-3.359-3.276-3.477Zm-14.724,3.477c0,.827-.673,1.5-1.5,1.5s-1.5-.673-1.5-1.5.673-1.5,1.5-1.5,1.5.673,1.5,1.5Zm14.5,1.5c-.827,0-1.5-.673-1.5-1.5s.673-1.5,1.5-1.5,1.5.673,1.5,1.5-.673,1.5-1.5,1.5Z"/>
</svg>
