<?xml version="1.0" encoding="UTF-8"?>
<svg xmlns="http://www.w3.org/2000/svg" id="Layer_1" data-name="Layer 1" viewBox="0 0 24 24">
  <path d="m20.976,19.05l.192.315-.339,2.111c-.235,1.462-1.48,2.524-2.962,2.524h-4.867v-2h4.867c.494,0,.909-.354.987-.841l.223-1.385c-.534-.897-1.104-1.961-1.175-2.516-.14-1.106-.662-1.792-1.747-2.295-.059-.027-1.905-.963-2.604-.963-.798,0-1.256.22-1.261.222-3.243,1.909-6.29,4.437-6.29,9.778h-2c0-6.4,3.916-9.523,7.327-11.529.061-.033.292-.152.673-.262v-.209c0-1.657,1.343-3,3-3v3.271c.726.237,1.996.878,1.996.878,1.693.784,2.666,2.083,2.891,3.858.062.245.626,1.285,1.089,2.043Zm.297-13.05c-.829,0-1.609-.365-2.14-1.002l-.229-.275c-.912-1.094-2.251-1.722-3.676-1.722h-1.227V0c-1.657,0-3,1.343-3,3v.706l-4.046,6.294H0v2h8.046l4.5-7h2.681c.829,0,1.609.365,2.14,1.002l.229.275c.912,1.094,2.251,1.722,3.676,1.722h.727v2c0,1.103-.897,2-2,2h-1.001c.762.52,1.385,1.158,1.858,1.902,1.794-.394,3.143-1.992,3.143-3.902v-4h-2.727Z"/>
</svg>
