<?xml version="1.0" encoding="UTF-8"?>
<svg xmlns="http://www.w3.org/2000/svg" id="Layer_1" data-name="Layer 1" viewBox="0 0 24 24">
  <path d="m24.058,5v5.289c-.564-.655-1.238-1.214-2-1.664v-3.625c0-.552-.448-1-1-1H3.058c-.551,0-1,.448-1,1v11h7.971c.044.687.17,1.358.382,2h-5.353v6h-2v-6H.058V5C.058,3.346,1.403,2,3.058,2V0h2v2h14V0h2v2c1.654,0,3,1.346,3,3Zm-3.656,5.006l-1.401-.613v4.107c0,.552-.448,1-1,1s-1-.448-1-1v-4.107l-1.401.613c-2.186.957-3.599,3.113-3.599,5.494,0,2.159,1.158,4.133,3,5.197v3.303h2v-4.57l-.6-.262c-1.458-.639-2.4-2.078-2.4-3.668,0-.991.368-1.924,1-2.641v.641c0,1.654,1.346,3,3,3s3-1.346,3-3v-.641c.632.717,1,1.649,1,2.641,0,1.59-.942,3.029-2.4,3.668l-.6.262v4.57h2v-3.303c1.842-1.064,3-3.038,3-5.197,0-2.381-1.413-4.537-3.599-5.494Z"/>
</svg>
