<?xml version="1.0" encoding="UTF-8"?>
<svg xmlns="http://www.w3.org/2000/svg" id="Layer_1" data-name="Layer 1" viewBox="0 0 24 24">
  <path d="M12.8,14h-1.6V6h1.6V14Zm-5.3,0c-1.381,0-2.5-1.119-2.5-2.5v-3c0-1.381,1.119-2.5,2.5-2.5s2.5,1.119,2.5,2.5v3c0,1.381-1.119,2.5-2.5,2.5Zm.9-5.5c0-.496-.404-.9-.9-.9s-.9,.404-.9,.9v3c0,.496,.404,.9,.9,.9s.9-.404,.9-.9v-3Zm5.6,3v-3c0-1.381,1.119-2.5,2.5-2.5s2.5,1.119,2.5,2.5v3c0,1.381-1.119,2.5-2.5,2.5s-2.5-1.119-2.5-2.5Zm1.6,0c0,.496,.404,.9,.9,.9s.9-.404,.9-.9v-3c0-.496-.404-.9-.9-.9s-.9,.404-.9,.9v3Zm8.4,3.5v3c0,1.654-1.346,3-3,3H3c-1.654,0-3-1.346-3-3v-3H2V3H22V15h2Zm-20,0h4.914l1,1h4.172l1-1h4.914V5H4V15Zm18,2h-6.086l-1,1h-5.828l-1-1H2v1c0,.551,.449,1,1,1H21c.551,0,1-.449,1-1v-1Z"/>
</svg>
