<?xml version="1.0" encoding="UTF-8"?>
<svg xmlns="http://www.w3.org/2000/svg" id="Layer_1" data-name="Layer 1" viewBox="0 0 24 24">
  <path d="M0,1.226S3.666-1.304,7.672,.905c1.533,.845,2.18,2.638,1.625,4.22,.171,.454,.305,.923,.403,1.388,.399-.424,.865-.81,1.399-1.136-.308-1.207,.205-2.516,1.344-3.153,3.161-1.768,6.557,.276,6.557,.276-.742,1.863-2.052,3.659-3.808,4.641-.957,.535-2.087,.441-2.939-.13-1.551,.879-2.253,2.492-2.253,2.989h-2c0-1.581-.162-2.73-.399-3.592-.306-.831-1.185-2.096-1.201-2.108l.007-.009c-1.669-2.01-3.907-2.291-3.907-2.291,2.179,2.49,3,3.5,3.471,5.484-.605,.008-1.218-.121-1.784-.433C1.961,5.824,1,3,0,1.226ZM23.235,13.016l-9.787,10.984H3c-1.654,0-3-1.346-3-3v-7c0-1.654,1.346-3,3-3H12.857c1.139,0,2.139,.609,2.689,1.519l3.217-3.534c.54-.595,1.281-.944,2.085-.981,.812-.039,1.574,.24,2.169,.782,1.214,1.107,1.312,3.005,.218,4.23Zm-1.565-2.752c-.199-.181-.457-.271-.728-.262-.27,.013-.519,.129-.699,.329l-4.427,4.864c-.385,1.07-1.339,1.891-2.514,2.059l-5.161,.737-.283-1.98,5.161-.737c.56-.079,.98-.565,.98-1.13,0-.63-.513-1.143-1.143-1.143H3c-.552,0-1,.448-1,1v7c0,.552,.448,1,1,1H12.552l9.19-10.316c.368-.412,.335-1.049-.072-1.421Z"/>
</svg>
