<?xml version="1.0" encoding="UTF-8"?>
<svg xmlns="http://www.w3.org/2000/svg" id="Layer_1" data-name="Layer 1" viewBox="0 0 24 24">
  <path d="m24,0v5h-5v-2h1.644c-.716-.633-1.643-1-2.644-1-1.859,0-3.411,1.28-3.858,3h-2.052c.478-2.833,2.942-5,5.91-5,1.518,0,2.922.564,4,1.534V0h2Zm-6,10c-.994,0-1.929-.368-2.646-1h1.646v-2h-5v5h2v-1.531c1.08.966,2.494,1.531,4,1.531,2.967,0,5.431-2.167,5.91-5h-2.052c-.447,1.72-1.999,3-3.858,3Zm-3,3.413c.631.256,1.301.431,2,.518v5.855c0,2.767-4.276,4.214-8.5,4.214S0,22.553,0,19.786V4.5c0-.192.127-.786.127-.786C.791,1.551,4.164,0,8.5,0c1.368,0,2.635.159,3.757.438-.51.526-.951,1.12-1.302,1.77-.738-.129-1.558-.208-2.455-.208-3.968,0-6.5,1.48-6.5,2.5s2.532,2.5,6.5,2.5c.528,0,1.025-.031,1.5-.079v2.004c-.486.044-.982.075-1.5.075-2.665,0-4.965-.588-6.5-1.541v2.041c0,1.02,2.532,2.5,6.5,2.5.527,0,1.026-.028,1.5-.075v2.007c-.486.042-.984.069-1.5.069-2.665,0-4.965-.588-6.5-1.541v2.041c0,1.02,2.532,2.5,6.5,2.5s6.5-1.48,6.5-2.5v-1.087Zm0,6.373v-2.327c-1.535.954-3.835,1.541-6.5,1.541s-4.965-.588-6.5-1.541v2.327c0,.751,2.294,2.214,6.5,2.214s6.5-1.463,6.5-2.214Z"/>
</svg>
