<?xml version="1.0" encoding="UTF-8"?>
<svg xmlns="http://www.w3.org/2000/svg" id="Layer_1" data-name="Layer 1" viewBox="0 0 24 24">
  <path d="m24,16.5c0,3.032-2.467,5.5-5.5,5.5-.564,0-1.12-.088-1.66-.263-.433.318-.908.562-1.399.763l-1.019-1.746c.573-.193,1.11-.49,1.571-.902l.485-.433.593.268c.462.208.943.313,1.43.313,1.93,0,3.5-1.57,3.5-3.5s-1.57-3.5-3.5-3.5c-.487,0-.968.105-1.43.313l-.593.268-.485-.433c-.828-.741-1.891-1.148-2.993-1.148-1.157,0-2.203.451-3.001,1.171l-1.028-1.762c1.109-.879,2.507-1.409,4.029-1.409,1.385,0,2.727.444,3.84,1.263.54-.175,1.096-.263,1.66-.263,3.033,0,5.5,2.468,5.5,5.5ZM3.495,14.038l1.028-1.762c-1.464-.511-2.523-1.891-2.523-3.527,0-2.065,1.678-3.746,3.75-3.746h.007c.065.009.871.059.871.059l.287-.61c.701-1.489,2.206-2.452,3.835-2.452,1.157,0,2.242.464,3.054,1.308l.587.609.698-.479c.418-.287.906-.438,1.41-.438,1.228,0,2.286.923,2.46,2.146l.123.858h.867l.109-.004c1.075.031,1.94.916,1.94,1.999,0,.62-.289,1.168-.734,1.535.645.257,1.244.602,1.787,1.019.582-.695.947-1.578.947-2.554,0-1.948-1.401-3.576-3.248-3.929-.604-1.797-2.31-3.071-4.252-3.071-.637,0-1.258.134-1.831.39-1.109-.901-2.475-1.39-3.919-1.39-2.176,0-4.201,1.162-5.326,3.009-3.02.17-5.424,2.681-5.424,5.741,0,2.371,1.443,4.41,3.495,5.288Zm3.505-2.039l7,12H0l7-12Zm1,9h-2v2h2v-2Zm0-5h-2v4h2v-4Z"/>
</svg>
