<?xml version="1.0" encoding="UTF-8"?>
<svg xmlns="http://www.w3.org/2000/svg" id="Layer_1" data-name="Layer 1" viewBox="0 0 24 24">
  <path d="m24.01,22.631c-.76.87-1.856,1.369-3.01,1.369-1.201,0-2.266-.542-3-1.382-.734.84-1.799,1.382-3,1.382s-2.266-.542-3-1.382c-.734.84-1.8,1.382-3,1.382s-2.266-.542-3-1.382c-.734.84-1.8,1.382-3,1.382-1.153,0-2.25-.499-3.009-1.368l1.506-1.316c.38.436.928.685,1.503.685,1.103,0,2-.897,2-2h2c0,1.103.897,2,2,2s2-.897,2-2h2c0,1.103.897,2,2,2s2-.897,2-2h2c0,1.103.897,2,2,2,.575,0,1.123-.249,1.502-.684l1.508,1.314ZM7,14v-3c0-4.708,3.633-8.583,8.243-8.968-2.502,1.456-4.243,4.292-4.243,7.468,0,5.163,2.552,8.5,6.5,8.5,1.398,0,2.59-.631,3.401-1.502.734.909,1.843,1.502,3.099,1.502v-2c-1.103,0-2-.897-2-2h-2c0,.806-1.05,2-2.5,2-2.817,0-4.5-2.43-4.5-6.5,0-3.139,2.411-6.5,6-6.5.542,0,1.069.124,1.558.257l.777.167.869-1.559-.876-.486c-1.625-.902-3.468-1.379-5.328-1.379C9.935,0,5,4.935,5,11v3c0,1.103-.897,2-2,2-.575,0-1.123-.249-1.503-.685L-.009,16.632c.759.869,1.856,1.368,3.009,1.368,2.206,0,4-1.794,4-4Z"/>
</svg>
