<?xml version="1.0" encoding="UTF-8"?>
<svg xmlns="http://www.w3.org/2000/svg" id="Layer_1" data-name="Layer 1" viewBox="0 0 24 24">
  <path d="m24.021,12l-3.521,3.521v4.979h-4.979l-3.521,3.521-3.521-3.521H3.5v-4.979L-.021,12l3.521-3.521V3.5h4.979L12-.021l3.521,3.521h3.733l-2.016,2h-2.545l-2.692-2.692-2.692,2.692h-3.808v3.808l-2.692,2.692,2.692,2.692v3.808h3.808l2.692,2.692,2.692-2.692h3.808v-3.808l2.692-2.692-.99-.99,1.419-1.409,2.399,2.399Zm-12.472,1.962l9.747-9.672,1.408,1.42-9.808,9.732c-.355.357-.835.557-1.346.558h0c-.511,0-.99-.199-1.352-.562l-3.899-3.84,1.402-1.425,3.848,3.789Zm.057.056l.002.002.003-.002h-.005Z"/>
</svg>
