<?xml version="1.0" encoding="UTF-8"?>
<svg xmlns="http://www.w3.org/2000/svg" id="Layer_1" data-name="Layer 1" viewBox="0 0 24 24">
  <path d="m23.048,9.703L14.292.948c-1.266-1.266-3.325-1.266-4.591,0L.946,9.703C.333,10.316-.004,11.131-.004,11.998c0,.867.337,1.683.951,2.295l8.755,8.756c.633.633,1.464.949,2.295.949s1.663-.316,2.296-.949l8.756-8.755c.613-.613.95-1.429.95-2.296s-.338-1.682-.951-2.295Zm-1.414,3.177l-8.755,8.755c-.487.487-1.277.485-1.763,0L2.361,12.879c-.235-.235-.365-.548-.365-.88s.129-.646.365-.882L11.116,2.362c.243-.243.562-.364.881-.364s.638.122.881.364l8.755,8.755c.235.235.365.548.365.881s-.129.646-.365.881Zm-7.66-6.517l-.047-.125c-.349-.764-1.088-1.239-1.928-1.239s-1.579.475-1.928,1.239l-2.312,7.75h-.761v2h10v-2h-.759l-2.265-7.626Zm-1.885.674l.848,2.963h-1.876l.849-2.963c.031-.038.147-.038.179,0Zm-2.241,6.952l.605-1.989h3.092l.605,1.989h-4.302Z"/>
</svg>
