<?xml version="1.0" encoding="UTF-8"?>
<svg xmlns="http://www.w3.org/2000/svg" id="Layer_1" data-name="Layer 1" viewBox="0 0 24 24">
  <path d="m10.689,9.963l-.148.799.024.01h0c-.433,1.098-.732,2.186-.97,3.228h2.061c.201-.82.434-1.647.756-2.469h0s2.457-.428,2.457-.428c1.535-.424,3.023-1.195,4.305-2.229,2.914-2.355,4.125-5.76,4.587-7.58l.294-1.246h-1.286c-1.752,0-5.121.347-7.995,2.667-2.8,2.261-3.761,5.511-4.084,7.248Zm5.34-5.692c1.791-1.446,3.839-1.972,5.39-2.146-.571,1.6-1.622,3.674-3.502,5.193-1.069.863-2.308,1.505-3.484,1.836l-.04.007c1.132-1.342,2.534-2.982,3.607-4.161-1.824.81-3.404,1.939-4.655,2.998.514-1.257,1.34-2.64,2.684-3.726Zm3.971,6.47c-.637.476-1.299.91-2,1.268v4.99h-8v3.5c0,.827-.673,1.5-1.5,1.5s-1.5-.673-1.5-1.5V3.5c0-.539-.133-1.044-.351-1.5h5.941c.29-.288.594-.571.927-.84.564-.456,1.144-.826,1.726-1.16H3.5C1.57,0,0,1.57,0,3.5v3.5h5v13.5c0,1.93,1.57,3.5,3.5,3.5h12c1.93,0,3.5-1.57,3.5-3.5v-3.5h-4v-6.258ZM5,5h-3v-1.5c0-.827.673-1.5,1.5-1.5s1.5.673,1.5,1.5v1.5Zm17,14v1.5c0,.827-.673,1.5-1.5,1.5h-8.838c.217-.455.338-.963.338-1.5v-1.5h10Z"/>
</svg>
