<?xml version="1.0" encoding="UTF-8"?>
<svg xmlns="http://www.w3.org/2000/svg" id="Layer_1" data-name="Layer 1" viewBox="0 0 24 24">
  <path d="m21,4h-2v-1c0-1.654-1.346-3-3-3H3C1.346,0,0,1.346,0,3v14.855c0,.794.435,1.52,1.135,1.894.318.17.666.254,1.013.254.417,0,.832-.121,1.191-.361l2.661-1.774v3.132h10.697l3.963,2.642c.36.24.775.361,1.192.361.347,0,.695-.084,1.013-.254.7-.375,1.135-1.1,1.135-1.894V7c0-1.654-1.346-3-3-3ZM2.229,17.978c-.018.012-.074.049-.151.007-.078-.042-.078-.108-.078-.13V3c0-.551.449-1,1-1h13c.551,0,1,.449,1,1v12H6.697l-4.468,2.978Zm19.771,3.877c0,.022,0,.089-.078.13-.079.042-.134.005-.152-.007l-4.467-2.978h-9.303v-2h11V6h2c.551,0,1,.449,1,1v14.855Zm-7-10.315v-5.253c0-.724-.332-1.389-.909-1.825-.579-.436-1.308-.57-2.005-.373l-1.928.551c-.239.068-.46.174-.658.309-.198-.135-.419-.241-.658-.309l-1.928-.551c-.696-.198-1.426-.063-2.005.373-.578.436-.909,1.101-.909,1.825v5.253l5.5,1.571,5.5-1.571Zm-4.5-4.703c0-.127.085-.24.207-.275l1.929-.551c.029-.008.056-.012.081-.012.079,0,.138.034.17.058.042.032.114.104.114.229v3.745l-2.5.714v-3.908Zm-2,3.908l-2.5-.714v-3.745c0-.124.071-.196.114-.229.042-.031.131-.08.25-.046l1.929.551c.122.035.207.148.207.275v3.908Z"/>
</svg>
