<?xml version="1.0" encoding="UTF-8"?>
<svg xmlns="http://www.w3.org/2000/svg" id="Layer_1" data-name="Layer 1" viewBox="0 0 24 24">
  <path d="M19.027,7.533c.606-.563,.973-1.358,.973-2.212,0-1.028-.515-1.976-1.377-2.535-.864-.56-1.937-.642-2.867-.229l-.682,.296c-.055-.959-.542-1.836-1.355-2.363-.863-.56-1.937-.643-2.867-.229L5.791,2.458c-1.088,.485-1.791,1.569-1.791,2.76,0,.853,.37,1.637,.983,2.203-.613,.563-.983,1.363-.983,2.222,0,.848,.365,1.629,.973,2.195-.606,.563-.973,1.358-.973,2.212s.37,1.637,.983,2.203c-.613,.563-.983,1.363-.983,2.222,0,1.028,.515,1.976,1.377,2.535,.499,.324,1.069,.488,1.644,.488,.416,0,.833-.086,1.228-.261l.752-.326v3.089h6v-4h2v-2.562l1.209-.525c1.088-.485,1.791-1.569,1.791-2.76,0-.853-.37-1.637-.983-2.203,.613-.563,.983-1.363,.983-2.222,0-.848-.365-1.629-.973-2.195ZM6.597,4.288l5.061-2.197c.137-.061,.278-.091,.419-.091,.192,0,.383,.056,.554,.167,.296,.192,.466,.504,.466,.857,0,.403-.238,.77-.597,.93l-5.052,2.192-.009,.004c-.324,.144-.677,.116-.973-.076s-.466-.504-.466-.857c0-.403,.238-.769,.597-.929Zm6.403,17.712l-2,.026v-2.026h1.998l.002,2Zm4.403-6.917l-9.956,4.322-.009,.004c-.324,.144-.677,.116-.973-.076s-.466-.504-.466-.857c0-.403,.238-.769,.597-.929l9.965-4.327c.137-.061,.278-.091,.419-.091,.192,0,.383,.056,.554,.167,.296,.192,.466,.504,.466,.857,0,.403-.238,.769-.597,.929Zm0-4.426L7.447,14.979l-.009,.004c-.324,.143-.677,.115-.973-.076-.296-.192-.466-.504-.466-.857,0-.403,.238-.769,.597-.929l9.974-4.329c.134-.058,.273-.089,.41-.089,.192,0,.383,.056,.554,.167,.296,.192,.466,.504,.466,.857,0,.403-.238,.769-.597,.929Zm0-4.407L7.423,10.581c-.32,.136-.666,.108-.958-.081-.296-.192-.466-.504-.466-.857,0-.403,.238-.769,.597-.929l9.965-4.327c.137-.061,.278-.091,.419-.091,.192,0,.383,.056,.554,.167,.296,.192,.466,.504,.466,.857,0,.403-.238,.769-.597,.929Z"/>
</svg>
