<?xml version="1.0" encoding="UTF-8"?>
<svg xmlns="http://www.w3.org/2000/svg" id="Layer_1" data-name="Layer 1" viewBox="0 0 24 24">
  <path d="M24,12.649c0-.538-.086-1.07-.257-1.581l-1.339-4.017c-.409-1.227-1.553-2.051-2.846-2.051h-3.559v6H0v8.5c0,1.93,1.57,3.5,3.5,3.5,.98,0,1.864-.407,2.5-1.058,.636,.651,1.52,1.058,2.5,1.058,1.93,0,3.5-1.57,3.5-3.5v-.5h4v.5c0,1.93,1.57,3.5,3.5,3.5s3.5-1.57,3.5-3.5v-.5h1v-6.351Zm-6,4.351v-4h4v4h-4Zm1.559-10c.431,0,.812,.275,.949,.684l1.105,3.316h-3.612V7h1.559Zm-3.559,6v4H2v-4h14ZM3.5,21c-.827,0-1.5-.673-1.5-1.5v-.5h3v.5c0,.827-.673,1.5-1.5,1.5Zm6.5-1.5c0,.827-.673,1.5-1.5,1.5s-1.5-.673-1.5-1.5v-.5h3v.5Zm11,0c0,.827-.673,1.5-1.5,1.5s-1.5-.673-1.5-1.5v-.5h3v.5ZM14,7h-2V3h2V1H0V3H2V7H0v2H14v-2Zm-4,0h-2V3h2V7ZM4,3h2V7h-2V3Z"/>
</svg>
