<?xml version="1.0" encoding="UTF-8"?>
<svg xmlns="http://www.w3.org/2000/svg" id="Layer_1" data-name="Layer 1" viewBox="0 0 24 24">
  <path d="m12,5c-3.739,0-7.255,1.457-9.899,4.101l-1.414-1.414C3.708,4.665,7.727,3,12,3c3.256,0,6.359.971,8.99,2.767l-1.446,1.446c-2.233-1.435-4.827-2.213-7.544-2.213Zm2.347,7.41l1.527-1.527c-1.196-.572-2.51-.883-3.874-.883-2.404,0-4.664.936-6.364,2.636l1.414,1.414c1.322-1.322,3.08-2.05,4.95-2.05.813,0,1.603.146,2.347.41Zm9.617-3.96l-1.414-1.414-10.038,10.038c-.164-.044-.334-.074-.512-.074-1.105,0-2,.895-2,2s.895,2,2,2,2-.895,2-2c0-.178-.031-.347-.074-.512l10.038-10.038Z"/>
</svg>
