<?xml version="1.0" encoding="UTF-8"?>
<svg xmlns="http://www.w3.org/2000/svg" id="Layer_1" data-name="Layer 1" viewBox="0 0 24 24">
  <path d="m24,10.074v1.076L12.674,2.233c-.397-.312-.952-.311-1.348,0L2.421,9.209c-.264.207-.421.53-.421.865v11.926h11v2H0v-13.926c0-.958.433-1.847,1.187-2.439L10.092.659c1.123-.881,2.693-.881,3.816,0l8.905,6.977c.754.592,1.187,1.48,1.187,2.439Zm-2,11.926h-3v2h5v-8.243l-2,1.01v5.233Zm1.915-8.441l-6.915,3.494v6.947h-2v-12.999c0-.698.354-1.334.948-1.702.594-.366,1.32-.399,1.946-.087l6.021,4.347Zm-6.915,1.253l3.085-1.559-3.085-2.235v3.794Z"/>
</svg>
