<?xml version="1.0" encoding="UTF-8"?>
<svg xmlns="http://www.w3.org/2000/svg" id="Layer_1" data-name="Layer 1" viewBox="0 0 24 24">
  <path d="M9,22c0,1.105-.895,2-2,2s-2-.895-2-2,.895-2,2-2,2,.895,2,2Zm8-2c-1.105,0-2,.895-2,2s.895,2,2,2,2-.895,2-2-.895-2-2-2ZM5.419,13l-.941-8h5.591c.087-.699,.262-1.369,.518-2H4.242l-.041-.351c-.178-1.511-1.459-2.649-2.979-2.649H0V2H1.222c.507,0,.934,.38,.993,.884l1.584,13.467c.178,1.511,1.459,2.649,2.979,2.649h13.222v-2H6.778c-.507,0-.934-.38-.993-.884l-.131-1.116H21.835l.363-2H5.419ZM24,6c0,3.309-2.691,6-6,6s-6-2.691-6-6S14.691,0,18,0s6,2.691,6,6Zm-2,0c0-2.206-1.794-4-4-4s-4,1.794-4,4,1.794,4,4,4,4-1.794,4-4Zm-3-3h-2v3.414l2.293,2.293,1.414-1.414-1.707-1.707V3Z"/>
</svg>
