<?xml version="1.0" encoding="UTF-8"?>
<svg xmlns="http://www.w3.org/2000/svg" id="Layer_1" data-name="Layer 1" viewBox="0 0 24 24">
  <path d="M14,12c0,1.019-.308,1.964-.832,2.754l-3.168-3.168V7.101c2.282,.463,4,2.48,4,4.899Zm-6-4.899c-2.282,.463-4,2.48-4,4.899,0,2.761,2.239,5,5,5,1.019,0,1.964-.308,2.754-.832l-3.754-3.754V7.101Zm8,1.899h4v-2h-4v2Zm0,4h4v-2h-4v2Zm0,4h4v-2h-4v2ZM24,6v15H0V6c0-1.654,1.346-3,3-3H21c1.654,0,3,1.346,3,3Zm-2,0c0-.551-.448-1-1-1H3c-.552,0-1,.449-1,1v13H22V6Z"/>
</svg>
