<?xml version="1.0" encoding="UTF-8"?>
<svg xmlns="http://www.w3.org/2000/svg" id="Layer_1" data-name="Layer 1" viewBox="0 0 24 24">
  <path d="m14.173,15.664c.275-.381.441-.844.441-1.349,0-1.106-.803-2.022-1.84-2.252l-.002-1.063h-1.6l-.007,1h-1.665v8h1.7v1h1.6v-1l.231-.029c1.237-.146,2.2-1.187,2.2-2.463,0-.734-.481-1.507-1.058-1.843Zm-3.173-2.065h1.298c.394,0,.715.321.715.715,0,.367-.282.66-.639.7h-1.374v-1.415Zm1.738,4.8h-1.738l-.013-1.785h1.752c.492,0,.893.4.893.892s-.4.893-.893.893Zm.256-10.331l-.015-5.084,3.295,3.229,1.4-1.428L13.389.586c-.779-.779-2.049-.779-2.828,0l-4.25,4.25,1.414,1.414,3.255-3.245.015,5.065c-3.937.497-6.994,3.86-6.994,7.93,0,4.411,3.589,8,8,8s8-3.589,8-8c0-4.074-3.063-7.439-7.006-7.931Zm-.994,13.931c-3.309,0-6-2.691-6-6s2.691-6,6-6,6,2.691,6,6-2.691,6-6,6Z"/>
</svg>
