<?xml version="1.0" encoding="UTF-8"?>
<svg xmlns="http://www.w3.org/2000/svg" id="Layer_1" data-name="Layer 1" viewBox="0 0 24 24">
  <path d="m10.5,7c0-.828.672-1.5,1.5-1.5s1.5.672,1.5,1.5-.672,1.5-1.5,1.5-1.5-.672-1.5-1.5Zm-5.064,2.627l1.384-.797c-.203-.574-.32-1.188-.32-1.83s.116-1.257.32-1.83l-1.384-.797.998-1.733,1.385.798c.803-.941,1.917-1.608,3.182-1.841V0h2v1.596c1.265.234,2.378.9,3.182,1.841l1.385-.798.998,1.733-1.384.797c.203.574.32,1.188.32,1.83s-.116,1.257-.32,1.83l1.384.797-.998,1.733-1.385-.798c-.803.941-1.917,1.608-3.182,1.841v1.596h-2v-1.596c-1.265-.234-2.378-.9-3.182-1.841l-1.385.798-.998-1.733Zm3.064-2.627c0,1.93,1.57,3.5,3.5,3.5s3.5-1.57,3.5-3.5-1.57-3.5-3.5-3.5-3.5,1.57-3.5,3.5Zm15.5,12v2c0,1.654-1.346,3-3,3H3c-1.654,0-3-1.346-3-3v-2c0-1.654,1.346-3,3-3h18c1.654,0,3,1.346,3,3Zm-21,3h11v-4H3c-.551,0-1,.449-1,1v2c0,.551.449,1,1,1Zm19-3c0-.551-.449-1-1-1h-5v4h5c.551,0,1-.449,1-1v-2Z"/>
</svg>
