<?xml version="1.0" encoding="UTF-8"?>
<svg xmlns="http://www.w3.org/2000/svg" id="Layer_1" data-name="Layer 1" viewBox="0 0 24 24">
  <path d="m9,22c0,1.105-.895,2-2,2s-2-.895-2-2,.895-2,2-2,2,.895,2,2Zm5.776-5h-6.998c-.507,0-.934-.38-.993-.883l-.131-1.117h7.897c.082-.732.32-1.417.711-2H6.419l-.941-8h16.113l-1.272,6.22c.69.213,1.314.572,1.819,1.064l1.857-9.284H5.242l-.041-.351c-.178-1.51-1.459-2.649-2.979-2.649H0v2h2.222c.507,0,.934.38.993.883l1.584,13.468c.178,1.51,1.459,2.649,2.979,2.649h5.247c.507-.67,1.169-1.213,1.944-1.56-.07-.144-.139-.288-.193-.44Zm1.724-1.5c0,1.379,1.121,2.5,2.5,2.5s2.5-1.121,2.5-2.5-1.121-2.5-2.5-2.5-2.5,1.121-2.5,2.5Zm4.5,3.5h-4c-1.654,0-3,1.346-3,3v2h2v-2c0-.551.449-1,1-1h4c.551,0,1,.449,1,1v2h2v-2c0-1.654-1.346-3-3-3Z"/>
</svg>
