<?xml version="1.0" encoding="UTF-8"?>
<svg xmlns="http://www.w3.org/2000/svg" id="Layer_1" data-name="Layer 1" viewBox="0 0 24 24">
  <path d="m8,14h-2v-2c0-1.654,1.346-3,3-3h6c1.654,0,3,1.346,3,3v2h-2v-2c0-.551-.448-1-1-1h-6c-.551,0-1,.449-1,1v2Zm0-10c0-2.206,1.794-4,4-4s4,1.794,4,4-1.794,4-4,4-4-1.794-4-4Zm2,0c0,1.103.897,2,2,2s2-.897,2-2-.897-2-2-2-2,.897-2,2Zm2.331,12h-.648l-.784,3h-2.899v.615l2.212,1.231-.869,2.717.48.362,2.183-1.687,2.173,1.68.505-.349-.884-2.686,2.197-1.273v-.611h-2.883l-.784-3Zm-4.331.611v-.611h-2.883l-.784-3h-.648l-.784,3H.003v.615l2.212,1.231-.869,2.717.48.362,2.183-1.687,2.173,1.68.504-.349-.884-2.686,2.197-1.273Zm15.996-.611h-2.883l-.784-3h-.648l-.784,3h-2.899v.615l2.212,1.231-.869,2.717.48.362,2.183-1.687,2.173,1.68.505-.349-.884-2.686,2.197-1.273v-.611Z"/>
</svg>
