<?xml version="1.0" encoding="UTF-8"?>
<svg xmlns="http://www.w3.org/2000/svg" id="Layer_1" data-name="Layer 1" viewBox="0 0 24 24">
  <path d="m14,10c0-2.206-1.794-4-4-4s-4,1.794-4,4,1.794,4,4,4,4-1.794,4-4Zm-4,2c-1.103,0-2-.897-2-2s.897-2,2-2,2,.897,2,2-.897,2-2,2Zm11.5,2h-7c-1.378,0-2.5,1.121-2.5,2.5v7.5h12v-7.5c0-1.379-1.122-2.5-2.5-2.5Zm-1.086,2l-1.707,1.707c-.377.379-1.036.379-1.414,0l-1.707-1.707h4.828Zm-6.414,6v-4.758l1.878,1.879c.566.566,1.32.879,2.122.879s1.555-.312,2.121-.879l1.879-1.879v4.758h-8Zm-4-.811h0s0,2.796,0,2.796h0s-7.063-6.907-7.063-6.907c-.003-.003-.004-.007-.006-.009h-.001C-.971,13.172-.971,6.828,2.929,2.929,4.818,1.04,7.329,0,10,0s5.182,1.04,7.071,2.929c1.889,1.889,2.929,4.4,2.929,7.071,0,.68-.069,1.349-.201,2h-2.06c.166-.646.26-1.315.26-2,0-2.137-.832-4.146-2.343-5.657-1.511-1.511-3.52-2.343-5.657-2.343s-4.146.832-5.657,2.343c-3.119,3.119-3.119,8.194-.001,11.313l5.658,5.534Z"/>
</svg>
