<?xml version="1.0" encoding="UTF-8"?>
<svg xmlns="http://www.w3.org/2000/svg" id="Layer_1" data-name="Layer 1" viewBox="0 0 24 24">
  <path d="m23.018,8.785c-.595-.542-1.356-.82-2.169-.782-.804.037-1.545.386-2.085.981l-3.217,3.534c-.551-.91-1.55-1.519-2.689-1.519H3c-1.654,0-3,1.346-3,3v7c0,1.654,1.346,3,3,3h10.448l9.787-10.984c1.094-1.226.996-3.123-.218-4.23Zm-1.275,2.899l-9.19,10.316H3c-.551,0-1-.448-1-1v-7c0-.552.449-1,1-1h9.858c.629,0,1.142.513,1.142,1.143,0,.564-.421,1.051-.98,1.13l-5.161.737.283,1.98,5.161-.737c1.175-.168,2.129-.988,2.514-2.059l4.427-4.864c.181-.2.43-.316.699-.329.272-.008.529.082.728.262.407.372.44,1.009.072,1.421ZM14,0l-2.75,3-2.75-3-2.75,3L3,0v9h11V0Zm-2,7h-7v-2h1.63l1.87-2.04,1.87,2.04h1.63v2Z"/>
</svg>
