<?xml version="1.0" encoding="UTF-8"?>
<svg xmlns="http://www.w3.org/2000/svg" id="Layer_1" data-name="Layer 1" viewBox="0 0 24 24">
  <path d="M24,14.5c0,3.645-5.271,6.5-12,6.5S0,18.145,0,14.5c0-2.167,1.854-4.123,5-5.318v-.182c0-3.86,3.14-7,7-7,1.93,0,3.681,.786,4.948,2.054-.758,.1-1.46,.403-2.056,.883-.818-.585-1.813-.937-2.893-.937-2.757,0-5,2.243-5,5v2.598c.482,.421,1.899,1.362,4.844,1.396,.12,.16,.238,.321,.382,.464,.402,.402,.878,.712,1.397,.919,.069,.175,.167,.336,.26,.5-.57,.076-1.192,.123-1.883,.123-4.86,0-6.616-2.154-6.8-2.4l-.2-.267v-.976c-1.872,.855-3,2-3,3.143,0,2.128,4.107,4.5,10,4.5s10-2.372,10-4.5c0-.139-.024-.278-.057-.417,.299-.176,.583-.376,.832-.625,.279-.279,.493-.596,.677-.925,.348,.621,.549,1.278,.549,1.967ZM15.956,6.64c.853-.853,2.235-.853,3.088,0,.464,.464,.666,1.084,.626,1.691,.607-.041,1.227,.162,1.691,.626,.853,.853,.853,2.236,0,3.088-.464,.464-1.084,.666-1.691,.626,.041,.607-.162,1.227-.626,1.691-.853,.853-2.235,.853-3.088,0-.464-.464-.666-1.084-.626-1.691-.607,.041-1.227-.162-1.691-.626-.853-.853-.853-2.235,0-3.088,.464-.464,1.084-.666,1.691-.626-.041-.607,.162-1.227,.626-1.691Zm.044,3.86c0,.828,.672,1.5,1.5,1.5s1.5-.672,1.5-1.5-.672-1.5-1.5-1.5-1.5,.672-1.5,1.5Z"/>
</svg>
