<?xml version="1.0" encoding="UTF-8"?>
<svg xmlns="http://www.w3.org/2000/svg" id="Layer_1" data-name="Layer 1" viewBox="0 0 24 24">
  <path d="m23,14c-1.559,0-2.975.328-4.204.915-.425-2.246-1.511-4.378-3.089-5.956l-.707-.708-.707.708c-1.578,1.578-2.664,3.71-3.089,5.956-1.229-.587-2.645-.915-4.204-.915h-1v1c0,5.21,3.038,8.607,8,9h2c4.963-.393,8-3.79,8-9v-1h-1Zm-8-2.82c1.072,1.391,1.772,3.165,1.951,4.938-.799.69-1.461,1.526-1.951,2.491-.49-.965-1.152-1.801-1.951-2.491.179-1.773.879-3.547,1.951-4.938Zm-6.95,4.881c3.259.392,5.493,2.624,5.888,5.881-2.191-.239-5.448-1.365-5.888-5.881Zm8.013,5.881c.395-3.257,2.629-5.489,5.888-5.881-.439,4.516-3.697,5.642-5.888,5.881ZM4,4c0-1.105,2-4,2-4,0,0,2,2.895,2,4s-.895,2-2,2-2-.895-2-2Zm4.191,20H0v-13c0-1.654,1.346-3,3-3h6c1.013,0,1.907.508,2.45,1.279-.577.831-1.068,1.728-1.45,2.675v-.955c0-.551-.449-1-1-1H3c-.551,0-1,.449-1,1v11h4.137c.579.771,1.267,1.439,2.054,2Z"/>
</svg>
