<?xml version="1.0" encoding="UTF-8"?>
<svg xmlns="http://www.w3.org/2000/svg" id="Layer_1" data-name="Layer 1" viewBox="0 0 24 24">
  <path d="M24,10c0-2-1.5-4-4.144-4-.4,0-.803,.049-1.203,.136,.214-.563,.347-1.168,.347-1.836,0-2.371-1.794-4.3-3.999-4.3-1.153,0-2.237,.529-3,1.459-.763-.93-1.847-1.459-3-1.459-2.206,0-4.001,1.929-4.001,4.3,0,.668,.133,1.273,.347,1.836-.401-.087-.804-.137-1.205-.137C1.857,6,0,7.795,0,10.001c0,1.153,.513,2.237,1.413,2.999-.9,.763-1.413,1.847-1.413,3.001,0,2.205,1.857,3.999,4.142,3.999,2.507,0,5.115-1.903,6.798-3.422,.207,2.349,1.309,5.386,4.555,7.286l1.01-1.727c-2.782-1.628-3.457-4.138-3.575-5.792,1.768,1.549,4.599,3.655,6.927,3.655,2.285,0,4.144-1.794,4.144-3.999,0-1.154-.514-2.239-1.415-3.001,.901-.761,1.415-1.846,1.415-3Zm-12.76,3.441c-1.086,1.268-4.477,4.559-7.099,4.559-1.181,0-2.142-.897-2.142-2,0-.587,.281-1.144,.771-1.527l1.887-1.473-1.887-1.472c-.49-.383-.771-.94-.771-1.529,0-1.102,.961-1.999,2.142-1.999,2.506,0,5.739,2.982,7.11,4.572l.373,.418-.385,.451Zm-.713-4.428c-1.813-1.443-3.527-2.807-3.527-4.713,0-1.269,.897-2.3,2.001-2.3,.577,0,1.129,.293,1.514,.805l1.486,1.979,1.484-1.978c.386-.512,.938-.806,1.516-.806,1.103,0,1.999,1.032,1.999,2.3,0,1.907-1.713,3.27-3.526,4.714-.496,.395-1.003,.798-1.473,1.216-.47-.418-.977-.822-1.474-1.217Zm9.329,8.987c-2.225,0-5.905-3.322-7.136-4.602l-.361-.377,.398-.462c1.359-1.577,4.593-4.559,7.099-4.559,1.181,0,2.142,.897,2.142,1.999-.023,.558-.302,1.162-.771,1.528l-1.885,1.475,1.886,1.472c.491,.384,.772,.94,.772,1.527,0,1.103-.962,1.999-2.144,1.999Z"/>
</svg>
