<?xml version="1.0" encoding="UTF-8"?>
<svg xmlns="http://www.w3.org/2000/svg" id="Layer_1" data-name="Layer 1" viewBox="0 0 24 24">
  <path d="M24,12.649c0-.538-.086-1.07-.257-1.582l-1.339-4.017c-.409-1.227-1.553-2.051-2.846-2.051h-2.559v-1c0-1.654-1.346-3-3-3H3C1.346,1,0,2.346,0,4v1H2v-1c0-.552,.448-1,1-1H14c.552,0,1,.448,1,1v13H2v-2H0v4H2v.5c0,1.93,1.57,3.5,3.5,3.5s3.5-1.57,3.5-3.5v-.5h6v.5c0,1.93,1.57,3.5,3.5,3.5s3.5-1.57,3.5-3.5v-.5h2v-6.351Zm-4.441-5.649c.431,0,.812,.274,.949,.684l1.105,3.316h-4.613V7h2.559ZM7,19.5c0,.827-.673,1.5-1.5,1.5s-1.5-.673-1.5-1.5v-.5h3v.5Zm13,0c0,.827-.673,1.5-1.5,1.5s-1.5-.673-1.5-1.5v-.5h3v.5Zm-3-2.5v-4h5v4h-5ZM1.25,13H0V7H2.5v1.25H1.252l.005,1.252,1.243-.002v1.25l-1.25,.002v2.248Zm9.25-4.75h-1.248l.005,1.183,1.243-.002v1.25l-1.244,.002-.004,1.067h1.248v1.25h-2.5V7h2.5v1.25Zm3.5,0h-1.248l.005,1.183,1.243-.002v1.25l-1.244,.002-.004,1.067h1.248v1.25h-2.5V7h2.5v1.25Zm-9.012-1.25h-1.488v6h1.25v-2.027l.238-.003c.121,0,.238-.015,.353-.035l.601,2.066h1.308l-.807-2.652c.343-.356,.557-.835,.557-1.364,0-1.094-.902-1.985-2.012-1.985Zm0,2.72l-.231,.003-.005-1.473h.236c.413,0,.762,.336,.762,.735s-.349,.735-.762,.735Z"/>
</svg>
