<?xml version="1.0" encoding="UTF-8"?>
<svg xmlns="http://www.w3.org/2000/svg" id="Layer_1" data-name="Layer 1" viewBox="0 0 24 24">
  <path d="m12,10l-5.5-6L9,0h2.126l-1.126,3h4l-1.126-3h2.126l2.5,4-5.5,6,2.06-5h-4.121l2.06,5Zm9-7c-1.654,0-3,1.346-3,3v5.184c-.266-.094-.542-.164-.832-.18-.793-.042-1.567.227-2.173.769l-2.995,2.755-3.005-2.765c-.597-.534-1.374-.807-2.163-.76-.29.016-.566.086-.832.18v-5.184c0-1.654-1.346-3-3-3S0,4.346,0,6v12.231c0,.742.273,1.455.772,2.01l3.391,3.759h2.693l-4.599-5.098c-.166-.185-.258-.423-.258-.671V6c0-.551.448-1,1-1s1,.449,1,1v8c.005.693.258,1.393.746,1.973l2.616,2.721,1.441-1.387-2.571-2.67c-.316-.378-.307-.938.022-1.306.177-.198.421-.315.687-.33.263-.017.521.076.71.244l4.025,3.704c.205.189.323.458.323.736v6.314h2v-6.314c0-.633-.204-1.247-.57-1.755l2.909-2.677c.198-.178.455-.271.72-.253.266.015.51.132.688.331.159.178.24.448.254.668.003.217-.057.429-.188.586l-2.533,2.634,1.441,1.387,2.578-2.685c.465-.553.692-1.238.693-1.922h.008V6c0-.551.448-1,1-1s1,.449,1,1v12.231c0,.248-.092.486-.258.671l-4.599,5.098h2.693l3.391-3.759c.499-.555.772-1.268.772-2.01V6c0-1.654-1.346-3-3-3Z"/>
</svg>
