<?xml version="1.0" encoding="UTF-8"?>
<svg xmlns="http://www.w3.org/2000/svg" id="Layer_1" data-name="Layer 1" viewBox="0 0 24 24">
  <path d="m21.951,5.005c-1.192,0-2.265.078-3.231.212-.124-.394-.296-.794-.544-1.18l1.655-2.483-1.664-1.109-1.475,2.212c-.498-.281-1.058-.481-1.693-.576V0h-2v2.076c-.713.103-1.356.318-1.942.598l-1.443-2.287-1.691,1.066,1.456,2.309c-1.312,1.118-2.136,2.494-2.531,3.269C6.042,1.544,2.007.115,1.816.051l-.64,1.895c.142.05,3.232,1.203,3.744,5.747-1.736.995-2.921,2.959-2.921,5.216,0,5.074,4.232,9.456,10.533,10.904.545.125,1.055.188,1.535.188.609,0,1.17-.101,1.693-.303,3.112-1.206,4.739-5.54,4.738-9.198,0-2.347-.66-4.395-1.213-5.699-.255-.6-.113-.812-.066-.881.18-.269.909-.863,3.844-.915h.936v-2h-2.049Zm-10.475,3.394c-.815-.558-1.636-.933-2.441-1.158.812-1.296,2.446-3.241,4.965-3.241,1.021,0,1.787.275,2.277.817.213.236.364.509.473.786-2.845.726-4.459,1.956-5.274,2.796Zm3.563,13.434c-.554.213-1.226.222-2.06.031-5.287-1.215-8.98-4.897-8.98-8.955,0-2.156,1.57-3.909,3.5-3.909.901,0,1.949.429,3,1.178-.077,1.161-.619,3.766-3.839,5.17.312.576.729,1.125,1.234,1.635,3.439-1.699,4.497-4.713,4.611-6.698l.005-.009c.014-.024,1.127-1.809,4.713-2.731-.139.521-.135,1.197.221,2.037.48,1.134,1.054,2.907,1.055,4.919,0,3.415-1.487,6.567-3.46,7.332Z"/>
</svg>
