<?xml version="1.0" encoding="UTF-8"?>
<svg xmlns="http://www.w3.org/2000/svg" id="Layer_1" data-name="Layer 1" viewBox="0 0 24 24">
  <path d="m22.281,19.313l1.417.816-.999,1.732-1.41-.813c-.605.652-1.393,1.126-2.289,1.331v1.621h-2v-1.621c-.896-.205-1.685-.678-2.289-1.331l-1.41.813-.999-1.732,1.417-.816c-.129-.418-.218-.853-.218-1.312s.089-.895.218-1.312l-1.417-.816.999-1.732,1.41.813c.605-.652,1.393-1.126,2.289-1.331v-1.621h2v1.621c.896.205,1.685.678,2.289,1.331l1.41-.813.999,1.732-1.417.816c.129.418.218.853.218,1.312s-.089.895-.218,1.312Zm-1.782-1.312c0-1.379-1.122-2.5-2.5-2.5s-2.5,1.121-2.5,2.5,1.122,2.5,2.5,2.5,2.5-1.121,2.5-2.5Zm-11.178-6.986c-1.08.077-1.894,1.015-1.817,2.096.015.182.073.535.135.89h-1.64c-.551,0-1-.448-1-1v-7c0-.552.449-1,1-1h7c.551,0,1,.448,1,1v5.079s0,0,0,0c.619-.359,1.29-.634,2-.817,0,0,0,0,0,0v-4.262c0-1.654-1.346-3-3-3h-1.661c.081-.519.162-1.051.161-1.083C11.478.835,10.703.043,9.321,0c-1.08.077-1.894,1.015-1.817,2.096.016.184.075.545.138.904h-1.643c-1.654,0-3,1.346-3,3v1.66c-.517-.081-1.045-.161-1.077-.16-1.083.021-1.943.917-1.922,2-.038,1.272,1.02,2.072,2.1,1.995.183-.015.541-.074.899-.137v1.643c0,1.654,1.346,3,3,3h4.262s0,0,0,0c.183-.71.458-1.381.817-2,0,0,0,0,0,0,.109-.189.223-.374.347-.553.042-.279.074-.496.074-.515-.021-1.083-.796-1.875-2.178-1.917Z"/>
</svg>
