<?xml version="1.0" encoding="UTF-8"?>
<svg xmlns="http://www.w3.org/2000/svg" id="Layer_1" data-name="Layer 1" viewBox="0 0 24 24">
  <path d="m24,12.5c0,2.46-1.186,4.693-3.097,6.075l-1.45-1.45c1.558-.992,2.547-2.709,2.547-4.625,0-2.688-1.919-4.967-4.563-5.419l-.587-.101-.191-.564c-.894-2.641-3.368-4.415-6.158-4.415-3.584,0-6.5,2.916-6.5,6.5,0,.614.085,1.22.253,1.801l.219.76-.688.389c-1.1.621-1.783,1.79-1.783,3.05,0,1.93,1.346,3.5,3,3.5h1v2h-1c-2.757,0-5-2.468-5-5.5,0-1.722.811-3.334,2.157-4.367-.104-.535-.157-1.082-.157-1.633C2,3.813,5.813,0,10.5,0c3.453,0,6.537,2.079,7.848,5.23,3.309.833,5.652,3.803,5.652,7.27Zm-7,8.5v-10h-2v10l-1.75-1.75-1.414,1.414,2.75,2.75c.39.39.902.585,1.414.585s1.024-.195,1.414-.585l2.75-2.75-1.414-1.414-1.75,1.75Zm-3.836-6.664l-2.75-2.75c-.779-.78-2.049-.78-2.828,0l-2.75,2.75,1.414,1.414,1.75-1.75v10h2v-10l1.75,1.75,1.414-1.414Z"/>
</svg>
