<?xml version="1.0" encoding="UTF-8"?>
<svg xmlns="http://www.w3.org/2000/svg" id="Layer_1" data-name="Layer 1" viewBox="0 0 24 24">
  <path d="M17.977,12c-3.314,0-5.977,2.686-5.977,6s2.664,6,5.977,6,6-2.686,6-6-2.686-6-6-6Zm1.149,9.8h-.326v1.128c-.261,.043-.526,.072-.8,.072s-.539-.03-.8-.073v-1.127h-.2c-1.201,0-2.189-.925-2.291-2.1h1.62c.086,.289,.354,.5,.671,.5h2.126c.316,0,.574-.257,.574-.574,0-.272-.194-.509-.462-.563l-2.791-.559c-1.013-.203-1.747-1.099-1.747-2.131,0-1.199,.975-2.173,2.173-2.173h.327v-1.2h1.6v1.2h.2c1.201,0,2.189,.925,2.291,2.1h-1.62c-.086-.289-.354-.5-.671-.5h-2.127c-.316,0-.573,.257-.573,.574,0,.272,.194,.509,.461,.562l2.792,.559c1.013,.202,1.747,1.099,1.747,2.131,0,1.199-.975,2.173-2.174,2.173ZM24,2V7h-2V3.414l-6.5,6.5L9.5,3.914,1.534,11.88,.12,10.466,9.5,1.086l6,6,5.086-5.086h-3.586V0h5c1.103,0,2,.897,2,2ZM0,16.172l2-2v9.828H0v-7.828Zm5-5l2-2v14.828h-2V11.172Zm7,1.549c-1.241,1.409-2,3.254-2,5.279V7.083l2,2v3.638Zm-2,5.279c0,2.026,.759,3.87,2,5.279v.721h-2v-6Z"/>
</svg>
