<?xml version="1.0" encoding="UTF-8"?>
<svg xmlns="http://www.w3.org/2000/svg" id="Layer_1" data-name="Layer 1" viewBox="0 0 24 24">
  <path d="m3,4h8v2H3c-.552,0-1,.448-1,1v10c0,.552.448,1,1,1h4.231v-3.24l3.493,3.574c.368.368.368.965,0,1.333l-3.493,3.574v-3.24H3c-1.654,0-3-1.346-3-3V7c0-1.654,1.346-3,3-3Zm16,14c1.379,0,2.5-1.121,2.5-2.5s-1.121-2.5-2.5-2.5-2.5,1.121-2.5,2.5,1.121,2.5,2.5,2.5Zm2,1h-4c-1.654,0-3,1.346-3,3v2h2v-2c0-.552.448-1,1-1h4c.552,0,1,.448,1,1v2h2v-2c0-1.654-1.346-3-3-3Zm-2-14c1.379,0,2.5-1.121,2.5-2.5s-1.121-2.5-2.5-2.5-2.5,1.121-2.5,2.5,1.121,2.5,2.5,2.5Zm2,1h-4c-1.654,0-3,1.346-3,3v2h2v-2c0-.552.448-1,1-1h4c.552,0,1,.448,1,1v2h2v-2c0-1.654-1.346-3-3-3Z"/>
</svg>
