<?xml version="1.0" encoding="UTF-8"?>
<svg xmlns="http://www.w3.org/2000/svg" id="Layer_1" data-name="Layer 1" viewBox="0 0 24 24">
  <path d="m8.272,7.518c1.114.929,2.378,1.982,4.053,1.982,1.97,0,3.65-1.249,4.337-3.005.79.499,1.529,1.241,2.209,2.356l1.707-1.041c-1.074-1.762-2.315-2.806-3.615-3.425C16.779,1.933,14.782-.01,12.325-.01,7.055-.01,4.711,4.351,4.614,4.536l-.767,1.464h1.652c.95,0,1.836.737,2.772,1.518ZM12.325,1.99c1.116,0,2.073.71,2.473,1.713-.946-.169-1.892-.203-2.798-.203v2c.982,0,1.922.036,2.813.238-.389,1.028-1.354,1.762-2.488,1.762-.95,0-1.836-.737-2.772-1.518-.708-.59-1.477-1.23-2.372-1.619.897-1.02,2.572-2.373,5.145-2.373Zm10.011,9.461l-.898-1.372-.808,1.428c-.519.916-1.545,1.494-2.631,2.105-1.218.686-2.598,1.463-3.391,2.864-.62,1.097-.773,2.368-.431,3.579.144.509.385.97.678,1.393-.805.335-1.741.551-2.856.551v2c1.787,0,3.265-.426,4.455-1.092.728.399,1.516.59,2.296.59,1.669,0,3.291-.869,4.162-2.409,2.63-4.647-.444-9.436-.577-9.637Zm-1.163,8.652c-.582,1.029-1.74,1.529-2.856,1.35.867-.918,1.444-1.971,1.742-2.96l-1.914-.578c-.262.866-.797,1.748-1.601,2.477-.197-.263-.351-.558-.443-.882-.195-.693-.108-1.421.247-2.049.519-.916,1.545-1.494,2.631-2.106.771-.433,1.605-.903,2.315-1.545.593,1.453,1.208,3.942-.122,6.293Zm-12.173.909c-.009-.633.113-1.286.242-1.978.241-1.295.515-2.763-.152-4.231-.533-1.176-1.489-2.067-2.69-2.511-.648-.239-1.324-.319-1.992-.267.284-.775.752-1.612,1.392-2.463l-1.598-1.202c-.847,1.126-1.836,2.767-2.061,4.461-1.912,1.288-2.684,3.821-1.696,5.997,2.252,4.961,7.793,5.174,8.027,5.181l1.669.047-.746-1.494c-.259-.518-.388-1.021-.395-1.54Zm-1.724-2.344c-.142.756-.287,1.539-.276,2.371.003.241.023.482.061.723-1.477-.375-3.688-1.332-4.795-3.771-.424-.935-.292-1.979.242-2.77.309.689.837,1.536,1.786,2.485l1.414-1.414c-.978-.978-1.363-1.762-1.516-2.23.19-.042.382-.063.575-.063.317,0,.635.057.94.169.696.257,1.252.777,1.563,1.462.406.894.221,1.888.007,3.038Z"/>
</svg>
