<?xml version="1.0" encoding="UTF-8"?>
<svg xmlns="http://www.w3.org/2000/svg" id="Layer_1" data-name="Layer 1" viewBox="0 0 24 24">
  <path d="m19.07,2.929c-1.889-1.889-4.399-2.929-7.07-2.929s-5.183,1.04-7.071,2.929c-3.899,3.899-3.899,10.243.008,14.149l7.063,6.909,7.07-6.917c1.89-1.889,2.93-4.4,2.93-7.071s-1.04-5.182-2.93-7.071Zm-1.406,12.72l-5.664,5.541-5.657-5.533c-1.511-1.511-2.343-3.52-2.343-5.657s.832-4.146,2.343-5.657,3.521-2.343,5.657-2.343,4.146.832,5.656,2.343c1.512,1.511,2.344,3.52,2.344,5.657s-.832,4.146-2.336,5.649ZM8.9,6h1.6v8h-1.6V6Zm5.6,0h-2.5v8h1.6v-3h.9c1.381,0,2.5-1.119,2.5-2.5s-1.119-2.5-2.5-2.5Zm0,3.4h-.9v-1.801h.9c.497,0,.9.403.9.9s-.403.9-.9.9Z"/>
</svg>
