<?xml version="1.0" encoding="UTF-8"?>
<svg xmlns="http://www.w3.org/2000/svg" id="Layer_1" data-name="Layer 1" viewBox="0 0 24 24">
  <path d="m15.302,9h1.971c.123.844.843,1.494,1.722,1.494s1.598-.65,1.722-1.494h1.981c.396,0,.765-.175,1.013-.481.247-.304.342-.699.261-1.084l-.796-3.79c-.478-2.282-2.039-3.645-4.176-3.645-2.157,0-3.678,1.327-4.175,3.64-.291,1.356-.646,3.066-.798,3.798-.08.384.016.778.263,1.082.249.305.617.48,1.012.48Zm1.479-4.941c.442-2.059,1.78-2.059,2.219-2.059.442,0,1.788,0,2.218,2.054l.619,2.946h-5.676c.176-.841.415-1.98.62-2.941Zm-2.582,12.203c-2.96-1.282-5.08-3.407-6.453-6.468l3.406-3.406L4.887.122,1.716,3.292C.61,4.397,0,5.891,0,7.5,0,14.748,9.252,24,16.5,24c1.609,0,3.104-.609,4.207-1.715l3.171-3.171-6.265-6.265-3.414,3.414Zm5.092,4.609c-.726.728-1.718,1.129-2.792,1.129-6.233,0-14.5-8.266-14.5-14.5,0-1.074.401-2.066,1.129-2.793l1.757-1.757,3.437,3.437-2.936,2.936.246.613c1.641,4.085,4.482,6.924,8.447,8.437l.605.231,2.927-2.927,3.437,3.437-1.758,1.758Z"/>
</svg>
