<?xml version="1.0" encoding="UTF-8"?>
<svg xmlns="http://www.w3.org/2000/svg" id="Layer_1" data-name="Layer 1" viewBox="0 0 24 24">
  <path d="m12,0C5.383,0,0,5.383,0,12s5.383,12,12,12,12-5.383,12-12S18.617,0,12,0Zm0,22c-5.514,0-10-4.486-10-10S6.486,2,12,2s10,4.486,10,10-4.486,10-10,10Zm4.7-14c-1.269,0-2.3,1.031-2.3,2.3v3.4c0,1.269,1.031,2.3,2.3,2.3s2.3-1.031,2.3-2.3v-3.4c0-1.269-1.031-2.3-2.3-2.3Zm.7,5.7c0,.386-.314.7-.7.7s-.7-.314-.7-.7v-3.4c0-.386.314-.7.7-.7s.7.314.7.7v3.4Zm-6-5.7h1.6v8h-1.6v-8Zm-1.4,2.3c0-1.269-1.031-2.3-2.3-2.3h-2.2v8h2.5c1.379,0,2.5-1.121,2.5-2.5,0-.768-.355-1.447-.901-1.906.252-.369.401-.814.401-1.294Zm-2.9-.7h.6c.386,0,.7.314.7.7s-.314.7-.7.7h-.6v-1.4Zm.9,4.8h-.9v-1.8h.9c.496,0,.9.404.9.9s-.404.9-.9.9Z"/>
</svg>
