<?xml version="1.0" encoding="UTF-8"?>
<svg xmlns="http://www.w3.org/2000/svg" id="Layer_1" data-name="Layer 1" viewBox="0 0 24 24">
  <path d="M24,3V1H0v2H3v3c-1.654,0-3,1.346-3,3v10.492c0,1.937,1.57,3.508,3.508,3.508,.116,0,.233-.006,.35-.018,.826-.083,1.561-.485,2.116-1.072,.77,.806,1.912,1.253,3.154,1.034,1.692-.299,2.871-1.862,2.871-3.581v-.364h4v.399c0,1.67,1.129,3.19,2.765,3.525,2.25,.461,4.235-1.255,4.235-3.425v-.5h1v-5.352c0-.537-.087-1.07-.256-1.58l-1.339-4.017c-.408-1.225-1.554-2.051-2.845-2.051h-.559v-.5c0-.828-.672-1.5-1.5-1.5s-1.5,.672-1.5,1.5v.5h-3V3h11Zm-6,5h1.559c.431,0,.812,.275,.949,.684l1.105,3.316h-3.613v-4Zm0,6h4v3h-4v-3Zm0,5h3v.5c0,.827-.673,1.5-1.5,1.5s-1.5-.673-1.5-1.5v-.5ZM9,3h2v3h-2V3Zm-4,0h2v3h-2V3Zm0,16.5c0,.828-.672,1.5-1.5,1.5s-1.5-.672-1.5-1.5v-.5h3v.5Zm5,0c0,.828-.672,1.5-1.5,1.5s-1.5-.672-1.5-1.5v-.5h3v.5Zm6-2.5H2v-3h14v3Zm0-9v4H2v-3c0-.551,.449-1,1-1h13Z"/>
</svg>
