<?xml version="1.0" encoding="UTF-8"?>
<svg xmlns="http://www.w3.org/2000/svg" id="Layer_1" data-name="Layer 1" viewBox="0 0 24 24">
  <path d="m5.5,7c1.93,0,3.5-1.57,3.5-3.5S7.43,0,5.5,0s-3.5,1.57-3.5,3.5,1.57,3.5,3.5,3.5Zm0-5c.827,0,1.5.673,1.5,1.5s-.673,1.5-1.5,1.5-1.5-.673-1.5-1.5.673-1.5,1.5-1.5Zm9,5c1.93,0,3.5-1.57,3.5-3.5s-1.57-3.5-3.5-3.5-3.5,1.57-3.5,3.5,1.57,3.5,3.5,3.5Zm0-5c.827,0,1.5.673,1.5,1.5s-.673,1.5-1.5,1.5-1.5-.673-1.5-1.5.673-1.5,1.5-1.5ZM4.713,10h-1.713c-.552,0-1,.448-1,1v3H0v-3c0-1.654,1.346-3,3-3h2.761c-.479.579-.837,1.259-1.047,2Zm12.287-2c1.654,0,3,1.346,3,3v3h-2v-3c0-.552-.448-1-1-1h-1.713c-.211-.741-.569-1.421-1.047-2h2.761Zm7,13.827l-1.378,1.378c-.539.539-1.249.795-1.957.795-3.634,0-8.665-4.752-8.665-8.665,0-.708.255-1.418.795-1.957l1.378-1.378,2.712,2.712-1.775,1.775c.882,2.195,2.376,3.63,4.403,4.403l1.775-1.775h0s2.712,2.713,2.712,2.713Zm-12.563-9.919c.037-.13.063-.265.063-.408,0-.827-.673-1.5-1.5-1.5s-1.5.673-1.5,1.5.673,1.5,1.5,1.5c.265,0,.51-.075.726-.196-.408.654-.639,1.402-.694,2.192-.011,0-.021.003-.032.003-1.93,0-3.5-1.57-3.5-3.5s1.57-3.5,3.5-3.5c1.442,0,2.682.878,3.218,2.127l-1.781,1.781Zm-1.389,4.092c.068.662.227,1.333.475,2h-3.522c-.551,0-1,.449-1,1v3h-2v-3c0-1.654,1.346-3,3-3h3.048Z"/>
</svg>
