<?xml version="1.0" encoding="UTF-8"?>
<svg xmlns="http://www.w3.org/2000/svg" id="Layer_1" data-name="Layer 1" viewBox="0 0 24 24">
  <path d="m20,8c2.206,0,4-1.794,4-4s-1.794-4-4-4-4,1.794-4,4,1.794,4,4,4Zm0-6c1.103,0,2,.897,2,2s-.897,2-2,2-2-.897-2-2,.897-2,2-2Zm3.272,14.247l-.005-.019s0,0,0-.001h0l-1.573-6.473c-.538.158-1.105.247-1.694.247-.104,0-.205-.01-.308-.016l1.637,6.735c.002.007.007.012.008.02h-.004c.082.308.021.615-.169.866-.192.255-.476.395-.796.395H3.493c-.305,0-.589-.137-.778-.371-.192-.24-.264-.548-.207-.812l2.352-9.117c.746-3.356,3.682-5.7,7.14-5.7.773,0,1.523.132,2.232.361.188-.661.484-1.275.872-1.821-.979-.348-2.025-.539-3.104-.539C7.598,0,3.859,2.988,2.916,7.233L.564,16.352c-.197.89.018,1.811.591,2.528.573.712,1.426,1.12,2.338,1.12h3.608c.465,2.279,2.484,4,4.899,4s4.434-1.721,4.899-4h3.47c.947,0,1.817-.433,2.39-1.186.556-.733.739-1.66.514-2.55-.001-.006,0-.011,0-.017Zm-11.272,5.753c-1.302,0-2.402-.839-2.816-2h5.631c-.414,1.161-1.514,2-2.816,2Z"/>
</svg>
