<?xml version="1.0" encoding="UTF-8"?>
<svg xmlns="http://www.w3.org/2000/svg" id="Layer_1" data-name="Layer 1" viewBox="0 0 24 24">
  <path d="m22.812,7.635L13.908.658c-1.123-.881-2.692-.879-3.815,0L1.188,7.635c-.755.591-1.188,1.479-1.188,2.439v13.926h24v-13.926c0-.96-.433-1.849-1.188-2.439Zm-.812,14.365H2v-11.926c0-.341.153-.655.421-.865L11.326,2.232c.396-.311.952-.311,1.349,0l8.905,6.977c.267.21.42.524.42.865v11.926Zm-8.5-4.5c0,.828-.672,1.5-1.5,1.5s-1.5-.672-1.5-1.5.672-1.5,1.5-1.5,1.5.672,1.5,1.5Zm2.036-4.035l-1.414,1.414c-1.17-1.17-3.073-1.17-4.243,0l-1.414-1.414c1.949-1.949,5.122-1.949,7.071,0Zm2.828-2.829l-1.414,1.414c-2.729-2.729-7.17-2.729-9.899,0l-1.414-1.414c3.509-3.51,9.219-3.51,12.728,0Z"/>
</svg>
