<?xml version="1.0" encoding="UTF-8"?>
<svg xmlns="http://www.w3.org/2000/svg" id="Layer_1" data-name="Layer 1" viewBox="0 0 24 24">
  <path d="m14,11.919v-4.919H3v4.919c0,1.917-.361,3.791-1.073,5.571l-1.927,4.817v1.692h17v-1.692l-1.927-4.817c-.712-1.781-1.073-3.655-1.073-5.571Zm-9-2.919h7v2.919c0,.362.028.721.051,1.081h-7.102c.023-.36.051-.718.051-1.081v-2.919Zm-2.723,13l1.507-3.768c.421-1.051.727-2.132.93-3.232h7.573c.203,1.1.509,2.181.929,3.232l1.507,3.768H2.277Zm19.796-4.51l1.927,4.817v1.692h-5v-2h2.723l-1.507-3.768c-.42-1.051-.727-2.132-.929-3.232h-3.286v-2h3.051c-.023-.36-.051-.719-.051-1.081v-2.919h-3v-2h5v4.919c0,1.916.361,3.79,1.073,5.571Zm-6.073-12.49h-2v-1.5c0-1.93,1.57-3.5,3.5-3.5.556,0,1.095.133,1.585.387.467-.177,1.176-.387,1.915-.387,1.654,0,3,1.346,3,3s-1.346,3-3,3v-2c.552,0,1-.448,1-1s-.448-1-1-1c-.612,0-1.324.291-1.547.403l-.558.28-.499-.375c-.187-.141-.493-.309-.896-.309-.827,0-1.5.673-1.5,1.5v1.5Zm-9,0h-2v-1.5c0-1.93,1.57-3.5,3.5-3.5.524,0,1.032.117,1.5.344.936-.453,2.064-.453,3,0,.001,0,.003,0,.004-.002-.384.545-.669,1.162-.835,1.827-.176-.092-.399-.17-.67-.17-.404,0-.71.168-.896.309l-.604.458-.604-.458c-.186-.141-.492-.309-.896-.309-.827,0-1.5.673-1.5,1.5v1.5Z"/>
</svg>
