<?xml version="1.0" encoding="UTF-8"?>
<svg xmlns="http://www.w3.org/2000/svg" id="Layer_1" data-name="Layer 1" viewBox="0 0 24 24">
  <path d="m8,11c2.757,0,5-2.243,5-5S10.757,1,8,1,3,3.243,3,6s2.243,5,5,5Zm0-8c1.654,0,3,1.346,3,3s-1.346,3-3,3-3-1.346-3-3,1.346-3,3-3Zm4,14h2v7h-2v-7Zm10.228-11l-.728,7-4.276,2H5.5c-.827,0-1.5.673-1.5,1.5v7.5h-2v-7.5c0-1.93,1.57-3.5,3.5-3.5h11.276l2.597-1.223-.601-5.777h3.455Zm.995-2.733c0,.662-.246,1.261-.639,1.733h-4.166c-.393-.472-.639-1.071-.639-1.733,0-.783.637-1.388,1.089-1.855,0,0-.141,1.588.441,1.588,1.233,0,.11-1.841,1.192-3,.86.86,2.722,1.69,2.722,3.267Z"/>
</svg>
