<?xml version="1.0" encoding="UTF-8"?>
<svg xmlns="http://www.w3.org/2000/svg" id="Layer_1" data-name="Layer 1" viewBox="0 0 24 24">
  <path d="m23.999,12.5c0,2.909-1.668,5.431-4.096,6.674.057-.384.096-.774.096-1.174,0-.405-.04-.799-.098-1.187,1.275-1.008,2.098-2.565,2.098-4.313,0-2.687-1.919-4.966-4.563-5.42l-.587-.101-.191-.564c-.894-2.641-3.369-4.415-6.159-4.415-3.584,0-6.5,2.916-6.5,6.5,0,.613.085,1.219.253,1.801l.219.76-.688.389c-1.1.621-1.784,1.79-1.784,3.051,0,1.523.844,2.809,2.011,3.289-.002.071-.011.14-.011.211,0,.667.091,1.311.244,1.93C1.845,19.527,0,17.249,0,14.5,0,12.778.81,11.165,2.156,10.133c-.104-.536-.157-1.082-.157-1.633C1.999,3.814,5.812,0,10.499,0,13.952,0,17.037,2.079,18.347,5.231c3.308.833,5.652,3.803,5.652,7.27Zm-6.301,3.371l-1.417.816c.129.418.218.853.218,1.312s-.089.895-.218,1.312l1.417.816-.999,1.732-1.41-.813c-.605.652-1.393,1.126-2.289,1.331v1.621h-2v-1.621c-.896-.205-1.685-.678-2.289-1.331l-1.41.813-.999-1.732,1.417-.816c-.129-.418-.218-.853-.218-1.312s.089-.895.218-1.312l-1.417-.816.999-1.732,1.41.813c.605-.652,1.393-1.126,2.289-1.331v-1.621h2v1.621c.896.205,1.685.678,2.289,1.331l1.41-.813.999,1.732Zm-3.199,2.129c0-1.379-1.122-2.5-2.5-2.5s-2.5,1.121-2.5,2.5,1.122,2.5,2.5,2.5,2.5-1.121,2.5-2.5Z"/>
</svg>
