<?xml version="1.0" encoding="UTF-8"?>
<svg xmlns="http://www.w3.org/2000/svg" id="Layer_1" data-name="Layer 1" viewBox="0 0 24 24">
  <path d="m24.115,23l-.652-6h-4.044l-.217-2h4.044l-.652-6h-4.044l-.217-2h4.043l-.652-6h-4.044l-.109-1h-2.012l.109,1h-7.336l.109-1h-2.012l-.109,1H2.276l-.652,6h4.043l-.217,2H1.407l-.652,6h4.044l-.217,2H.537L-.115,23H3.929l-.109,1h2.012l.109-1h12.119l.109,1h2.012l-.109-1h4.044Zm-2.447-4l.217,2h-2.031l-.217-2h2.032Zm-.87-8l.217,2h-2.031l-.217-2h2.031Zm-3.826,2H7.028l.217-2h9.51l.217,2Zm2.956-10l.217,2h-2.031l-.217-2h2.031Zm-4.043,0l.217,2H7.897l.217-2h7.771ZM3.854,5l.217-2h2.031l-.217,2h-2.031Zm3.826,2h8.641l.217,2H7.462l.217-2Zm-4.695,6l.217-2h2.031l-.217,2h-2.031Zm3.826,2h10.38l.217,2H6.593l.217-2Zm-4.695,6l.217-2h2.032l-.217,2h-2.031Zm4.043,0l.217-2h11.249l.217,2H6.158Z"/>
</svg>
