<?xml version="1.0" encoding="UTF-8"?>
<svg xmlns="http://www.w3.org/2000/svg" id="Layer_1" data-name="Layer 1" viewBox="0 0 24 24">
  <path d="M24,12c0,6.617-5.383,12-12,12-1.166,0-2.319-.167-3.428-.496l.569-1.918c.924,.274,1.886,.414,2.858,.414,5.514,0,10-4.486,10-10S17.514,2,12,2c-.973,0-1.934,.14-2.858,.414l-.569-1.918c1.109-.329,2.262-.496,3.428-.496,6.617,0,12,5.383,12,12Zm-13,6h2V8.889l2.892,2.826,1.397-1.43-3.718-3.634c-.84-.84-2.312-.832-3.134-.008l-3.726,3.642,1.397,1.43,2.892-2.825v9.111ZM2.892,4.187l1.518,1.303c.622-.725,1.344-1.356,2.146-1.879l-1.092-1.676c-.96,.626-1.825,1.383-2.571,2.252ZM.119,10.304l1.98,.279c.133-.939,.399-1.854,.792-2.718l-1.82-.828c-.472,1.038-.792,2.138-.952,3.267ZM.119,13.696c.16,1.129,.48,2.229,.952,3.267l1.82-.828c-.393-.864-.659-1.778-.792-2.718l-1.98,.279Zm4.299,4.824l-1.516,1.305c.744,.864,1.605,1.618,2.562,2.24l1.091-1.676c-.797-.52-1.516-1.148-2.137-1.869Z"/>
</svg>
