<?xml version="1.0" encoding="UTF-8"?>
<svg xmlns="http://www.w3.org/2000/svg" id="Layer_1" data-name="Layer 1" viewBox="0 0 24 24">
  <path d="M24,9v2h-3v-2h3Zm-21,0H0v2H3v-2Zm15.75,1.228c0,.86-.37,1.659-.983,2.222,.613,.567,.983,1.35,.983,2.203,0,1.176-.687,2.243-1.75,2.738v2.609h-2v4h-6v-3.132c-.272,.078-.548,.131-.826,.131-.574,0-1.145-.165-1.644-.488-.862-.56-1.377-1.507-1.377-2.535,0-.86,.37-1.66,.983-2.223-.613-.567-.983-1.35-.983-2.203s.366-1.65,.972-2.212c-.607-.566-.972-1.346-.972-2.194,0-.86,.37-1.659,.983-2.223-.613-.567-.983-1.35-.983-2.203,0-1.191,.703-2.274,1.791-2.76L10.747,.264c.937-.419,2.013-.335,2.876,.225,.83,.539,1.326,1.44,1.363,2.423,.809-.207,1.669-.092,2.387,.374,.863,.56,1.377,1.507,1.377,2.535,0,.855-.366,1.65-.973,2.212,.607,.566,.973,1.346,.973,2.195ZM7.154,4.717c0,.353,.17,.666,.466,.857,.296,.191,.65,.219,.973,.076h0s3.802-1.693,3.802-1.693c.367-.164,.605-.53,.605-.934,0-.353-.17-.665-.466-.857-.171-.111-.361-.167-.554-.167-.141,0-.283,.03-.419,.091l-3.802,1.693c-.367,.164-.605,.53-.605,.933Zm5.846,15.283h-2v2h2v-2Zm3.75-5.347c0-.353-.17-.666-.466-.857-.171-.111-.361-.167-.554-.167-.141,0-.283,.03-.419,.091l-7.557,3.325c-.363,.162-.601,.528-.601,.931,0,.353,.17,.666,.466,.857,.296,.192,.65,.22,.973,.076l.004-.002,7.552-3.322c.364-.162,.602-.528,.602-.931Zm0-4.426c0-.353-.17-.666-.466-.857-.171-.111-.361-.167-.554-.167-.123,0-.247,.033-.368,.08l-7.608,3.336c-.363,.162-.601,.528-.601,.931,0,.353,.17,.665,.466,.857,.297,.192,.652,.22,.973,.076l.004-.002,7.552-3.322c.364-.162,.602-.528,.602-.931Zm0-4.407c0-.353-.17-.665-.466-.857-.171-.111-.361-.167-.554-.167-.141,0-.283,.03-.419,.091l-7.557,3.325c-.363,.162-.601,.528-.601,.931,0,.353,.17,.666,.466,.857,.269,.175,.586,.206,.885,.103l7.645-3.352c.364-.162,.602-.528,.602-.931Zm6.999-.909l-.823-1.823-2.942,1.328,.823,1.823,2.942-1.328Zm-3.766,10.672l2.942,1.328,.823-1.823-2.942-1.328-.823,1.823ZM.25,4.912l2.942,1.328,.823-1.823L1.074,3.088l-.823,1.823ZM.25,15.088l.823,1.823,2.942-1.328-.823-1.823L.25,15.088Z"/>
</svg>
