<?xml version="1.0" encoding="UTF-8"?>
<svg xmlns="http://www.w3.org/2000/svg" id="Layer_1" data-name="Layer 1" viewBox="0 0 24 24">
  <path d="m0,16.5v-8.5c0-1.654,1.346-3,3-3h2.08c-.047.327-.08.66-.08,1s.033.673.08,1h-2.08c-.552,0-1,.448-1,1v4.762c-1.205.808-2,2.182-2,3.738ZM21,5h-2.08c.047.327.08.66.08,1s-.033.673-.08,1h2.08c.552,0,1,.448,1,1v4.762c1.205.808,2,2.182,2,3.738v-8.5c0-1.654-1.346-3-3-3Zm0,15h-3c-.771,0-1.468.301-2,.78-.532-.48-1.229-.78-2-.78h-4c-.771,0-1.468.301-2,.78-.532-.48-1.229-.78-2-.78h-3c-1.654,0-3,1.346-3,3v1h2v-1c0-.552.448-1,1-1h3c.552,0,1,.448,1,1v1h2v-1c0-.552.448-1,1-1h4c.552,0,1,.448,1,1v1h2v-1c0-.552.448-1,1-1h3c.552,0,1,.448,1,1v1h2v-1c0-1.654-1.346-3-3-3Zm-1.5-1c1.381,0,2.5-1.119,2.5-2.5s-1.119-2.5-2.5-2.5-2.5,1.119-2.5,2.5,1.119,2.5,2.5,2.5Zm-10-2.5c0,1.381,1.119,2.5,2.5,2.5s2.5-1.119,2.5-2.5-1.119-2.5-2.5-2.5-2.5,1.119-2.5,2.5Zm-7.5,0c0,1.381,1.119,2.5,2.5,2.5s2.5-1.119,2.5-2.5-1.119-2.5-2.5-2.5-2.5,1.119-2.5,2.5Zm4.291-8.399l1.42-.809c-.124-.412-.211-.84-.211-1.291s.087-.88.211-1.291l-1.42-.809.99-1.738,1.416.807c.606-.66,1.4-1.14,2.303-1.347V0h2v1.621c.903.206,1.697.687,2.303,1.347l1.416-.807.99,1.738-1.42.809c.124.412.211.84.211,1.291s-.087.88-.211,1.291l1.42.809-.99,1.738-1.416-.807c-.606.66-1.4,1.14-2.303,1.347v1.621h-2v-1.621c-.903-.206-1.697-.687-2.303-1.347l-1.416.807-.99-1.738Zm3.209-2.101c0,1.379,1.121,2.5,2.5,2.5s2.5-1.121,2.5-2.5-1.121-2.5-2.5-2.5-2.5,1.121-2.5,2.5Z"/>
</svg>
