<?xml version="1.0" encoding="UTF-8"?>
<svg xmlns="http://www.w3.org/2000/svg" id="Layer_1" data-name="Layer 1" viewBox="0 0 24 24">
  <path d="m8.925,5.759l.385,5.31h-1.217l-.242-3.339-1.196,2.631-1.196-2.631-.242,3.339h-1.217l.385-5.31c.032-.535.358-.759.749-.759.26,0,.501.184.638.486l.883,1.942.883-1.942c.137-.302.378-.486.638-.486.391,0,.717.224.749.759Zm10.331,3.479c0-.459-.177-.875-.46-1.198.283-.322.46-.736.46-1.194,0-1.01-.833-1.832-1.857-1.832l-2.018-.002v1.286h2.018c.316,0,.573.246.573.548s-.257.548-.573.548h-1.146s0,1.295,0,1.295h1.135c.316,0,.573.246.573.549s-.257.548-.573.548h-2.028v1.294h2.028c1.03,0,1.868-.827,1.868-1.843Zm-4.778-2.253c0,1.094-.902,1.985-2.012,1.985l-.717.003v2.096h-1.25v-6.069h1.967c1.109,0,2.012.891,2.012,1.985Zm-1.25,0c0-.398-.349-.735-.762-.735h-.715l.005,1.473.71-.003c.413,0,.762-.336.762-.735Zm10.771-3.985v15.414l-5.586,5.586H0V3C0,1.346,1.346,0,3,0h18c1.654,0,3,1.346,3,3ZM2,22h14v-6h6V3c0-.551-.448-1-1-1H3c-.552,0-1,.449-1,1v19Zm19.586-4h-3.586v3.586l3.586-3.586Z"/>
</svg>
