<?xml version="1.0" encoding="UTF-8"?>
<svg xmlns="http://www.w3.org/2000/svg" id="Layer_1" data-name="Layer 1" viewBox="0 0 24 24">
  <path d="m19.945,2.597L12-.038l-7.945,2.635c-1.229.407-2.055,1.549-2.055,2.842v6.525c0,6.563,7.005,10.576,9.152,11.65l.805.402.836-.336c2.16-.869,9.207-4.281,9.207-11.716v-6.525c0-1.293-.825-2.435-2.055-2.842Zm.055,9.367c0,6.181-6.088,9.11-7.953,9.861-1.889-.944-8.047-4.445-8.047-9.861v-6.525c0-.429.274-.808.684-.943l7.316-2.426,7.316,2.425c.409.136.684.515.684.944v6.525Zm-3-4.467l-.005-1.693-2.959,1.643c-1.293-.587-2.779-.587-4.072,0l-2.958-1.643-.006,1.693c-.008,2.477,0,4.503,0,4.503,0,2.757,2.243,5,5,5s5-2.243,5-5c0,0,.008-2.036,0-4.503Zm-2,4.503c0,1.654-1.346,3-3,3s-3-1.346-3-3c0,0-.006-2.051-.005-2.803l.974.541.496-.298c.969-.583,2.102-.583,3.07,0l.496.298.973-.541c.002.742-.004,2.803-.004,2.803Zm-4,0h2v1l-1,.5-1-.5v-1Z"/>
</svg>
