<?xml version="1.0" encoding="UTF-8"?>
<svg xmlns="http://www.w3.org/2000/svg" id="Layer_1" data-name="Layer 1" viewBox="0 0 24 24">
  <path d="m22.764.004c-1.999-.019-5.919.29-9.266,2.667-2.279,1.618-6.044,5.745-6.457,11.329h-2.041v2.298l-3.113,1.125c-1.386.554-2.159,2.064-1.797,3.513l.767,3.063h14.287l.768-3.064c.361-1.448-.412-2.958-1.829-3.525l-3.082-1.113v-2.298h-1.952c.063-.734.188-1.44.37-2.112,1.283-.06,5.005-.461,9.042-3.031,2.476-1.576,4.243-4.124,5.252-7.572l.37-1.265-1.318-.016Zm-9.393,19.275c.462.185.72.689.6,1.171l-.388,1.549H2.417l-.387-1.548c-.121-.483.137-.987.567-1.16l4.402-1.59v-1.702h2v1.702l4.371,1.578Zm4.015-12.11c-1.886,1.2-3.7,1.869-5.159,2.245,1.352-1.287,3.334-3.152,4.773-4.415-2.341.739-4.391,1.997-5.857,3.077,1.132-1.749,2.493-3.051,3.513-3.775,2.247-1.595,4.818-2.112,6.687-2.252-.894,2.297-2.221,4.016-3.957,5.121Z"/>
</svg>
