<?xml version="1.0" encoding="UTF-8"?>
<svg xmlns="http://www.w3.org/2000/svg" id="Layer_1" data-name="Layer 1" viewBox="0 0 24 24">
  <path d="m18,18c0,3.309-2.691,6-6,6s-5.972-2.667-5.998-5.954c-.002-.029-.002-.046-.002-.046,0-.97.237-1.885.647-2.696l1.542,1.542c-.112.368-.19.75-.19,1.154,0,2.206,1.794,4,4,4s4-1.794,4-4-1.794-4-4-4h-1l1.707,1.707-1.414,1.414-2.75-2.75c-.78-.779-.78-2.048,0-2.828l2.75-2.75,1.414,1.414-1.793,1.793h1.086c3.309,0,6,2.691,6,6Zm.348-12.77c-1.311-3.151-4.395-5.23-7.848-5.23C5.813,0,2,3.813,2,8.5c0,.551.053,1.098.157,1.633-1.347,1.033-2.157,2.645-2.157,4.367,0,2.749,1.846,5.027,4.244,5.43-.154-.619-.244-1.263-.244-1.93,0-.071.009-.14.011-.211-1.167-.48-2.011-1.766-2.011-3.289,0-1.261.684-2.43,1.783-3.05l.688-.389-.219-.76c-.168-.582-.253-1.188-.253-1.801,0-3.584,2.916-6.5,6.5-6.5,2.79,0,5.265,1.774,6.158,4.415l.191.564.587.101c2.645.453,4.563,2.732,4.563,5.419,0,1.748-.823,3.304-2.098,4.313.058.388.098.783.098,1.187,0,.4-.039.79-.096,1.174,2.427-1.243,4.096-3.765,4.096-6.674,0-3.467-2.344-6.437-5.652-7.27Z"/>
</svg>
