<?xml version="1.0" encoding="UTF-8"?>
<svg xmlns="http://www.w3.org/2000/svg" id="Layer_1" data-name="Layer 1" viewBox="0 0 24 24">
  <path d="M11.079,22c.437,.754,.992,1.428,1.642,2H3.043c-.118-.042-3.043-1.108-3.043-4.143,0-4.39,5.503-9.506,7-10.817V2h-2V0h13V2h-2v7.04c.261,.228,.648,.578,1.102,1.014-.803,.09-1.57,.298-2.284,.608-.164-.145-.818-.691-.818-.691V2h-5v7.97l-.362,.3c-1.019,.845-2.935,2.66-4.448,4.679h6.415c-.26,.63-.437,1.301-.529,2H2.896c-.543,1.009-.896,2.008-.896,2.908,0,1.347,1.019,1.957,1.416,2.143h7.663Zm11.203-2.687l1.416,.816-.998,1.733-1.411-.813c-.605,.652-1.393,1.125-2.289,1.33v1.621h-2v-1.621c-.896-.205-1.685-.678-2.289-1.33l-1.411,.813-.998-1.733,1.416-.816c-.129-.418-.218-.853-.218-1.313s.089-.895,.218-1.313l-1.416-.816,.998-1.733,1.411,.813c.605-.652,1.393-1.125,2.289-1.33v-1.621h2v1.621c.896,.205,1.685,.678,2.289,1.33l1.411-.813,.998,1.733-1.416,.816c.129,.418,.218,.853,.218,1.313s-.089,.895-.218,1.313Zm-1.782-1.313c0-1.378-1.122-2.5-2.5-2.5s-2.5,1.122-2.5,2.5,1.122,2.5,2.5,2.5,2.5-1.122,2.5-2.5Z"/>
</svg>
