<?xml version="1.0" encoding="UTF-8"?>
<svg xmlns="http://www.w3.org/2000/svg" id="Layer_1" data-name="Layer 1" viewBox="0 0 24 24">
  <path d="m22.66,5.249l-.888-.78c-.68-2.567-2.991-4.469-5.772-4.469-2.972,0-6.5,1.5-8,5h3c-1.582.85-2.5,2.5-2.5,4,0,1.232.5,3,2.5,4.5v-3.5c.268.937,2.085,4.519,5,7.049v4.951h-1v-4H7v4h-1v-3.5l-.041-.281c-.121-.413-.246-.782-.367-1.136-.335-.986-.6-1.765-.593-3.078.006-1.143.866-2.005,2-2.005h1.19c-.343-.723-.525-1.409-.613-2h-.577c-1.128,0-2.132.45-2.854,1.183-1.051.442-4.146,2.295-4.146,8.817h2c0-2.433.471-4.028,1.039-5.079.096,1.131.371,1.952.661,2.806.099.289.201.59.301.919v5.354h5v-4h4v4h5v-7.516c.8-1.142,1.898-2.843,2.623-4.484h.377c1.654,0,3-1.346,3-3v-2.414l-1.34-1.337Zm-5.966,9.756c-2.236-2.108-3.595-4.977-3.771-5.554-.749-1.638-.554-3.976.541-6.982.869-.318,1.756-.468,2.536-.468.747,0,1.731.332,2.333.692-1.458.718-2.829,1.936-3.193,3.557-.374,1.665.014,3.373,1.064,4.685.529.661,1.189,1.18,1.928,1.533-.452.784-.967,1.892-1.438,2.538Zm5.306-6.005c0,.552-.449,1-1,1h-2.92c-.833-.807-1.281-2.01-.988-3.312.215-.955.949-1.645,1.84-2.052l2.361,2.072.707.707v1.586Z"/>
</svg>
