<?xml version="1.0" encoding="UTF-8"?>
<svg xmlns="http://www.w3.org/2000/svg" id="Layer_1" data-name="Layer 1" viewBox="0 0 24 24">
  <path d="M12,7c1.163,0,2.271,.523,3.042,1.437l.343,.407,3.728-.404,2.048-3.548-.402-.529C18.654,1.59,15.462,0,12,0,5.935,0,1,4.935,1,11c0,4.156,1.589,8.736,2.491,11h-1.491v2H10v-1.5l-.033-.254c-.02-.075-1.967-7.532-1.967-11.246,0-2.206,1.794-4,4-4Zm-6.344-2.377c1.406-1.398,3.27-2.334,5.344-2.564v3.031c-1.073,.181-2.05,.643-2.85,1.314l-2.493-1.781Zm13.095,.44l-.864,1.497-1.69,.183c-.882-.874-1.998-1.444-3.198-1.652V2.056c2.226,.245,4.259,1.304,5.751,3.007Zm-14.344,1.125l2.444,1.746c-.537,.899-.852,1.945-.852,3.066H3c0-1.771,.521-3.418,1.407-4.812Zm1.248,15.812c-.6-1.424-2.087-5.247-2.527-9h2.993c.339,3.233,1.304,7.327,1.721,9h-2.186ZM23.056,10.729l-3.648,1.21-3.357-1.269-.094,1.34c-.276,3.921-1.907,10.173-1.924,10.235l-.033,1.754h8v-2h-1.492c.813-2.044,2.187-5.979,2.446-9.784l.102-1.486Zm-4.711,11.271h-2.186c.395-1.591,1.288-5.377,1.664-8.521l1.542,.582,1.433-.475c-.516,3.56-1.884,7.064-2.452,8.414Z"/>
</svg>
