<?xml version="1.0" encoding="UTF-8"?>
<svg xmlns="http://www.w3.org/2000/svg" id="Layer_1" data-name="Layer 1" viewBox="0 0 24 24">
  <path d="m6.999,18c0,.828-.672,1.5-1.5,1.5s-1.5-.672-1.5-1.5.672-1.5,1.5-1.5,1.5.672,1.5,1.5Zm3.5-1.5c-.828,0-1.5.672-1.5,1.5s.672,1.5,1.5,1.5,1.5-.672,1.5-1.5-.672-1.5-1.5-1.5ZM23.999,2v12c0,1.654-1.346,3-3,3h-4v-2.914l5-5v-4.251l-6.001,5.601-.004,1.562c.002.798-.31,1.553-.876,2.122-.161.161-.341.296-.529.415.869.9,1.41,2.119,1.41,3.466,0,2.757-2.243,5-5,5h-6C2.242,23,0,20.757,0,18,0,16.655.539,15.437,1.406,14.538.559,14.007-.011,13.072-.011,12l.015-2.998,5.004-.01-.01-8.002h4.118c1.182,0,2.257.697,2.739,1.776l2.777,6.21,7.474-6.976h1.894Zm-16.999.99l.007,6h5.439l-2.418-5.408c-.161-.359-.519-.592-.913-.592h-2.115ZM1.989,12.005c0,.546.449.995,1,.995h10.005c.268,0,.519-.104.708-.293s.293-.441.292-.709l.002-1.002-12.002.003-.005,1.007Zm12.01,5.995c0-1.654-1.346-3-3-3h-6c-1.654,0-3,1.346-3,3s1.346,3,3,3h6c1.654,0,3-1.346,3-3Zm8-6.086l-3,3v.086h2c.551,0,1-.449,1-1v-2.086Z"/>
</svg>
