<?xml version="1.0" encoding="UTF-8"?>
<svg xmlns="http://www.w3.org/2000/svg" id="Layer_1" data-name="Layer 1" viewBox="0 0 24 24">
  <path d="m24,6.5S20.5,0,14,0l-2,1-2-1C3.5,0,0,6.5,0,6.5l1.466-.242c-.749,1.618-1.466,3.806-1.466,6.242v3.5l1.486-1.365c.712,2.729,1.32,4.449,1.514,4.865l1.344,2.952,1.138-2.092c2.619,1.811,6.374,3.604,6.518,3.64.144-.036,3.898-1.829,6.518-3.64l1.138,2.092,1.344-2.952c.193-.416.802-2.137,1.514-4.865l1.486,1.365v-3.5c0-2.437-.718-4.624-1.466-6.242l1.466.242Zm-2.582,4.413l-.839,3.217c-.453,1.735-.854,3.02-1.116,3.783l-.252-.463-1.831,1.265c-1.812,1.252-4.189,2.488-5.38,3.076-1.191-.588-3.569-1.823-5.38-3.076l-1.831-1.265-.252.463c-.26-.758-.662-2.045-1.116-3.783l-.839-3.217-.524.481c.179-1.727.74-3.251,1.223-4.296l1.43-3.091c1.249-1.01,2.876-1.878,4.843-1.993l1.552.776.894.447.894-.447,1.551-.776c1.966.118,3.601,1.001,4.857,2.023l1.416,3.061c.484,1.045,1.044,2.569,1.223,4.296l-.524-.481Zm-10.918-1.163c0,.69-.56,1.25-1.25,1.25s-1.25-.56-1.25-1.25.56-1.25,1.25-1.25,1.25.56,1.25,1.25Zm5.5,0c0,.69-.56,1.25-1.25,1.25s-1.25-.56-1.25-1.25.56-1.25,1.25-1.25,1.25.56,1.25,1.25Zm1.27-4.889l-.298-.359-.467-.002c-.094.016-2.316.002-4.504,1.175-2.188-1.173-4.414-1.163-4.504-1.175l-.467.002-.298.359c-.177.214-1.73,2.143-1.73,4.139,0,1.77.565,3.263.865,3.929l-.574,2.295,4.334,3.776h4.749l4.334-3.776-.574-2.295c.3-.666.865-2.159.865-3.929,0-1.996-1.553-3.925-1.73-4.139Zm-.798,9.659l-2.846,2.479h-.625v-2l1-1v-1h-4v1l1,1v2h-.625l-2.846-2.479.457-1.836-.183-.34c-.008-.016-.802-1.516-.802-3.345,0-.851.566-1.867.98-2.472.726.07,2.165.313,3.485,1.148l.535.339.535-.339c1.309-.828,2.757-1.073,3.486-1.146.414.605.979,1.62.979,2.47,0,1.829-.794,3.329-.801,3.342l-.187.343.459,1.836Z"/>
</svg>
