<?xml version="1.0" encoding="UTF-8"?>
<svg xmlns="http://www.w3.org/2000/svg" id="Layer_1" data-name="Layer 1" viewBox="0 0 24 24">
  <path d="m8.092,2.5c0-1.381,1.119-2.5,2.5-2.5s2.5,1.119,2.5,2.5-1.119,2.5-2.5,2.5-2.5-1.119-2.5-2.5Zm10.908,7.5v2h2.768l-3.479,10h-7.289v-5.571l-4.534-2.671c-.411-.261-.576-.775-.391-1.225l1.859-4.533h.16c.563,0,1.089.242,1.486.674l-1.516,3.703,1.741,1.026,1.259-3.073,1.487,1.671h4.449v-2h-3.552l-2.281-2.562c-.762-.914-1.882-1.438-3.073-1.438H2.553L.473,10.499l1.815.84,1.543-3.339h1.941l-1.548,3.773c-.439,1.07-.211,2.257.527,3.102l-.911,2.124H0v2h5.159l1.263-2.948,2.578,1.519v4.429H0v2h19.711l4.289-12.331v-1.669h-5Z"/>
</svg>
