<?xml version="1.0" encoding="UTF-8"?>
<svg xmlns="http://www.w3.org/2000/svg" id="Layer_1" data-name="Layer 1" viewBox="0 0 24 24">
  <path d="m14,13v-1c0-1.103-.897-2-2-2s-2,.897-2,2,.897,2,2,2v2c-2.206,0-4-1.794-4-4s1.794-4,4-4c1.86,0,3.429,1.277,3.873,3h2.037c-.06-.357-.152-.703-.273-1.037-.93-.171-1.637-.983-1.637-1.963,0-.144.017-.283.045-.418-1.068-.979-2.486-1.582-4.045-1.582s-2.977.603-4.045,1.582c.029.135.045.275.045.418,0,.98-.706,1.792-1.637,1.963-.231.637-.363,1.321-.363,2.037,0,2.762,1.878,5.088,4.423,5.783.366-.473.933-.783,1.577-.783s1.213.311,1.579.785c1.526-.423,2.803-1.443,3.587-2.786h2.246c-.963,2.369-3.035,4.157-5.563,4.761-.299.727-1.013,1.239-1.848,1.239-.829,0-1.54-.504-1.843-1.223-3.524-.836-6.157-4.001-6.157-7.777,0-.953.176-1.863.483-2.711-.297-.349-.483-.795-.483-1.289,0-1.105.895-2,2-2,.214,0,.417.043.611.105,1.424-1.303,3.312-2.105,5.389-2.105s3.966.802,5.389,2.105c.194-.062.396-.105.611-.105,1.105,0,2,.895,2,2,0,.494-.186.94-.483,1.289.198.546.339,1.117.413,1.711h2.02c-.503-5.046-4.773-9-9.95-9C6.486,2,2,6.486,2,12s4.486,10,10,10h0c4.469,0,8.261-2.948,9.539-7h2.066c-1.338,5.167-6.026,9-11.605,9,0,0,0,0,0,0-6.617,0-12-5.383-12-12S5.383,0,12,0s12,5.383,12,12v1h-10Z"/>
</svg>
