<?xml version="1.0" encoding="UTF-8"?>
<svg xmlns="http://www.w3.org/2000/svg" id="Layer_1" data-name="Layer 1" viewBox="0 0 24 24">
  <path d="m10,5.857h2v5.731l-4.372,2.429-.971-1.748,3.343-1.857v-4.555ZM2,11C2,6.038,6.037,2,11,2c4.109,0,7.694,2.775,8.716,6.749,0,0,0,0,0,.001.106.409.175.828.221,1.25h2c-.054-.591-.137-1.178-.284-1.75,0,0,0,0,0-.002C20.402,3.392,16.022,0,11,0,4.935,0,0,4.935,0,11c0,4.762,3.037,8.961,7.557,10.45.792.261,1.611.426,2.443.501v-2.03c-.618-.068-1.229-.177-1.818-.371-3.697-1.218-6.182-4.654-6.182-8.55Zm22,5v8h-12v-8c0-1.103.897-2,2-2v-2h2v2h4v-2h2v2c1.103,0,2,.897,2,2Zm-2,6v-4h-8v4h8Z"/>
</svg>
