<?xml version="1.0" encoding="UTF-8"?>
<svg xmlns="http://www.w3.org/2000/svg" id="Layer_1" data-name="Layer 1" viewBox="0 0 24 24">
  <path d="m24,6v12h-10v-2h8V6c0-2.206-1.794-4-4-4h-7.54c.954,1.063,1.54,2.462,1.54,4v6h-2v-6c0-2.206-1.794-4-4-4S2,3.794,2,6v6H0v-6C0,2.691,2.691,0,6,0h12c3.309,0,6,2.691,6,6Zm-20,0v2h4v-2h-4Zm16,4v-4h-6v2h4v2h2Zm-8,6.5v7.5H0v-7.5c0-1.378,1.122-2.5,2.5-2.5h7c1.378,0,2.5,1.122,2.5,2.5Zm-8.414-.5l1.707,1.707c.378.378,1.037.377,1.414,0l1.708-1.708H3.586Zm6.414,6v-4.758l-1.879,1.879c-.566.566-1.319.879-2.121.879s-1.555-.312-2.122-.879l-1.878-1.878v4.758h8Z"/>
</svg>
