<?xml version="1.0" encoding="UTF-8"?>
<svg xmlns="http://www.w3.org/2000/svg" id="Layer_1" data-name="Layer 1" viewBox="0 0 24 24">
  <path d="m19.316,11.552c-.527-.176-1.008-.341-1.469-.502.904-3.091,1.35-5.73,1.535-7.05h3.58l1.037-4h-2.031l-.584,2h-3.789l-.091.9c-.004.035-.347,3.353-1.539,7.473-1.105-.411-1.983-.76-2.707-1.048-2.28-.91-3.321-1.325-5.759-1.325-.739,0-1.452.112-2.127.312l-1.019-3.312h2.646v-2H0v2h2.262l1.275,4.144C1.417,10.471,0,12.82,0,15.5,0,18.372,1.624,20.869,4,22.128v1.872h2v-1.151c.485.099.986.151,1.5.151h10.5v1h2v-1.283c2.322-.713,4-2.705,4-5.05,0-2.856-1.514-4.85-4.684-6.115Zm-1.191,9.448H7.5c-3.033,0-5.5-2.468-5.5-5.5s2.467-5.5,5.5-5.5c2.054,0,2.801.298,5.018,1.183,1.359.542,3.22,1.284,6.11,2.246,2.971,1.188,3.372,2.81,3.372,4.238,0,1.994-2.003,3.333-3.875,3.333ZM7.5,12c-1.93,0-3.5,1.57-3.5,3.5s1.57,3.5,3.5,3.5c1.58,0,2.903-1.059,3.337-2.5h3.163v-2h-3.163c-.434-1.441-1.757-2.5-3.337-2.5Zm0,5c-.827,0-1.5-.673-1.5-1.5s.673-1.5,1.5-1.5,1.5.673,1.5,1.5-.673,1.5-1.5,1.5Z"/>
</svg>
