<?xml version="1.0" encoding="UTF-8"?>
<svg xmlns="http://www.w3.org/2000/svg" id="Layer_1" data-name="Layer 1" viewBox="0 0 24 24">
  <path d="m12,12c3.309,0,6-2.691,6-6h2v-2h-2.35c-.826-2.327-3.043-4-5.65-4-3.309,0-6,2.691-6,6s2.691,6,6,6Zm0-2c-2.206,0-4-1.794-4-4h8c0,2.206-1.794,4-4,4Zm0-8c1.474,0,2.75.81,3.444,2h-6.887c.694-1.19,1.97-2,3.444-2Zm9,16.5v5.5h-2v-5.5c0-1.215-.873-2.229-2.024-2.452l-2.515,3.952-2.5-3-2.5,3-2.505-3.937c-1.117.249-1.956,1.245-1.956,2.437v5.5h-2v-5.5c0-2.481,2.019-4.5,4.5-4.5h9c2.481,0,4.5,2.019,4.5,4.5Z"/>
</svg>
