<?xml version="1.0" encoding="UTF-8"?>
<svg xmlns="http://www.w3.org/2000/svg" id="Layer_1" data-name="Layer 1" viewBox="0 0 24 24">
  <path d="m24,10.074v1.275c-.639-.791-1.412-1.465-2.281-2.002-.043-.049-.088-.097-.14-.138L12.674,2.232c-.396-.311-.952-.311-1.349,0L2.421,9.209c-.268.21-.421.524-.421.865v11.926h7.518c.506.756,1.125,1.429,1.831,2H0v-13.926c0-.96.433-1.849,1.188-2.439L10.092.658c1.123-.879,2.692-.881,3.815,0l8.903,6.975s.002,0,.003.001c.754.592,1.187,1.48,1.187,2.439Zm0,6.926c0,3.859-3.14,7-7,7s-7-3.141-7-7,3.14-7,7-7,7,3.141,7,7Zm-2,0c0-2.757-2.243-5-5-5s-5,2.243-5,5,2.243,5,5,5,5-2.243,5-5Zm-5.639.867l-1.63-1.58-1.393,1.436,1.846,1.789c.315.315.733.488,1.179.488s.864-.174,1.172-.482l3.457-3.399-1.402-1.426-3.229,3.175Z"/>
</svg>
