<?xml version="1.0" encoding="UTF-8"?>
<svg xmlns="http://www.w3.org/2000/svg" id="Layer_1" data-name="Layer 1" viewBox="0 0 24 24">
  <path d="m16,2c0-1.105.895-2,2-2s2,.895,2,2c0-1.105.895-2,2-2s2,.895,2,2c0,2.333-4,5-4,5,0,0-4-2.667-4-5Zm7.316,7.551l.684.228v10.538l-.35.299c-.161.138-4.035,3.384-11.65,3.384C4.235,24,.162,18.309,0,18.077-.033,14.615-.105,6.472,6.677,1.255c.101-.092,1.498-1.279,3.323-1.279C12.504-.024,14,1.756,14,3.476v.678l-1.981.789v1.034l-2.987.951c-.048.442-.029,1.029-.01,1.64.037,1.184.074,2.664-.287,4.256,1.057-.449,2.355-.823,3.765-.823.695,0,1.317.132,1.879.322.4-.506,2.754-3.322,5.621-3.322,1.644,0,3.249.529,3.316.551Zm-1.316,1.711c-.52-.124-1.268-.262-2-.262-1.502,0-3.062,1.42-3.805,2.267.802.592,1.258,1.179,1.295,1.228l-1.597,1.204c-.013-.017-1.328-1.699-3.394-1.699-2.736,0-5.11,1.879-5.134,1.898l-1.257-1.556c1.03-2.002.964-4.087.913-5.711-.034-1.087-.064-2.027.215-2.814l.165-.469,2.616-.833v-.928l1.809-.72c-.26-.458-.829-.891-1.827-.891-1.089,0-2.046.816-2.056.825C1.903,7.45,1.966,14.042,1.998,17.421c.783.972,4.088,4.579,10.002,4.579,5.644,0,8.967-1.932,10-2.643v-8.095Z"/>
</svg>
