<?xml version="1.0" encoding="UTF-8"?>
<svg xmlns="http://www.w3.org/2000/svg" id="Layer_1" data-name="Layer 1" viewBox="0 0 24 24">
  <path d="M4.929,19.071l-1.414,1.414C-1.164,15.807-1.164,8.193,3.515,3.515l1.414,1.414c-3.898,3.899-3.898,10.243,0,14.143ZM20.485,3.515l-1.414,1.414c3.898,3.899,3.898,10.243,0,14.143l1.414,1.414c4.678-4.679,4.678-12.292,0-16.971ZM12,13.5c-.828,0-1.5,.672-1.5,1.5s.672,1.5,1.5,1.5,1.5-.672,1.5-1.5-.672-1.5-1.5-1.5Zm8-1.5c0,4.411-3.589,8-8,8s-8-3.589-8-8S7.589,4,12,4s8,3.589,8,8Zm-2,0c0-3.309-2.691-6-6-6s-6,2.691-6,6,2.691,6,6,6,6-2.691,6-6Zm-5-5h-2v5h2V7Z"/>
</svg>
