<?xml version="1.0" encoding="UTF-8"?>
<svg xmlns="http://www.w3.org/2000/svg" id="Layer_1" data-name="Layer 1" viewBox="0 0 24 24">
  <path d="M22,13.065c-.381,.188-.748,.353-1.075,.499-.329,.146-.638,.288-.925,.428v8.007h-2v-6h-2v6H6c-.166,0-.327-.02-.488-.04,.002-.119,.019-.53,.105-1.133,.109-.483,.211-.972,.303-1.468,.686-2.571,2.551-6.286,7.582-7.802,.134,.061,.269,.123,.399,.181,.65,.29,1.265,.564,1.778,.882,.409,.254,.868,.381,1.327,.381s.917-.127,1.326-.381c.514-.318,1.128-.592,1.778-.882,1.733-.773,3.89-1.736,3.89-3.973,0-.976-.377-2.008-.993-2.964l.006-2.708c0-.808-.452-1.528-1.179-1.88-.727-.353-1.573-.26-2.206,.24l-1.055,.822c-.526-.171-1.054-.274-1.568-.274s-1.043,.103-1.57,.275l-1.051-.823c-.633-.5-1.479-.593-2.206-.24-.727,.352-1.179,1.073-1.179,1.88v2.714c-.614,.955-.989,1.985-.989,2.959,0,1.094,.519,1.88,1.249,2.491-1.997,.878-3.489,2.084-4.588,3.403,.38-4.376,.345-8.364,.328-10.172-.018-1.922-1.588-3.487-3.5-3.487S.017,1.564,0,3.493c0,0-.008,9.975,0,14.521,.006,3.301,2.697,5.986,6,5.986H24v-2h-2V13.065ZM17.005,3c1.825,0,4.247,2.084,4.851,3.945-1.009-.519-2.453-.945-3.358-.945-.828,0-1.499,.671-1.499,1.499s.671,1.499,1.499,1.499c.467,0,1.839-.054,2.946-.25-.463,.384-1.195,.737-2.151,1.163-.467,.208-.936,.432-1.393,.671-.159-.342-.5-.582-.902-.582s-.739,.239-.899,.578c-.454-.237-.921-.459-1.385-.666-.952-.425-1.682-.776-2.146-1.159,1.105,.194,2.466,.249,2.931,.249,.828,0,1.499-.671,1.499-1.499s-.671-1.498-1.499-1.499c-.9-.002-2.336,.42-3.344,.936,.608-1.859,3.026-3.939,4.849-3.939ZM3.84,19.567c-.03,.135-.248,1.167-.344,1.55-.91-.732-1.494-1.853-1.496-3.107,0-.311,0-.653-.001-1.01h2.281c-.125,.867-.27,1.726-.44,2.567Zm.692-4.567H1.997c0-.957,0-1.976,0-3h2.798c-.066,.977-.152,1.984-.263,3Zm.375-5H1.997c0-1.069,0-2.091,.001-3h2.997c-.014,.913-.04,1.921-.088,3ZM1.999,5c0-.799,0-1.347,0-1.475,0-.855,.659-1.525,1.5-1.525,.833,0,1.492,.661,1.5,1.505,.004,.395,.008,.906,.009,1.495H1.999Z"/>
</svg>
