<?xml version="1.0" encoding="UTF-8"?>
<svg xmlns="http://www.w3.org/2000/svg" id="Layer_1" data-name="Layer 1" viewBox="0 0 24 24">
  <path d="m6.769,6.309l-2.769-1.54v-.769h3.625l.981-3.75h.809l.98,3.75h3.605v.764l-2.75,1.591,1.105,3.357-.625.436-2.717-2.101-2.729,2.11-.601-.453,1.086-3.396Zm16.468,6.706l-9.788,10.985H3c-1.654,0-3-1.346-3-3v-7c0-1.654,1.346-3,3-3h9.858c1.139,0,2.138.609,2.689,1.519l3.216-3.534c.542-.595,1.282-.943,2.086-.981.804-.034,1.574.24,2.168.782,1.213,1.105,1.312,3.003.219,4.229Zm-1.566-2.751c-.2-.182-.454-.278-.728-.263-.27.013-.519.13-.7.329l-4.426,4.864c-.385,1.071-1.339,1.891-2.515,2.059l-5.16.737-.283-1.98,5.161-.737c.56-.079.981-.565.981-1.13,0-.63-.512-1.143-1.142-1.143H3c-.551,0-1,.448-1,1v7c0,.552.449,1,1,1h9.552l9.191-10.315c.367-.412.334-1.05-.073-1.421Z"/>
</svg>
