<?xml version="1.0" encoding="UTF-8"?>
<svg xmlns="http://www.w3.org/2000/svg" id="Layer_1" data-name="Layer 1" viewBox="0 0 24 24">
  <path d="M24,17v2h-1v3h-2V14h2v3h1Zm-6,0H6v-5h-2v12h2v-5h12v5h2V12h-2v5Zm-17,0H0v2H1v3H3V14H1v3Zm5.879-7.777c-.366-.493-.474-1.114-.296-1.702L9.18,0h6.471l-1.537,4h1.774c.703,0,1.347,.385,1.679,1.005,.333,.619,.297,1.368-.092,1.953l-5.117,7.042h-2.981l.973-4h-1.927c-.615,0-1.178-.283-1.544-.777Zm1.643-1.191l3.101-.031h1.272l-.68,2.796,3.522-4.845-4.534,.049,1.537-4h-2.135l-2.083,6.031Z"/>
</svg>
